<svg width="20" height="20" viewBox="0 0 20 20" fill="none" xmlns="http://www.w3.org/2000/svg">
<path d="M3.64951 2.80039C5.09398 1.52273 6.891 0.711648 8.80471 0.473594C8.87911 0.989594 8.97271 1.56439 9.09271 2.16319C9.30871 3.24319 9.60871 4.41919 10.0239 5.49559C10.3551 6.35839 10.7715 7.18639 11.2983 7.85359L9.99991 9.15199L3.64951 2.80039ZM2.79991 3.65119C1.52175 5.09548 0.710227 6.89253 0.471906 8.80639C0.987906 8.88079 1.56151 8.97439 2.16031 9.09439C3.24031 9.31039 4.41631 9.61039 5.49271 10.0256C6.35551 10.3568 7.18471 10.7732 7.85071 11.3L9.15151 10.0004L2.79991 3.64999V3.65119ZM6.99511 12.1568C6.47911 11.7728 5.81671 11.4356 5.06311 11.1452C4.07071 10.7636 2.96671 10.4804 1.92511 10.2716C1.41904 10.1703 0.910472 10.0819 0.399906 10.0064C0.397899 12.3434 1.25164 14.6002 2.79991 16.3508L6.99631 12.1556L6.99511 12.1568ZM3.64711 17.2004L7.84351 13.0052C8.22751 13.5212 8.56351 14.1836 8.85391 14.9372C9.23551 15.9284 9.51871 17.0336 9.72751 18.074C9.83551 18.6116 9.92191 19.13 9.99151 19.6016C7.65492 19.6033 5.39854 18.7496 3.64831 17.2016L3.64711 17.2004ZM8.69911 12.1484L9.99991 10.85L16.3503 17.2004C14.9059 18.4784 13.1089 19.2899 11.1951 19.5284C11.1195 19.0124 11.0247 18.4376 10.9059 17.8388C10.6899 16.7588 10.3899 15.5828 9.97591 14.5064C9.64351 13.6448 9.22831 12.8156 8.70031 12.1496L8.69911 12.1484ZM17.1999 16.352C18.4781 14.9077 19.2896 13.1107 19.5279 11.1968C19.0119 11.1224 18.4371 11.0288 17.8383 10.9088C16.7583 10.6928 15.5823 10.3928 14.5059 9.9788C13.6443 9.64639 12.8151 9.23119 12.1479 8.70319L10.8483 10.0004L17.1999 16.3508V16.352ZM13.0035 7.84759C13.5195 8.23159 14.1831 8.56759 14.9355 8.858C15.9279 9.23959 17.0331 9.52279 18.0735 9.73159C18.6111 9.83959 19.1295 9.92599 19.6011 9.99559C19.6031 7.6586 18.7494 5.40174 17.2011 3.65119L13.0035 7.84759ZM16.3503 2.80039C14.5998 1.25212 12.3429 0.398387 10.0059 0.400394C10.0755 0.871994 10.1619 1.39039 10.2699 1.92799C10.4787 2.96959 10.7619 4.07359 11.1435 5.06479C11.4339 5.81839 11.7699 6.48079 12.1539 6.99679L16.3503 2.80159V2.80039Z" fill="#FEFEFE"/>
</svg>
