<svg width="24" height="23" viewBox="0 0 24 23" fill="none" xmlns="http://www.w3.org/2000/svg">
<path d="M7.6065 0.864637C7.70874 0.69397 7.87459 0.570909 8.06757 0.522524C8.26054 0.47414 8.46483 0.504396 8.6355 0.606637C8.80617 0.708878 8.92923 0.874729 8.97761 1.0677C9.026 1.26068 8.99574 1.46497 8.8935 1.63564L5.0745 8.00014H18.9255L15.105 1.63564C15.0028 1.46497 14.9725 1.26068 15.0209 1.0677C15.0693 0.874729 15.1923 0.708878 15.363 0.606637C15.5337 0.504396 15.738 0.47414 15.9309 0.522524C16.1239 0.570909 16.2898 0.69397 16.392 0.864637L20.6745 8.00014H23.25C23.4489 8.00014 23.6397 8.07915 23.7803 8.21981C23.921 8.36046 24 8.55122 24 8.75014V11.7501C24 11.949 23.921 12.1398 23.7803 12.2805C23.6397 12.4211 23.4489 12.5001 23.25 12.5001H22.5V20.0001C22.5 20.7958 22.1839 21.5588 21.6213 22.1215C21.0587 22.6841 20.2956 23.0001 19.5 23.0001H4.5C3.70435 23.0001 2.94129 22.6841 2.37868 22.1215C1.81607 21.5588 1.5 20.7958 1.5 20.0001V12.5001H0.75C0.551088 12.5001 0.360322 12.4211 0.21967 12.2805C0.0790176 12.1398 0 11.949 0 11.7501V8.75014C0 8.55122 0.0790176 8.36046 0.21967 8.21981C0.360322 8.07915 0.551088 8.00014 0.75 8.00014H3.3255L7.605 0.864637H7.6065ZM5.25 14.7501C5.25 14.5512 5.17098 14.3605 5.03033 14.2198C4.88968 14.0792 4.69891 14.0001 4.5 14.0001C4.30109 14.0001 4.11032 14.0792 3.96967 14.2198C3.82902 14.3605 3.75 14.5512 3.75 14.7501V19.2501C3.75 19.449 3.82902 19.6398 3.96967 19.7805C4.11032 19.9211 4.30109 20.0001 4.5 20.0001C4.69891 20.0001 4.88968 19.9211 5.03033 19.7805C5.17098 19.6398 5.25 19.449 5.25 19.2501V14.7501ZM9 14.7501C9 14.5512 8.92098 14.3605 8.78033 14.2198C8.63968 14.0792 8.44891 14.0001 8.25 14.0001C8.05109 14.0001 7.86032 14.0792 7.71967 14.2198C7.57902 14.3605 7.5 14.5512 7.5 14.7501V19.2501C7.5 19.449 7.57902 19.6398 7.71967 19.7805C7.86032 19.9211 8.05109 20.0001 8.25 20.0001C8.44891 20.0001 8.63968 19.9211 8.78033 19.7805C8.92098 19.6398 9 19.449 9 19.2501V14.7501ZM12.75 14.7501C12.75 14.5512 12.671 14.3605 12.5303 14.2198C12.3897 14.0792 12.1989 14.0001 12 14.0001C11.8011 14.0001 11.6103 14.0792 11.4697 14.2198C11.329 14.3605 11.25 14.5512 11.25 14.7501V19.2501C11.25 19.449 11.329 19.6398 11.4697 19.7805C11.6103 19.9211 11.8011 20.0001 12 20.0001C12.1989 20.0001 12.3897 19.9211 12.5303 19.7805C12.671 19.6398 12.75 19.449 12.75 19.2501V14.7501ZM16.5 14.7501C16.5 14.5512 16.421 14.3605 16.2803 14.2198C16.1397 14.0792 15.9489 14.0001 15.75 14.0001C15.5511 14.0001 15.3603 14.0792 15.2197 14.2198C15.079 14.3605 15 14.5512 15 14.7501V19.2501C15 19.449 15.079 19.6398 15.2197 19.7805C15.3603 19.9211 15.5511 20.0001 15.75 20.0001C15.9489 20.0001 16.1397 19.9211 16.2803 19.7805C16.421 19.6398 16.5 19.449 16.5 19.2501V14.7501ZM20.25 14.7501C20.25 14.5512 20.171 14.3605 20.0303 14.2198C19.8897 14.0792 19.6989 14.0001 19.5 14.0001C19.3011 14.0001 19.1103 14.0792 18.9697 14.2198C18.829 14.3605 18.75 14.5512 18.75 14.7501V19.2501C18.75 19.449 18.829 19.6398 18.9697 19.7805C19.1103 19.9211 19.3011 20.0001 19.5 20.0001C19.6989 20.0001 19.8897 19.9211 20.0303 19.7805C20.171 19.6398 20.25 19.449 20.25 19.2501V14.7501Z" fill="#FEFEFE"/>
</svg>
