<svg width="30" height="22" viewBox="0 0 30 22" fill="none" xmlns="http://www.w3.org/2000/svg">
<path d="M15.0002 0.5C14.6205 0.5 14.2455 0.565625 13.8893 0.692187L0.740858 5.44062C0.295546 5.60469 0.000233231 6.02656 0.000233231 6.5C0.000233231 6.97344 0.295546 7.39531 0.740858 7.55938L3.45492 8.53906C2.68617 9.74844 2.25023 11.1781 2.25023 12.6828V14C2.25023 15.3313 1.74398 16.7047 1.20492 17.7875C0.900233 18.3969 0.553358 18.9969 0.150233 19.55C0.000233233 19.7516 -0.0419543 20.0141 0.0424207 20.2531C0.126796 20.4922 0.323671 20.6703 0.567421 20.7313L3.56742 21.4813C3.7643 21.5328 3.97523 21.4953 4.14867 21.3875C4.32211 21.2797 4.44398 21.1016 4.48148 20.9C4.88461 18.8938 4.68305 17.0938 4.38305 15.8047C4.23305 15.1391 4.03148 14.4594 3.75023 13.8359V12.6828C3.75023 11.2672 4.22836 9.93125 5.05805 8.8625C5.66273 8.13594 6.44555 7.55 7.3643 7.18906L14.7237 4.29688C15.108 4.14687 15.544 4.33437 15.694 4.71875C15.844 5.10313 15.6565 5.53906 15.2721 5.68906L7.91273 8.58125C7.33148 8.81094 6.82055 9.1625 6.40336 9.59375L13.8846 12.2938C14.2409 12.4203 14.6159 12.4859 14.9955 12.4859C15.3752 12.4859 15.7502 12.4203 16.1065 12.2938L29.2596 7.55938C29.7049 7.4 30.0002 6.97344 30.0002 6.5C30.0002 6.02656 29.7049 5.60469 29.2596 5.44062L16.1112 0.692187C15.7549 0.565625 15.3799 0.5 15.0002 0.5ZM6.00023 18.125C6.00023 19.7797 10.0315 21.5 15.0002 21.5C19.969 21.5 24.0002 19.7797 24.0002 18.125L23.283 11.3094L16.6174 13.7188C16.0971 13.9062 15.5487 14 15.0002 14C14.4518 14 13.8987 13.9062 13.383 13.7188L6.71742 11.3094L6.00023 18.125Z" fill="#FEFEFE"/>
</svg>
