<svg width="20" height="19" viewBox="0 0 20 19" fill="none" xmlns="http://www.w3.org/2000/svg">
<path d="M18.7562 0.402937C18.4824 0.307826 18.1871 0.292581 17.9049 0.358981C17.6227 0.425382 17.3652 0.570688 17.1625 0.777937L15.5781 2.36231C13.9084 1.30872 11.9744 0.749568 10 0.749568C8.02563 0.749568 6.09163 1.30872 4.42188 2.36231L2.8375 0.777937C2.63478 0.570688 2.37729 0.425382 2.09509 0.358981C1.81288 0.292581 1.51761 0.307826 1.24375 0.402937C0.952985 0.505738 0.701265 0.696194 0.523282 0.948056C0.3453 1.19992 0.249819 1.50078 0.25 1.80919V9.74981C0.25 14.3529 4.00937 18.1498 8.8375 18.6842C8.8898 18.6894 8.94263 18.6836 8.99255 18.6672C9.04246 18.6507 9.08836 18.6239 9.12726 18.5885C9.16615 18.5532 9.19718 18.51 9.21833 18.4619C9.23947 18.4138 9.25026 18.3618 9.25 18.3092V15.3092L7.99375 14.0529C7.8521 13.9133 7.76929 13.7248 7.76231 13.526C7.75534 13.3273 7.82473 13.1334 7.95625 12.9842C8.02559 12.9118 8.10859 12.8539 8.20044 12.8137C8.29229 12.7735 8.39118 12.752 8.49141 12.7502C8.59164 12.7485 8.69122 12.7666 8.78441 12.8035C8.8776 12.8405 8.96255 12.8955 9.03437 12.9654L10 13.9404L10.9656 12.9654C11.0374 12.8955 11.1224 12.8405 11.2156 12.8035C11.3088 12.7666 11.4084 12.7485 11.5086 12.7502C11.6088 12.752 11.7077 12.7735 11.7996 12.8137C11.8914 12.8539 11.9744 12.9118 12.0438 12.9842C12.1753 13.1334 12.2447 13.3273 12.2377 13.526C12.2307 13.7248 12.1479 13.9133 12.0062 14.0529L10.75 15.3092V18.3092C10.7497 18.3618 10.7605 18.4138 10.7817 18.4619C10.8028 18.51 10.8338 18.5532 10.8727 18.5885C10.9116 18.6239 10.9575 18.6507 11.0075 18.6672C11.0574 18.6836 11.1102 18.6894 11.1625 18.6842C15.9906 18.1498 19.75 14.3529 19.75 9.74981V1.80919C19.7502 1.50078 19.6547 1.19992 19.4767 0.948056C19.2987 0.696194 19.047 0.505738 18.7562 0.402937ZM5.875 11.2498C5.6525 11.2498 5.43499 11.1838 5.24998 11.0602C5.06498 10.9366 4.92078 10.7609 4.83564 10.5553C4.75049 10.3498 4.72821 10.1236 4.77162 9.90534C4.81503 9.68711 4.92217 9.48665 5.0795 9.32932C5.23684 9.17198 5.43729 9.06484 5.65552 9.02143C5.87375 8.97802 6.09995 9.0003 6.30552 9.08545C6.51109 9.1706 6.68679 9.31479 6.8104 9.4998C6.93402 9.6848 7 9.90231 7 10.1248C7 10.4232 6.88147 10.7093 6.6705 10.9203C6.45952 11.1313 6.17337 11.2498 5.875 11.2498ZM7.75 5.24981C7.75 5.44872 7.67098 5.63949 7.53033 5.78014C7.38968 5.92079 7.19891 5.99981 7 5.99981C6.80109 5.99981 6.61032 5.92079 6.46967 5.78014C6.32902 5.63949 6.25 5.44872 6.25 5.24981V3.46856C6.25 3.26965 6.32902 3.07888 6.46967 2.93823C6.61032 2.79758 6.80109 2.71856 7 2.71856C7.19891 2.71856 7.38968 2.79758 7.53033 2.93823C7.67098 3.07888 7.75 3.26965 7.75 3.46856V5.24981ZM10.75 5.24981C10.75 5.44872 10.671 5.63949 10.5303 5.78014C10.3897 5.92079 10.1989 5.99981 10 5.99981C9.80109 5.99981 9.61032 5.92079 9.46967 5.78014C9.32902 5.63949 9.25 5.44872 9.25 5.24981V2.99981C9.25 2.8009 9.32902 2.61013 9.46967 2.46948C9.61032 2.32883 9.80109 2.24981 10 2.24981C10.1989 2.24981 10.3897 2.32883 10.5303 2.46948C10.671 2.61013 10.75 2.8009 10.75 2.99981V5.24981ZM12.25 5.24981V3.46856C12.25 3.26965 12.329 3.07888 12.4697 2.93823C12.6103 2.79758 12.8011 2.71856 13 2.71856C13.1989 2.71856 13.3897 2.79758 13.5303 2.93823C13.671 3.07888 13.75 3.26965 13.75 3.46856V5.24981C13.75 5.44872 13.671 5.63949 13.5303 5.78014C13.3897 5.92079 13.1989 5.99981 13 5.99981C12.8011 5.99981 12.6103 5.92079 12.4697 5.78014C12.329 5.63949 12.25 5.44872 12.25 5.24981ZM14.125 11.2498C13.9025 11.2498 13.685 11.1838 13.5 11.0602C13.315 10.9366 13.1708 10.7609 13.0856 10.5553C13.0005 10.3498 12.9782 10.1236 13.0216 9.90534C13.065 9.68711 13.1722 9.48665 13.3295 9.32932C13.4868 9.17198 13.6873 9.06484 13.9055 9.02143C14.1238 8.97802 14.35 9.0003 14.5555 9.08545C14.7611 9.1706 14.9368 9.31479 15.0604 9.4998C15.184 9.6848 15.25 9.90231 15.25 10.1248C15.25 10.4232 15.1315 10.7093 14.9205 10.9203C14.7095 11.1313 14.4234 11.2498 14.125 11.2498Z" fill="#FEFEFE"/>
</svg>
