<svg width="22" height="24" viewBox="0 0 22 24" fill="none" xmlns="http://www.w3.org/2000/svg">
<path d="M8.35364 6.98138C7.42852 6.49875 6.52552 6.33787 5.95552 6.7425C5.55277 7.02937 5.37464 7.56375 5.36602 8.21025C4.42796 7.3084 3.66944 6.23685 3.13064 5.05237V0.75H1.41276V5.05387H1.42139C1.12551 6.07238 0.872765 7.26675 0.875015 8.38912C0.878015 10.6541 2.65177 11.7941 4.09477 11.7941C4.11539 11.7941 4.13414 11.7896 4.15477 11.7892C4.39582 11.7867 4.63502 11.7468 4.86389 11.6711L4.87702 11.6659C5.11364 11.5837 5.32589 11.4645 5.49502 11.2987C5.49502 11.2987 5.24452 11.1221 4.87177 10.7633C5.10539 10.7801 5.36114 10.7745 5.61652 10.7467C5.81189 11.67 6.23452 12.6581 6.57089 13.1141L13.9561 23.25H15.7595L9.07702 13.536C9.59339 13.5244 10.0921 13.3208 10.5549 12.9915C11.6968 12.1808 12.1895 10.9361 10.8868 9.16388C10.5843 8.7591 10.242 8.38572 9.86489 8.04938C10.3235 8.34037 10.886 8.823 11.498 9.61762C13.7848 12.5812 21.125 22.7183 21.125 22.7183V21.3889C21.125 21.3889 14.4095 12.1436 12.1164 9.17062C10.5358 7.12125 8.98139 6.66338 8.35364 6.98138ZM2.63301 9.92813C3.00426 10.8656 4.53502 11.3111 4.53502 11.3111C3.56302 11.8575 1.16226 10.5446 1.15926 8.38875C1.15776 7.27275 1.41764 6.06975 1.71802 5.0535H2.16764C3.09914 8.25937 5.36527 9.08775 5.36527 9.08775C4.40677 9.08775 3.28214 8.80013 3.28214 8.80013C4.23427 9.89025 6.26152 10.107 6.26152 10.107C4.48664 10.494 2.63301 9.92813 2.63301 9.92813ZM10.4645 9.34088C11.6326 10.9283 11.1354 11.823 10.7544 12.0938C10.3741 12.3641 10.4056 11.8009 9.23752 10.2127C8.06864 8.62575 6.35452 7.21425 6.73552 6.94388C7.11614 6.67425 9.29639 7.7535 10.4645 9.34088ZM20.1298 8.70525C20.213 8.83913 21.125 10.4396 21.125 10.44V8.86538C21.125 8.86538 20.8753 8.45438 20.7894 8.31863C19.8005 6.738 18.4963 5.86838 17.7185 5.826C17.5419 5.81775 17.408 5.85225 17.309 5.901C16.4923 5.40112 15.6778 5.196 15.1198 5.526C14.4613 5.91525 14.303 6.95963 14.492 8.11725C14.2516 9.11512 14.7609 10.9451 15.182 11.6325L21.125 21.0187V18.4226L17.5618 12.2321C18.0429 12.2535 18.5233 12.0997 18.9804 11.8298C20.1316 11.1488 20.7031 10.0054 19.6081 8.217C19.3799 7.84891 19.1183 7.50258 18.8266 7.18237C19.2316 7.515 19.6903 8.00363 20.1298 8.70525ZM19.2433 10.9924C18.8604 11.2185 18.9365 10.6853 17.9555 9.084C16.9741 7.48238 15.461 6.00525 15.8439 5.77875C16.2275 5.55188 18.2116 6.75075 19.1919 8.352C20.1736 9.95362 19.6288 10.7651 19.2433 10.9924Z" fill="#FEFEFE"/>
</svg>
