<svg width="24" height="24" viewBox="0 0 24 24" fill="none" xmlns="http://www.w3.org/2000/svg">
<path d="M8.62191 21.5396C8.70825 21.6333 8.75416 21.7572 8.74967 21.8844C8.74517 22.0117 8.69064 22.132 8.59791 22.2193L7.55535 23.1942C7.46225 23.2807 7.33863 23.3267 7.21164 23.3221C7.08465 23.3175 6.96468 23.2627 6.87807 23.1697L0.806549 16.6264C0.720268 16.5327 0.674441 16.4088 0.679024 16.2815C0.683608 16.1542 0.738233 16.0339 0.831029 15.9467L1.87503 14.9732C1.9211 14.9304 1.97516 14.897 2.03414 14.875C2.09311 14.853 2.15584 14.8429 2.21874 14.8451C2.28164 14.8474 2.34347 14.8621 2.40071 14.8882C2.45794 14.9144 2.50946 14.9516 2.55231 14.9977L8.62191 21.5396ZM16.3691 9.22765C16.4554 9.32132 16.5012 9.44525 16.4966 9.57252C16.492 9.69979 16.4374 9.82011 16.3446 9.90733L9.78303 16.0369C9.68993 16.1234 9.56631 16.1694 9.43932 16.1648C9.31233 16.1602 9.19236 16.1054 9.10575 16.0124L7.53951 14.3224C7.45323 14.2287 7.4074 14.1048 7.41198 13.9775C7.41657 13.8502 7.47119 13.7299 7.56399 13.6427L14.1241 7.51309C14.1702 7.47021 14.2242 7.43684 14.2831 7.41486C14.3421 7.39289 14.4048 7.38275 14.4676 7.38502C14.5305 7.3873 14.5923 7.40194 14.6495 7.42811C14.7067 7.45429 14.7581 7.49148 14.8009 7.53757L16.3691 9.22765ZM10.8544 19.4531C11.0339 19.6465 11.0229 19.9523 10.8299 20.1328L9.78591 21.1072C9.73984 21.1501 9.68578 21.1834 9.6268 21.2054C9.56782 21.2274 9.50509 21.2375 9.4422 21.2353C9.3793 21.233 9.31746 21.2184 9.26023 21.1922C9.20299 21.166 9.15148 21.1288 9.10863 21.0827L3.04047 14.5393C2.95413 14.4457 2.90822 14.3218 2.91271 14.1946C2.9172 14.0673 2.97174 13.9469 3.06447 13.8596L4.10655 12.8857C4.19964 12.7992 4.32326 12.7532 4.45025 12.7578C4.57724 12.7624 4.69722 12.8172 4.78383 12.9102L10.8544 19.4531ZM20.9646 9.46237C21.0508 9.5561 21.0966 9.68007 21.0919 9.80734C21.0872 9.93461 21.0325 10.0549 20.9397 10.142L19.8961 11.1164C19.803 11.203 19.6794 11.2491 19.5523 11.2446C19.4252 11.2401 19.3051 11.1854 19.2184 11.0924L13.1493 4.55053C13.0628 4.45697 13.0168 4.33305 13.0213 4.20574C13.0258 4.07844 13.0804 3.95807 13.1733 3.87085L14.2197 2.89405C14.2657 2.85117 14.3197 2.8178 14.3787 2.79582C14.4376 2.77385 14.5003 2.76371 14.5631 2.76598C14.626 2.76826 14.6878 2.7829 14.745 2.80907C14.8022 2.83525 14.8537 2.87244 14.8965 2.91853L20.9646 9.46237ZM23.1937 7.37917C23.2799 7.47297 23.3257 7.59696 23.3211 7.72427C23.3165 7.85158 23.262 7.97196 23.1693 8.05933L22.1277 9.03325C22.0817 9.07615 22.0277 9.10956 21.9688 9.13157C21.9098 9.15359 21.8472 9.16377 21.7843 9.16154C21.7214 9.15932 21.6596 9.14472 21.6024 9.11858C21.5452 9.09245 21.4937 9.0553 21.4509 9.00924L15.3827 2.46445C15.2965 2.3707 15.2506 2.24675 15.2551 2.11944C15.2596 1.99213 15.3141 1.87172 15.4067 1.78429L16.4493 0.808445C16.4952 0.7655 16.5491 0.732046 16.608 0.710002C16.6669 0.687958 16.7296 0.677758 16.7924 0.679988C16.8552 0.682218 16.917 0.696833 16.9742 0.722996C17.0314 0.749158 17.0828 0.786353 17.1256 0.832445L23.1937 7.37917Z" fill="#FEFEFE"/>
</svg>
