<svg width="24" height="18" viewBox="0 0 24 18" fill="none" xmlns="http://www.w3.org/2000/svg">
<path d="M22.6466 8.50224C21.6524 4.0074 20.1561 1.60834 17.9366 0.953023C17.47 0.81617 16.9861 0.747801 16.4999 0.750054C15.8572 0.750054 15.2975 0.906616 14.7055 1.07255C13.992 1.27271 13.1816 1.50005 11.9999 1.50005C10.8181 1.50005 10.0072 1.27318 9.29235 1.07302C8.69985 0.906616 8.14063 0.750054 7.49985 0.750054C6.99708 0.748311 6.49651 0.816463 6.01251 0.952554C3.8047 1.60505 2.30938 4.00318 1.30063 8.49943C0.215946 13.3379 0.749852 16.3927 2.79782 17.1015C3.07855 17.2004 3.37392 17.2514 3.67157 17.2524C5.07454 17.2524 6.19954 16.0838 6.96829 15.1271C7.83688 14.0443 8.8536 13.4949 11.9999 13.4949C14.81 13.4949 15.973 13.876 16.9775 15.1271C17.6089 15.9136 18.2056 16.464 18.8009 16.8104C19.5927 17.2707 20.3839 17.3729 21.1522 17.109C22.3625 16.696 23.0563 15.6043 23.2147 13.8633C23.3352 12.5283 23.1495 10.7747 22.6466 8.50224ZM9.74985 8.25005H8.24985V9.75005C8.24985 9.94897 8.17083 10.1397 8.03018 10.2804C7.88953 10.421 7.69876 10.5001 7.49985 10.5001C7.30094 10.5001 7.11017 10.421 6.96952 10.2804C6.82887 10.1397 6.74985 9.94897 6.74985 9.75005V8.25005H5.24985C5.05094 8.25005 4.86017 8.17104 4.71952 8.03038C4.57887 7.88973 4.49985 7.69897 4.49985 7.50005C4.49985 7.30114 4.57887 7.11038 4.71952 6.96972C4.86017 6.82907 5.05094 6.75005 5.24985 6.75005H6.74985V5.25005C6.74985 5.05114 6.82887 4.86038 6.96952 4.71972C7.11017 4.57907 7.30094 4.50005 7.49985 4.50005C7.69876 4.50005 7.88953 4.57907 8.03018 4.71972C8.17083 4.86038 8.24985 5.05114 8.24985 5.25005V6.75005H9.74985C9.94876 6.75005 10.1395 6.82907 10.2802 6.96972C10.4208 7.11038 10.4999 7.30114 10.4999 7.50005C10.4999 7.69897 10.4208 7.88973 10.2802 8.03038C10.1395 8.17104 9.94876 8.25005 9.74985 8.25005ZM13.6874 8.43755C13.5019 8.43755 13.3207 8.38257 13.1665 8.27956C13.0123 8.17654 12.8922 8.03013 12.8212 7.85882C12.7503 7.68751 12.7317 7.49901 12.7679 7.31716C12.804 7.1353 12.8933 6.96825 13.0244 6.83714C13.1556 6.70603 13.3226 6.61674 13.5045 6.58057C13.6863 6.54439 13.8748 6.56296 14.0461 6.63392C14.2174 6.70487 14.3638 6.82504 14.4669 6.97921C14.5699 7.13338 14.6249 7.31463 14.6249 7.50005C14.6249 7.74869 14.5261 7.98715 14.3503 8.16297C14.1745 8.33878 13.936 8.43755 13.6874 8.43755ZM15.7499 10.5001C15.5643 10.5001 15.383 10.445 15.2288 10.3419C15.0745 10.2388 14.9544 10.0922 14.8835 9.92078C14.8126 9.74933 14.7942 9.56071 14.8305 9.37879C14.8669 9.19687 14.9564 9.02983 15.0878 8.89881C15.2191 8.76779 15.3864 8.67869 15.5684 8.64278C15.7504 8.60687 15.939 8.62577 16.1102 8.69709C16.2815 8.76841 16.4278 8.88894 16.5305 9.04341C16.6332 9.19789 16.6878 9.37938 16.6874 9.5649C16.6867 9.81313 16.5877 10.051 16.4119 10.2263C16.2362 10.4016 15.9981 10.5001 15.7499 10.5001ZM15.7499 6.37505C15.5644 6.37505 15.3832 6.32007 15.229 6.21706C15.0748 6.11404 14.9547 5.96763 14.8837 5.79632C14.8128 5.62501 14.7942 5.43651 14.8304 5.25466C14.8665 5.0728 14.9558 4.90575 15.0869 4.77464C15.2181 4.64353 15.3851 4.55424 15.567 4.51807C15.7488 4.48189 15.9373 4.50046 16.1086 4.57142C16.2799 4.64237 16.4263 4.76254 16.5294 4.91671C16.6324 5.07088 16.6874 5.25213 16.6874 5.43755C16.6874 5.68619 16.5886 5.92465 16.4128 6.10047C16.237 6.27628 15.9985 6.37505 15.7499 6.37505ZM17.8124 8.43755C17.6269 8.43755 17.4457 8.38257 17.2915 8.27956C17.1373 8.17654 17.0172 8.03013 16.9462 7.85882C16.8753 7.68751 16.8567 7.49901 16.8929 7.31716C16.929 7.1353 17.0183 6.96825 17.1494 6.83714C17.2806 6.70603 17.4476 6.61674 17.6295 6.58057C17.8113 6.54439 17.9998 6.56296 18.1711 6.63392C18.3424 6.70487 18.4888 6.82504 18.5919 6.97921C18.6949 7.13338 18.7499 7.31463 18.7499 7.50005C18.7499 7.74869 18.6511 7.98715 18.4753 8.16297C18.2994 8.33878 18.061 8.43755 17.8124 8.43755Z" fill="#FEFEFE"/>
</svg>
