<svg width="21" height="20" viewBox="0 0 21 20" fill="none" xmlns="http://www.w3.org/2000/svg">
<path d="M15.2 0.0024024C14.11 -0.0320876 13.0407 0.30565 12.1682 0.960002C11.2957 1.61435 10.6721 2.54631 10.4 3.6024C10.1279 2.54631 9.50427 1.61435 8.6318 0.960002C7.75933 0.30565 6.69004 -0.0320876 5.6 0.0024024C2.8288 -0.0855976 1.976 2.8744 2.9088 4.7992H0.8C0.587827 4.7992 0.384344 4.88349 0.234315 5.03352C0.0842854 5.18355 0 5.38703 0 5.5992V7.1992C0 7.41138 0.0842854 7.61486 0.234315 7.76489C0.384344 7.91492 0.587827 7.9992 0.8 7.9992H20C20.2122 7.9992 20.4157 7.91492 20.5657 7.76489C20.7157 7.61486 20.8 7.41138 20.8 7.1992V5.5992C20.8 5.38703 20.7157 5.18355 20.5657 5.03352C20.4157 4.88349 20.2122 4.7992 20 4.7992H17.9104C18.88 2.9032 18.0672 0.000802511 15.264 0.000802511H15.2V0.0024024ZM15.4928 4.7992H12C12.0008 3.95106 12.3384 3.13795 12.9384 2.53853C13.5384 1.9391 14.3519 1.6024 15.2 1.6024C17.08 1.6024 17.4128 4.5976 15.4928 4.7992ZM8.8 4.7992H5.2672C3.6112 4.612 3.5136 1.7688 5.3312 1.6024C5.42061 1.59421 5.51059 1.59421 5.6 1.6024C6.44814 1.6024 7.26159 1.9391 7.86161 2.53853C8.46164 3.13795 8.79915 3.95106 8.8 4.7992ZM1.6 9.6008V16.8008C1.6 17.4373 1.85286 18.0478 2.30294 18.4979C2.75303 18.9479 3.36348 19.2008 4 19.2008H8.8V9.6008H1.6ZM12 9.6008V19.2008H16.8C17.4365 19.2008 18.047 18.9479 18.4971 18.4979C18.9471 18.0478 19.2 17.4373 19.2 16.8008V9.6008H12Z" fill="#FEFEFE"/>
</svg>
