<svg width="24" height="9" viewBox="0 0 24 9" fill="none" xmlns="http://www.w3.org/2000/svg">
<path d="M7.00009 9H4.00009C2.38009 9 0.960093 7.74 0.760094 6.14L0.260094 3.15C0.150094 2.3 0.390094 1.5 0.910094 0.92C1.43009 0.34 2.19009 0 3.00009 0H9.00009C9.83009 0 10.5801 0.35 11.0601 0.96C11.1701 1.11 11.2701 1.27 11.3501 1.45C11.7801 1.36 12.2201 1.36 12.6401 1.45C12.7201 1.27 12.8201 1.11 12.9401 0.96C13.4101 0.35 14.1601 0 15.0001 0H21.0001C21.8101 0 22.5701 0.34 23.0901 0.92C23.6001 1.5 23.8401 2.3 23.7401 3.11L23.2301 6.18C23.0401 7.74 21.6101 9 20.0001 9H17.0001C15.4401 9 13.9201 7.81 13.5401 6.3L12.6401 3.59C12.2601 3.31 11.7301 3.31 11.3501 3.59L10.4301 6.37C10.0701 7.82 8.56009 9 7.00009 9Z" fill="#FEFEFE"/>
</svg>
