<svg width="19" height="20" viewBox="0 0 19 20" fill="none" xmlns="http://www.w3.org/2000/svg">
<path d="M1.414 10.7782L0 12.1922L4.949 14.3132L7.071 19.2632L8.485 17.8492L7.778 14.3132L11.091 11.0002L14.701 18.7042L16.04 17.3652L14.85 7.24219L17.678 4.41319C17.869 4.22869 18.0214 4.008 18.1262 3.76399C18.231 3.51999 18.2862 3.25755 18.2885 2.99199C18.2908 2.72643 18.2402 2.46307 18.1396 2.21728C18.0391 1.97149 17.8906 1.74818 17.7028 1.5604C17.515 1.37261 17.2917 1.2241 17.0459 1.12354C16.8001 1.02298 16.5368 0.972377 16.2712 0.974685C16.0056 0.976993 15.7432 1.03217 15.4992 1.13698C15.2552 1.2418 15.0345 1.39417 14.85 1.58519L11.947 4.48819L1.824 3.29719L0.559 4.56319L8.203 8.23319L4.95 11.4862L1.414 10.7782Z" fill="#FEFEFE"/>
</svg>
