<svg width="22" height="17" viewBox="0 0 22 17" fill="none" xmlns="http://www.w3.org/2000/svg">
<path d="M21.7326 3.08031C21.771 3.21951 21.7226 3.37311 21.6414 3.49311L19.0542 7.34271C18.9582 7.49151 18.7566 7.57311 18.5882 7.57311C18.5402 7.57311 18.4058 7.56351 18.3534 7.54911L16.2798 7.04031V16.1603C16.2798 16.4387 16.083 16.6403 15.7998 16.6403H5.71984C5.43664 16.6403 5.23984 16.4387 5.23984 16.1603V7.04031L3.37744 7.55391C3.16144 7.62111 2.97424 7.53471 2.85424 7.34751L0.286237 3.50751C0.204637 3.38271 0.180637 3.24351 0.219037 3.10431C0.252637 2.96031 0.353437 2.86431 0.483037 2.79711L5.71984 0.320312H8.11984C8.40304 0.320312 8.59984 0.517113 8.59984 0.800312C8.59984 1.78911 9.98704 2.48991 10.9758 2.48991C11.9646 2.48991 13.3998 1.79391 13.3998 0.800312C13.3998 0.521913 13.5966 0.320312 13.8798 0.320312H16.2798L21.4638 2.74911C21.5982 2.81631 21.6942 2.93631 21.7326 3.08031Z" fill="#FEFEFE"/>
</svg>
