<svg width="20" height="20" viewBox="0 0 20 20" fill="none" xmlns="http://www.w3.org/2000/svg">
<path d="M18.1599 10.7302C18.825 10.0661 19.3322 9.26093 19.6441 8.37435C19.956 7.48776 20.0646 6.5424 19.9619 5.60818C19.8591 4.67397 19.5477 3.7748 19.0506 2.97718C18.5535 2.17956 17.8834 1.5039 17.0899 1.00017C15.0799 -0.329826 12.3899 -0.339826 10.3599 0.970174C8.59993 2.10017 7.62993 3.86017 7.45993 5.68017C7.32993 7.00017 6.82993 8.23017 5.90993 9.15017L5.87993 9.18017C4.71993 10.3402 4.71993 12.1102 5.80993 13.1902L6.79993 14.1802C7.32386 14.7037 8.03424 14.9979 8.77493 14.9979C9.51563 14.9979 10.226 14.7037 10.7499 14.1802C11.7199 13.2102 12.9999 12.6802 14.3899 12.5302C15.7599 12.3802 17.0999 11.7802 18.1599 10.7302ZM4.25993 17.8602C4.52993 18.4202 4.43993 19.1002 3.96993 19.5602C3.76638 19.7668 3.50694 19.9095 3.22344 19.9708C2.93995 20.0321 2.64472 20.0094 2.37397 19.9053C2.10323 19.8013 1.86874 19.6205 1.69927 19.3851C1.5298 19.1497 1.43272 18.8699 1.41993 18.5802C1.13017 18.5674 0.850428 18.4703 0.615035 18.3008C0.379643 18.1314 0.198831 17.8969 0.0947804 17.6261C-0.00927071 17.3554 -0.032037 17.0602 0.0292742 16.7767C0.0905853 16.4932 0.233308 16.2337 0.439935 16.0302C0.899935 15.5702 1.58993 15.4702 2.13993 15.7402L4.61993 13.3102C4.75993 13.5002 4.91993 13.7202 5.09993 13.9002L6.08993 14.8902C6.29993 15.0902 6.49994 15.2602 6.75993 15.4102L4.25993 17.8602Z" fill="#FEFEFE"/>
</svg>
