<svg width="22" height="22" viewBox="0 0 22 22" fill="none" xmlns="http://www.w3.org/2000/svg">
<path d="M18.4246 4.32517C16.7122 2.60265 14.4518 1.53256 12.0342 1.29985C11.9606 1.29219 11.8908 1.26317 11.8335 1.21636C11.7762 1.16955 11.7339 1.107 11.7117 1.03642C11.6674 0.881855 11.574 0.745907 11.4456 0.649127C11.3173 0.552348 11.1609 0.5 11.0001 0.5C10.8393 0.5 10.6829 0.552348 10.5545 0.649127C10.4262 0.745907 10.3328 0.881855 10.2885 1.03642C10.2663 1.107 10.224 1.16955 10.1667 1.21636C10.1094 1.26317 10.0396 1.29219 9.96603 1.29985C7.37666 1.5561 4.97466 2.76467 3.22571 4.69125C1.47676 6.61783 0.505453 9.12518 0.500096 11.7272C0.498069 11.8553 0.528047 11.9818 0.587311 12.0953C0.646575 12.2089 0.73325 12.3058 0.839472 12.3774C0.983637 12.4716 1.15585 12.5134 1.32717 12.4956C1.49849 12.4778 1.65848 12.4017 1.78025 12.2799C2.23589 11.8244 2.85362 11.5683 3.49787 11.5678C4.14213 11.5672 4.76027 11.8223 5.21666 12.277C5.28563 12.3473 5.3678 12.4032 5.45845 12.4416C5.5491 12.48 5.64644 12.5001 5.74489 12.5008C5.84333 12.5014 5.94093 12.4826 6.03208 12.4454C6.12323 12.4082 6.20614 12.3534 6.27603 12.2841C6.77421 11.7883 7.43383 11.4878 8.13487 11.4373C8.83591 11.3868 9.53178 11.5896 10.0959 12.0089C10.1438 12.0449 10.1827 12.0916 10.2094 12.1452C10.2362 12.1988 10.2501 12.2579 10.2501 12.3178V19.2281C10.2501 19.6313 9.94072 19.9781 9.53806 19.9988C9.43651 20.0039 9.33496 19.9883 9.2396 19.953C9.14424 19.9177 9.05706 19.8634 8.98336 19.7933C8.90965 19.7232 8.85097 19.6389 8.81087 19.5455C8.77077 19.452 8.75009 19.3514 8.7501 19.2497C8.75011 19.1501 8.73027 19.0514 8.69173 18.9595C8.6532 18.8676 8.59673 18.7843 8.52564 18.7145C8.45455 18.6447 8.37026 18.5897 8.27769 18.5528C8.18512 18.516 8.08613 18.4979 7.9865 18.4997C7.56463 18.5072 7.24119 18.8799 7.25057 19.3013C7.26457 19.8837 7.50368 20.4381 7.91771 20.848C8.33173 21.2579 8.88847 21.4915 9.47103 21.4997C10.731 21.5156 11.7501 20.4717 11.7501 19.2117V12.3178C11.7501 12.2579 11.764 12.1988 11.7908 12.1452C11.8175 12.0916 11.8564 12.0449 11.9043 12.0089C12.4676 11.5902 13.1623 11.3873 13.8624 11.4371C14.5624 11.4868 15.2215 11.7858 15.7199 12.2799C15.8606 12.4204 16.0513 12.4994 16.2501 12.4994C16.4489 12.4994 16.6396 12.4204 16.7803 12.2799C17.2365 11.824 17.8551 11.5679 18.5001 11.5679C19.1451 11.5679 19.7637 11.824 20.2199 12.2799C20.3382 12.3981 20.4925 12.4734 20.6585 12.4939C20.8244 12.5144 20.9925 12.4788 21.1359 12.3928C21.249 12.3228 21.3421 12.2246 21.4059 12.1079C21.4698 11.9911 21.5022 11.8598 21.5001 11.7267C21.5008 10.3512 21.2294 8.98905 20.7016 7.71878C20.1738 6.44851 19.3999 5.29518 18.4246 4.32517Z" fill="#FEFEFE"/>
</svg>
