<svg width="24" height="24" viewBox="0 0 24 24" fill="none" xmlns="http://www.w3.org/2000/svg">
    <g clip-path="url(#clip0_8480_3233)">
        <path d="M15 18V18.75C15 19.5456 14.6839 20.3087 14.1213 20.8713C13.5587 21.4339 12.7956 21.75 12 21.75C11.2043 21.75 10.4413 21.4339 9.87867 20.8713C9.31606 20.3087 8.99999 19.5456 8.99999 18.75V18M20.0475 16.4733C18.8437 15 17.9939 14.25 17.9939 10.1883C17.9939 6.46875 16.0945 5.14359 14.5312 4.5C14.3236 4.41469 14.1281 4.21875 14.0648 4.00547C13.7906 3.07219 13.0219 2.25 12 2.25C10.9781 2.25 10.2089 3.07266 9.93749 4.00641C9.87421 4.22203 9.67874 4.41469 9.47108 4.5C7.90593 5.14453 6.00842 6.465 6.00842 10.1883C6.00608 14.25 5.15624 15 3.95249 16.4733C3.45374 17.0836 3.89061 18 4.76296 18H19.2417C20.1094 18 20.5434 17.0808 20.0475 16.4733Z" stroke="#FEFEFE" stroke-width="1.5" stroke-linecap="round" stroke-linejoin="round"/>
        <circle cx="17" cy="6" r="6" fill="#4B7FD6"/>
        <g filter="url(#filter0_d_8480_3233)">
            <path d="M15.79 8.12C15.7833 8.13333 15.7833 8.14667 15.79 8.16C15.7967 8.16667 15.8067 8.17 15.82 8.17H18.83C18.8967 8.17 18.93 8.20333 18.93 8.27V8.9C18.93 8.96667 18.8967 9 18.83 9H14.64C14.5733 9 14.54 8.96667 14.54 8.9V8.29C14.54 8.24333 14.5567 8.20333 14.59 8.17C14.8167 7.91 15.3367 7.3 16.15 6.34L16.84 5.51C17.46 4.77 17.77 4.19667 17.77 3.79C17.77 3.47667 17.6633 3.22667 17.45 3.04C17.2433 2.84667 16.9667 2.75 16.62 2.75C16.2733 2.75 15.9967 2.84667 15.79 3.04C15.5833 3.23333 15.4833 3.48667 15.49 3.8V4.1C15.49 4.16667 15.4567 4.2 15.39 4.2H14.62C14.5533 4.2 14.52 4.16667 14.52 4.1V3.67C14.5333 3.32333 14.63 3.01667 14.81 2.75C14.9967 2.48333 15.2467 2.28 15.56 2.14C15.8733 1.99333 16.2267 1.92 16.62 1.92C17.0467 1.92 17.42 2 17.74 2.16C18.06 2.32 18.3067 2.54 18.48 2.82C18.6533 3.1 18.74 3.41667 18.74 3.77C18.74 4.32333 18.44 4.97667 17.84 5.73C17.5733 6.07 17.2567 6.45333 16.89 6.88C16.5233 7.3 16.1567 7.71333 15.79 8.12Z" fill="#FEFEFE"/>
        </g>
    </g>
    <defs>
        <filter id="filter0_d_8480_3233" x="12.52" y="0.920044" width="8.41003" height="11.08" filterUnits="userSpaceOnUse" color-interpolation-filters="sRGB">
            <feFlood flood-opacity="0" result="BackgroundImageFix"/>
            <feColorMatrix in="SourceAlpha" type="matrix" values="0 0 0 0 0 0 0 0 0 0 0 0 0 0 0 0 0 0 127 0" result="hardAlpha"/>
            <feOffset dy="1"/>
            <feGaussianBlur stdDeviation="1"/>
            <feComposite in2="hardAlpha" operator="out"/>
            <feColorMatrix type="matrix" values="0 0 0 0 0 0 0 0 0 0 0 0 0 0 0 0 0 0 0.4 0"/>
            <feBlend mode="normal" in2="BackgroundImageFix" result="effect1_dropShadow_8480_3233"/>
            <feBlend mode="normal" in="SourceGraphic" in2="effect1_dropShadow_8480_3233" result="shape"/>
        </filter>
        <clipPath id="clip0_8480_3233">
            <rect width="24" height="24" fill="white"/>
        </clipPath>
    </defs>
</svg>