<svg width="44" height="44" viewBox="0 0 44 44" fill="none" xmlns="http://www.w3.org/2000/svg">
    <g filter="url(#filter0_d_7373_5041)">
        <g filter="url(#filter1_d_7373_5041)">
            <path d="M14.929 14.9289C18.8343 11.0236 25.1658 11.0236 29.0711 14.9289C32.9765 18.8343 32.9765 25.1657 29.0711 29.0711C25.1658 32.9764 18.8343 32.9764 14.929 29.0711C11.0236 25.1657 11.0236 18.8343 14.929 14.9289ZM18.4645 18.4645C18.3364 18.5926 18.259 18.7629 18.2466 18.9437C18.2343 19.1245 18.2878 19.3037 18.3973 19.4481L18.4645 19.5251L20.9394 22L18.4645 24.4749C18.3302 24.6093 18.2519 24.7897 18.2454 24.9796C18.239 25.1695 18.3049 25.3548 18.4298 25.498C18.5547 25.6412 18.7293 25.7317 18.9183 25.7511C19.1073 25.7705 19.2967 25.7175 19.4481 25.6027L19.5252 25.5355L22 23.0607L24.4749 25.5355C24.6093 25.6699 24.7897 25.7482 24.9796 25.7546C25.1695 25.7611 25.3548 25.6952 25.498 25.5703C25.6412 25.4454 25.7317 25.2708 25.7512 25.0818C25.7706 24.8927 25.7176 24.7034 25.6028 24.5519L25.5356 24.4749L23.0607 22L25.5356 19.5251C25.6699 19.3907 25.7482 19.2103 25.7547 19.0204C25.7611 18.8305 25.6952 18.6452 25.5703 18.502C25.4454 18.3588 25.2708 18.2683 25.0818 18.2489C24.8928 18.2295 24.7034 18.2825 24.552 18.3973L24.4749 18.4645L22 20.9393L19.5252 18.4645C19.3845 18.3238 19.1938 18.2448 18.9948 18.2448C18.7959 18.2448 18.6052 18.3238 18.4645 18.4645Z" fill="#FF2752"/>
        </g>
    </g>
    <defs>
        <filter id="filter0_d_7373_5041" x="8" y="7.99988" width="28.0001" height="28.0002" filterUnits="userSpaceOnUse" color-interpolation-filters="sRGB">
            <feFlood flood-opacity="0" result="BackgroundImageFix"/>
            <feColorMatrix in="SourceAlpha" type="matrix" values="0 0 0 0 0 0 0 0 0 0 0 0 0 0 0 0 0 0 127 0" result="hardAlpha"/>
            <feOffset/>
            <feGaussianBlur stdDeviation="2"/>
            <feComposite in2="hardAlpha" operator="out"/>
            <feColorMatrix type="matrix" values="0 0 0 0 0 0 0 0 0 0 0 0 0 0 0 0 0 0 0.25 0"/>
            <feBlend mode="normal" in2="BackgroundImageFix" result="effect1_dropShadow_7373_5041"/>
            <feBlend mode="normal" in="SourceGraphic" in2="effect1_dropShadow_7373_5041" result="shape"/>
        </filter>
        <filter id="filter1_d_7373_5041" x="0" y="-0.00012207" width="44.0001" height="44.0002" filterUnits="userSpaceOnUse" color-interpolation-filters="sRGB">
            <feFlood flood-opacity="0" result="BackgroundImageFix"/>
            <feColorMatrix in="SourceAlpha" type="matrix" values="0 0 0 0 0 0 0 0 0 0 0 0 0 0 0 0 0 0 127 0" result="hardAlpha"/>
            <feOffset/>
            <feGaussianBlur stdDeviation="6"/>
            <feComposite in2="hardAlpha" operator="out"/>
            <feColorMatrix type="matrix" values="0 0 0 0 0 0 0 0 0 0 0 0 0 0 0 0 0 0 0.12 0"/>
            <feBlend mode="normal" in2="BackgroundImageFix" result="effect1_dropShadow_7373_5041"/>
            <feBlend mode="normal" in="SourceGraphic" in2="effect1_dropShadow_7373_5041" result="shape"/>
        </filter>
    </defs>
</svg>
