<svg width="296" height="234" viewBox="0 0 296 234" fill="none" xmlns="http://www.w3.org/2000/svg">
<path d="M148 205.31C229.738 205.31 296 211.732 296 219.655C296 227.578 229.738 234 148 234C66.2619 234 0 227.578 0 219.655C0 211.732 66.2619 205.31 148 205.31Z" fill="#191E34"/>
<g filter="url(#filter0_d_7449_6308)">
<path d="M205.723 38.8304L205.439 43.2258L206.184 43.274L206.468 38.8786L205.723 38.8304Z" fill="#4B7FD6"/>
<path d="M206.856 20.9785L205.924 35.4241L206.669 35.4721L207.601 21.0266L206.856 20.9785Z" fill="#4B7FD6"/>
<path d="M197.996 0.000441824H110.24C107.986 0.039969 105.828 0.917652 104.187 2.46223C102.546 4.00681 101.539 6.10746 101.363 8.3543L90.023 183.419C89.9402 184.492 90.0814 185.571 90.4376 186.587C90.7938 187.602 91.3573 188.533 92.0923 189.319C92.8273 190.105 93.7178 190.73 94.7071 191.154C95.6965 191.578 96.7631 191.791 97.8394 191.781H185.581C187.838 191.743 190.001 190.866 191.646 189.32C193.292 187.774 194.302 185.67 194.48 183.419L205.812 8.3543C205.895 7.28155 205.754 6.20328 205.398 5.18804C205.041 4.17279 204.478 3.24278 203.743 2.45711C203.008 1.67144 202.117 1.0473 201.128 0.624371C200.138 0.201438 199.072 -0.0110416 197.996 0.000441824Z" fill="#4B7FD6"/>
<path opacity="0.7" d="M195.211 0.000441824H110.24C107.986 0.039969 105.828 0.917652 104.187 2.46223C102.546 4.00681 101.539 6.10746 101.363 8.3543L90.023 183.419C89.9402 184.492 90.0814 185.571 90.4376 186.587C90.7938 187.602 91.3573 188.533 92.0923 189.319C92.8273 190.105 93.7178 190.73 94.7071 191.154C95.6965 191.578 96.7631 191.791 97.8394 191.781H182.796C185.054 191.743 187.216 190.866 188.862 189.32C190.507 187.774 191.517 185.67 191.695 183.419L203.028 8.3543C203.111 7.28155 202.969 6.20328 202.613 5.18804C202.257 4.17279 201.693 3.24278 200.958 2.45711C200.223 1.67144 199.332 1.0473 198.343 0.624371C197.354 0.201438 196.287 -0.0110416 195.211 0.000441824Z" fill="#2B304A"/>
<path d="M188.045 178.843H94.577C94.2275 178.844 93.8815 178.773 93.5605 178.634C93.2395 178.496 92.9504 178.293 92.711 178.038C92.4716 177.783 92.2871 177.482 92.1689 177.153C92.0507 176.824 92.0014 176.475 92.0238 176.126L102.281 17.7085C102.323 17.0615 102.609 16.4546 103.082 16.011C103.555 15.5673 104.179 15.3201 104.827 15.3196H198.302C198.652 15.3199 198.998 15.3919 199.319 15.5312C199.64 15.6705 199.929 15.8741 200.169 16.1294C200.408 16.3848 200.592 16.6864 200.71 17.0158C200.828 17.3452 200.878 17.6953 200.855 18.0445L190.598 176.454C190.556 177.102 190.269 177.71 189.794 178.154C189.32 178.598 188.694 178.844 188.045 178.843Z" fill="#2B304A"/>
<path d="M167.276 10.1386H133.3C133.126 10.1401 132.952 10.1053 132.792 10.0364C132.631 9.96748 132.486 9.86592 132.367 9.73817C132.248 9.61042 132.156 9.45927 132.099 9.2943C132.041 9.12933 132.018 8.95415 132.031 8.77985C132.066 8.41778 132.231 8.08071 132.496 7.83191C132.762 7.58312 133.109 7.43971 133.472 7.42861H167.447C167.622 7.426 167.795 7.45983 167.956 7.52792C168.116 7.596 168.261 7.69685 168.38 7.82402C168.5 7.9512 168.591 8.10189 168.649 8.26647C168.707 8.43105 168.73 8.60591 168.717 8.77985C168.684 9.14327 168.519 9.48214 168.254 9.73247C167.988 9.9828 167.64 10.1273 167.276 10.1386Z" fill="#2B304A"/>
<path d="M140.758 185.495C140.704 186.389 140.312 187.23 139.663 187.848C139.013 188.466 138.153 188.815 137.257 188.824C136.827 188.828 136.4 188.743 136.004 188.575C135.607 188.407 135.25 188.159 134.954 187.847C134.657 187.534 134.429 187.164 134.282 186.76C134.135 186.355 134.072 185.924 134.099 185.495C134.156 184.601 134.548 183.762 135.197 183.146C135.847 182.53 136.705 182.182 137.6 182.173C138.031 182.168 138.457 182.251 138.853 182.419C139.25 182.586 139.607 182.833 139.904 183.145C140.2 183.457 140.429 183.827 140.576 184.231C140.723 184.635 140.785 185.065 140.758 185.495Z" fill="#2B304A"/>
<path opacity="0.2" d="M177.862 59.1719H98.0484L92.9719 137.485H177.862C180.077 137.481 182.2 136.599 183.767 135.034C185.334 133.468 186.217 131.346 186.223 129.131V67.5556C186.225 65.3354 185.345 63.2052 183.778 61.6331C182.21 60.0611 180.082 59.1758 177.862 59.1719Z" fill="#4B7FD6"/>
</g>
<path d="M147.002 73.2977C146.958 73.2733 146.919 73.2412 146.886 73.2029C145.679 69.143 142.358 66.4197 138.66 66.4197C134.961 66.4197 131.615 69.143 130.433 73.2029C130.399 73.2383 130.36 73.2685 130.317 73.2927C122.493 76.5347 118.689 82.7693 118.689 92.3007C118.689 102.825 116.848 105.064 113.789 108.76C113.567 109.029 113.341 109.304 113.114 109.588C112.515 110.312 112.138 111.191 112.028 112.122C111.913 113.052 112.064 113.996 112.465 114.845C112.891 115.736 113.567 116.488 114.412 117.008C115.257 117.529 116.235 117.798 117.23 117.783H160.099C161.09 117.797 162.065 117.528 162.906 117.008C163.748 116.488 164.42 115.739 164.844 114.85C165.249 114.004 165.405 113.06 165.291 112.13C165.178 111.199 164.801 110.32 164.205 109.593L163.525 108.765C160.471 105.049 158.625 102.81 158.625 92.3057C158.625 86.8592 157.332 82.3902 154.781 79.0385C152.761 76.4607 150.072 74.4762 147.002 73.2977ZM138.665 129C140.672 128.996 142.64 128.448 144.355 127.414C146.084 126.374 147.496 124.888 148.441 123.115C148.486 123.03 148.506 122.935 148.501 122.84C148.499 122.744 148.473 122.65 148.426 122.566C148.374 122.484 148.303 122.416 148.219 122.366C148.136 122.321 148.043 122.297 147.948 122.297H129.381C129.286 122.297 129.193 122.321 129.11 122.366C129.026 122.416 128.955 122.484 128.903 122.566C128.856 122.65 128.831 122.744 128.831 122.84C128.831 122.936 128.856 123.031 128.903 123.115C129.848 124.886 131.258 126.372 132.984 127.414C134.697 128.446 136.661 128.994 138.665 129Z" fill="#7496CB"/>
<path d="M121.598 96.0217C121.467 96.5753 121.059 98.2562 120.375 98.306C120.236 98.3016 120.1 98.2603 119.983 98.1863C119.723 98.0627 119.496 97.8798 119.321 97.6527C119.146 97.4256 119.028 97.1606 118.976 96.8796C118.891 96.4706 118.8 95.9818 118.74 95.4331C118.676 94.6034 118.658 93.7709 118.685 92.9393C118.615 91.0552 118.748 89.1693 119.082 87.3132C119.412 85.3765 120.008 83.4936 120.853 81.717C121.214 81.0012 121.623 80.3097 122.076 79.6471C122.492 79.0494 122.947 78.4796 123.439 77.9413C124.633 76.6552 126.013 75.5524 127.535 74.6694C128.46 74.1071 129.427 73.6168 130.428 73.203C130.827 73.1946 131.217 73.3193 131.535 73.5572C131.718 73.6893 131.869 73.8606 131.976 74.0584C132.083 74.2561 132.144 74.4751 132.154 74.6993C132.119 75.5123 130.977 76.071 130.71 76.1956C128.431 77.3777 125.039 81.4626 123.766 84.1759C122.176 87.5426 122.72 91.2036 121.598 96.0217Z" fill="#CBDCF3"/>
<path d="M154.006 92.0613C154.107 85.8767 152.503 79.782 149.367 74.4348C150.701 75.1497 151.932 76.0407 153.025 77.0833C154.012 78.0316 154.882 79.0932 155.616 80.2455C156.335 81.3826 157.422 83.3927 158.162 87.0137C159.017 91.1934 158.212 91.6722 158.927 97.7871C159.384 101.712 159.933 103.184 160.436 104.271C161.274 106.051 162.442 107.66 163.878 109.014L159.078 109.194L136.33 108.551L127.842 107.673L143.077 107.174C147.274 107.004 153.372 106.62 154.715 104.481C156.059 102.341 153.533 94.9841 154.006 92.0613Z" fill="#2B59A6"/>
<path d="M128.732 84.5698C129.739 85.9265 132.672 87.8218 136.25 84.5698" stroke="#2B59A6" stroke-opacity="0.8" stroke-width="2.5" stroke-linecap="round"/>
<path d="M141.99 84.6396C142.997 85.9963 145.935 87.8966 149.508 84.6396" stroke="#2B59A6" stroke-opacity="0.8" stroke-width="2.5" stroke-linecap="round"/>
<path d="M138.66 95.6276C140.421 95.6276 141.85 94.8929 141.85 93.9867C141.85 93.0804 140.421 92.3457 138.66 92.3457C136.898 92.3457 135.47 93.0804 135.47 93.9867C135.47 94.8929 136.898 95.6276 138.66 95.6276Z" fill="#2B59A6" fill-opacity="0.8"/>
<path d="M126.354 78.3231C128.099 76.7124 129.274 75.1517 128.978 74.8373C128.683 74.5228 127.029 75.5735 125.284 77.1842C123.539 78.7949 122.364 80.3555 122.66 80.67C122.955 80.9845 124.609 79.9337 126.354 78.3231Z" fill="#E4EAF2"/>
<path d="M164.693 107.752H111.067C108.268 107.752 106 110.001 106 112.775C106 115.549 108.268 117.798 111.067 117.798H164.693C167.491 117.798 169.759 115.549 169.759 112.775C169.759 110.001 167.491 107.752 164.693 107.752Z" fill="#4971B7"/>
<path d="M110.991 107.752H138.665C139.181 107.752 139.676 107.956 140.041 108.318C140.407 108.68 140.612 109.171 140.612 109.683V110.181C140.611 110.63 140.521 111.075 140.347 111.489C140.173 111.903 139.918 112.279 139.597 112.596C139.276 112.912 138.895 113.163 138.476 113.333C138.057 113.503 137.608 113.59 137.155 113.588H106.01V112.695C106.01 111.385 106.535 110.129 107.469 109.202C108.403 108.275 109.67 107.754 110.991 107.752Z" fill="#CBDCF3"/>
<path d="M146.886 73.2028C145.765 72.8191 144.619 72.5141 143.455 72.2901C139.106 71.5012 134.627 71.8152 130.433 73.2028C130.433 73.2028 132.164 66.9832 138.021 66.4195C138.021 66.4195 144.28 65.4719 146.886 73.2028Z" fill="#517CBE"/>
<path d="M152.186 68.6357L165.578 50.9597H166.91C167.534 51.4637 167.846 52.1117 167.846 52.9037C167.846 53.3117 167.762 53.6957 167.594 54.0557C167.426 54.4157 167.186 54.7877 166.874 55.1717L153.554 72.8477H152.078C151.838 72.6317 151.634 72.3557 151.466 72.0197C151.298 71.6837 151.214 71.3237 151.214 70.9397C151.214 70.5317 151.298 70.1357 151.466 69.7517C151.658 69.3677 151.898 68.9957 152.186 68.6357ZM152.834 72.8477L153.842 69.6077H167.63C167.75 69.7757 167.858 70.0037 167.954 70.2917C168.05 70.5557 168.098 70.8557 168.098 71.1917C168.098 71.7197 167.966 72.1277 167.702 72.4157C167.438 72.7037 167.09 72.8477 166.658 72.8477H152.834ZM166.082 50.9597L165.29 54.1637H151.934C151.814 53.9957 151.706 53.7797 151.61 53.5157C151.514 53.2517 151.466 52.9517 151.466 52.6157C151.466 52.0637 151.598 51.6557 151.862 51.3917C152.126 51.1037 152.486 50.9597 152.942 50.9597H166.082Z" fill="#2B59A6"/>
<path d="M171.504 55.66L178.944 45.84H179.684C180.031 46.12 180.204 46.48 180.204 46.92C180.204 47.1467 180.157 47.36 180.064 47.56C179.971 47.76 179.837 47.9667 179.664 48.18L172.264 58H171.444C171.311 57.88 171.197 57.7267 171.104 57.54C171.011 57.3533 170.964 57.1533 170.964 56.94C170.964 56.7133 171.011 56.4933 171.104 56.28C171.211 56.0667 171.344 55.86 171.504 55.66ZM171.864 58L172.424 56.2H180.084C180.151 56.2933 180.211 56.42 180.264 56.58C180.317 56.7267 180.344 56.8933 180.344 57.08C180.344 57.3733 180.271 57.6 180.124 57.76C179.977 57.92 179.784 58 179.544 58H171.864ZM179.224 45.84L178.784 47.62H171.364C171.297 47.5267 171.237 47.4067 171.184 47.26C171.131 47.1133 171.104 46.9467 171.104 46.76C171.104 46.4533 171.177 46.2267 171.324 46.08C171.471 45.92 171.671 45.84 171.924 45.84H179.224Z" fill="#2B59A6"/>
<defs>
<filter id="filter0_d_7449_6308" x="75" y="0" width="147.601" height="226.781" filterUnits="userSpaceOnUse" color-interpolation-filters="sRGB">
<feFlood flood-opacity="0" result="BackgroundImageFix"/>
<feColorMatrix in="SourceAlpha" type="matrix" values="0 0 0 0 0 0 0 0 0 0 0 0 0 0 0 0 0 0 127 0" result="hardAlpha"/>
<feOffset dy="20"/>
<feGaussianBlur stdDeviation="7.5"/>
<feComposite in2="hardAlpha" operator="out"/>
<feColorMatrix type="matrix" values="0 0 0 0 0 0 0 0 0 0 0 0 0 0 0 0 0 0 0.25 0"/>
<feBlend mode="normal" in2="BackgroundImageFix" result="effect1_dropShadow_7449_6308"/>
<feBlend mode="normal" in="SourceGraphic" in2="effect1_dropShadow_7449_6308" result="shape"/>
</filter>
</defs>
</svg>
