<svg xmlns="http://www.w3.org/2000/svg" width="13" height="16" viewBox="0 0 13 16" fill="none">
  <path d="M2.78571 16C2.52262 16 2.30193 15.9147 2.12364 15.744C1.94598 15.5739 1.85714 15.363 1.85714 15.1111V12.4444H11.1429V15.1111C11.1429 15.363 11.0537 15.5739 10.8754 15.744C10.6978 15.9147 10.4774 16 10.2143 16H2.78571ZM13 4.44444V7.11111C13 7.15556 12.9845 7.21481 12.9536 7.28889L12.2571 10.6667C12.2107 10.9333 12.0832 11.1481 11.8746 11.3111C11.6653 11.4741 11.4214 11.5556 11.1429 11.5556H1.85714C1.57857 11.5556 1.33498 11.4741 1.12636 11.3111C0.917119 11.1481 0.789286 10.9333 0.742857 10.6667L0.0464287 7.28889C0.0154764 7.21481 0 7.15556 0 7.11111V1.77778C0 1.28889 0.182 0.870222 0.546 0.521778C0.909381 0.173926 1.34643 0 1.85714 0H9.28571C9.79643 0 10.2338 0.173926 10.5978 0.521778C10.9612 0.870222 11.1429 1.28889 11.1429 1.77778V4.44444C11.1429 4.19259 11.232 3.98133 11.4103 3.81067C11.588 3.64059 11.8083 3.55556 12.0714 3.55556C12.3345 3.55556 12.5549 3.64059 12.7326 3.81067C12.9109 3.98133 13 4.19259 13 4.44444ZM2.78571 6.22222H8.35714V3.55556H2.78571V6.22222Z" fill="#FF8700"/>
</svg>