<svg width="28" height="28" viewBox="0 0 28 28" fill="none" xmlns="http://www.w3.org/2000/svg">
<path d="M14 22.8376C13.8445 22.8376 13.6986 22.8131 13.5625 22.7641C13.4264 22.7159 13.3 22.6334 13.1834 22.5167L5.48336 14.8167C5.25003 14.5834 5.13336 14.3061 5.13336 13.9849C5.13336 13.6645 5.25003 13.3876 5.48336 13.1542C5.71669 12.9209 5.98892 12.8042 6.30003 12.8042C6.61114 12.8042 6.88336 12.9209 7.11669 13.1542L12.8334 18.8709L12.8334 5.80425C12.8334 5.47369 12.9454 5.20147 13.1694 4.98758C13.3926 4.77369 13.6695 4.66675 14 4.66675C14.3306 4.66675 14.6079 4.77836 14.8319 5.00158C15.0551 5.22558 15.1667 5.50286 15.1667 5.83341L15.1667 18.8709L20.8834 13.1542C21.1167 12.9209 21.3889 12.8042 21.7 12.8042C22.0111 12.8042 22.2834 12.9209 22.5167 13.1542C22.75 13.3876 22.8667 13.6645 22.8667 13.9849C22.8667 14.3061 22.75 14.5834 22.5167 14.8167L14.8167 22.5167C14.7 22.6334 14.5736 22.7159 14.4375 22.7641C14.3014 22.8131 14.1556 22.8376 14 22.8376Z" fill="#FF2752"/>
</svg>
