<svg width="151" height="19" viewBox="0 0 151 19" fill="none" xmlns="http://www.w3.org/2000/svg">
<path d="M0 11.2073H1.44072C1.9277 11.2073 2.41286 11.2666 2.8855 11.3839L14.9934 14.3878C17.0456 14.897 19.2062 14.2707 20.8924 12.995C23.893 10.7247 28.9719 7.79554 33.2398 9.85284C39.7616 12.9966 40.1418 0.184223 47.7559 1.12049C51.5428 1.58614 52.3406 7.55269 55.7503 12.5309C57.913 15.6883 59.0369 17.5161 61.3316 18.1239C62.5925 18.4578 63.8872 17.9275 64.9283 17.1418L76.6727 8.27836C77.0069 8.02612 77.4465 7.96125 77.8393 8.10619V8.10619C78.233 8.25145 78.6736 8.18596 79.008 7.93247L83.9591 4.17956C86.357 2.36195 89.7304 2.60153 91.8473 4.73979L94.169 7.0848C95.6456 8.57629 97.8182 9.14371 99.8356 8.56477V8.56477C101.371 8.12406 103.021 8.34288 104.389 9.16869L113.313 14.5567C115.067 15.6157 117.241 15.7064 119.077 14.7971L130.308 9.23553C131.475 8.65772 132.812 8.52218 134.071 8.85401V8.85401C135.631 9.26525 137.294 8.95515 138.601 8.00904L145.961 2.68215C146.947 1.96845 148.127 1.57158 149.344 1.54424L150 1.52951" stroke="#32A7E2"/>
</svg>
