<svg width="45" height="45" viewBox="0 0 45 45" fill="none" xmlns="http://www.w3.org/2000/svg">
<circle cx="22.5" cy="22.5" r="22.5" fill="#FF8700"/>
<path d="M22 20.926H19.9583V13.6667H17.9166V20.926H15.875V13.6667H13.8333V21.963C13.8333 23.6783 15.2074 25.0742 16.8958 25.0742H17.9166V32.3334H19.9583V25.0742H20.9791C22.6676 25.0742 24.0416 23.6783 24.0416 21.963V13.6667H22V20.926ZM29.1458 13.6667H28.125C26.9418 13.6667 26.0833 14.9755 26.0833 16.7779V25.0742H28.125V32.3334H30.1666V14.7038C30.1666 14.4287 30.0591 14.165 29.8677 13.9705C29.6762 13.776 29.4166 13.6667 29.1458 13.6667Z" fill="#FEFEFE"/>
</svg>
