<svg width="45" height="45" viewBox="0 0 45 45" fill="none" xmlns="http://www.w3.org/2000/svg">
<circle cx="22.5" cy="22.5" r="22.5" fill="#B548C6"/>
<path d="M18.4423 15.6921C18.5918 15.2784 18.3709 14.8249 17.9461 14.6793C17.5213 14.5337 17.0557 14.7488 16.9062 15.1625L16.5425 16.1621L16.2061 15.1758C16.0634 14.7587 15.6012 14.5337 15.173 14.6727C14.7448 14.8117 14.5137 15.2618 14.6564 15.6789L14.9385 16.5063L14.0073 15.8443C13.6437 15.5862 13.1339 15.6656 12.8688 16.0198C12.6037 16.3739 12.6853 16.8704 13.0489 17.1285L14.0107 17.8103H13.2562C12.3557 17.8103 11.625 18.5219 11.625 19.399V29.9903C11.625 30.8674 12.3557 31.579 13.2562 31.579H18.4423C18.2587 31.2678 18.15 30.9071 18.15 30.5198V23.106C18.15 22.1163 18.8467 21.2856 19.788 21.0539C19.8492 20.0279 20.3692 19.1276 21.1508 18.5352C20.8586 18.0983 20.3556 17.8103 19.7812 17.8103H19.0268L19.9886 17.1285C20.3522 16.8704 20.4337 16.3739 20.1687 16.0198C19.9036 15.6656 19.3938 15.5862 19.0302 15.8443L18.167 16.4566L18.4423 15.6921ZM23.9783 20.7726L24.9843 22.0468H23.3156C22.8636 22.0468 22.5 21.6927 22.5 21.2525C22.5 20.8189 22.867 20.4582 23.3224 20.4582C23.5807 20.4582 23.822 20.574 23.9783 20.7726ZM20.8687 21.2525C20.8687 21.5305 20.9163 21.7986 21.0081 22.0468H20.8687C19.9682 22.0468 19.2375 22.7584 19.2375 23.6355V26.2833H25.7625V23.106H26.85V26.2833H33.375V23.6355C33.375 22.7584 32.6443 22.0468 31.7437 22.0468H31.6044C31.6962 21.7986 31.7437 21.5305 31.7437 21.2525C31.7437 19.9319 30.6393 18.8695 29.2901 18.8695C28.5288 18.8695 27.8084 19.2137 27.3428 19.8028L26.3062 21.1135L25.2697 19.8028C24.8041 19.2137 24.0803 18.8695 23.3224 18.8695C21.9732 18.8695 20.8687 19.9319 20.8687 21.2525ZM19.2375 29.9903C19.2375 30.8674 19.9682 31.579 20.8687 31.579H25.7625V27.3425H19.2375V29.9903ZM26.85 31.579H31.7437C32.6443 31.579 33.375 30.8674 33.375 29.9903V27.3425H26.85V31.579ZM30.1125 21.2525C30.1125 21.6927 29.7489 22.0468 29.2969 22.0468H27.6282L28.6342 20.7726C28.7905 20.5773 29.0318 20.4582 29.2901 20.4582C29.7455 20.4582 30.1125 20.8189 30.1125 21.2525Z" fill="#FEFEFE"/>
</svg>
