<svg width="24" height="24" viewBox="0 0 24 24" fill="none" xmlns="http://www.w3.org/2000/svg">
<path d="M16.9076 1.5C17.7545 1.5 18.5489 1.66397 19.2908 1.99191C20.0327 2.31985 20.6772 2.77273 21.2243 3.35053C21.7714 3.92833 22.2061 4.60374 22.5283 5.37674C22.8506 6.14975 23.0117 6.97741 23.0117 7.85973C23.0117 8.3126 22.9668 8.76157 22.8768 9.20664C22.7869 9.6517 22.652 10.0811 22.4721 10.495H17.2673L15.109 8.15254L11.5117 11.9004L6.47555 6.65337L2.87829 10.495H0.551308C0.371445 10.0811 0.236548 9.6517 0.146616 9.20664C0.0566845 8.76157 0.0117188 8.3126 0.0117188 7.85973C0.0117188 6.97741 0.169099 6.14975 0.48386 5.37674C0.79862 4.60374 1.23329 3.93224 1.78787 3.36224C2.34245 2.79225 2.9907 2.33938 3.73264 2.00363C4.47457 1.66788 5.26897 1.5 6.11582 1.5C6.9327 1.5 7.71211 1.66007 8.45405 1.9802C9.19598 2.30033 9.85923 2.76102 10.4438 3.36224L11.5117 4.48661L12.5797 3.36224C13.1567 2.76102 13.8162 2.30033 14.5582 1.9802C15.3001 1.66007 16.0832 1.5 16.9076 1.5ZM15.8284 11.9941H21.5616L21.4042 12.1815C21.3517 12.244 21.2955 12.3104 21.2356 12.3806L11.5117 22.5L1.78787 12.3806C1.72791 12.3182 1.67171 12.2557 1.61925 12.1933C1.56679 12.1308 1.51433 12.0644 1.46187 11.9941H4.31719L6.47555 9.8391L11.5117 15.0862L15.109 11.3383L15.8284 11.9941Z" fill="#FEFEFE"/>
</svg>
