<svg width="106" height="20" viewBox="0 0 106 20" fill="none" xmlns="http://www.w3.org/2000/svg">
<path d="M1 16.3995L2.05 15.1161C3.1 13.8328 5.1125 11.2662 7.2125 12.1218C9.225 12.9773 11.325 17.255 13.3375 18.5383C15.4375 19.8216 17.45 18.1105 19.55 17.255C21.5625 16.3995 23.6625 16.3995 25.675 14.2606C27.775 12.1218 29.7875 7.84407 31.8875 7.4163C33.9 6.98853 36 10.4107 38.1 11.694C40.1125 12.9773 42.2125 12.1218 44.225 11.2662C46.325 10.4107 48.3375 9.55514 50.4375 10.8385C52.45 12.1218 54.55 15.5439 56.5625 15.9717C58.6625 16.3995 60.675 13.8328 62.775 11.2662C64.7875 8.6996 66.8875 6.13299 68.9 4.84968C71 3.56637 73.1 3.56637 75.1125 4.42191C77.2125 5.27745 79.225 6.98853 81.325 9.98291C83.3375 12.9773 85.4375 8.07637 87.45 10.643C89.55 13.2096 91.5625 14.0651 93.6625 10.643C95.675 7.22083 97.775 8.69961 99.7875 4.84968C101.888 0.999756 103.9 0.999756 104.95 0.999756H106" stroke="#FF8700"/>
</svg>
