<svg width="105" height="43" viewBox="0 0 105 43" fill="none" xmlns="http://www.w3.org/2000/svg">
<path d="M0.760864 42.4273C1.52173 42.4273 2.38684 40.2337 3.04348 39.5339C3.8232 38.7029 4.81008 38.1149 5.99168 38.4251C8.71252 39.1396 10.2673 41.7591 11.822 38.4251C13.3768 35.0912 14.5429 32.2335 15.9033 32.7097C17.2637 33.186 18.2354 35.8056 19.9846 35.3293C21.7337 34.853 16.8604 40.1788 24.6488 32.7097C32.4373 25.2407 31.5894 26.3792 32.034 28.8995C32.582 32.006 34.1718 36.52 37.4756 33.6623C40.7795 30.8046 40.8572 27.7088 43.1117 27.7088C45.3661 27.7088 44.0834 26.5181 44.8608 27.7088C45.6381 28.8995 46.0268 28.4232 46.9986 26.9944C47.9703 25.5655 49.3638 21.279 50.5299 23.1841C51.696 25.0892 52.6346 28.8995 54.9667 28.8995C57.2989 28.8995 61.0615 25.0892 63.588 22.2315C66.1145 19.3738 67.5992 24.8511 68.1822 26.2799C68.7652 27.7088 73.0408 24.8511 75.373 21.279C77.2387 18.4213 79.1303 22.6284 79.8429 25.0892C82.3694 24.0573 87.9277 21.3742 89.9489 18.8976C91.9701 16.4209 93.1232 18.6594 93.4471 20.0883C95.0634 18.6029 100.388 8.99471 102.217 2.53829C102.44 1.7488 102.717 1 104.239 1" stroke="#B548C6" stroke-linecap="square" stroke-linejoin="round"/>
</svg>
