<svg width="24" height="24" viewBox="0 0 24 24" fill="none" xmlns="http://www.w3.org/2000/svg">
<path d="M20.089 12.5444V11.4484L21.5015 10.245C21.7619 10.0216 21.9328 9.7157 21.9839 9.38144C22.0351 9.04719 21.9632 8.7061 21.7811 8.41843L20.0448 5.55318C19.9158 5.33561 19.7303 5.15489 19.5069 5.02917C19.2835 4.90344 19.0301 4.83712 18.772 4.83686C18.6121 4.83567 18.4531 4.85987 18.3012 4.9085L16.5134 5.49587C16.2048 5.29617 15.8828 5.1167 15.5496 4.95864L15.1744 3.15353C15.1072 2.82374 14.9229 2.5275 14.6539 2.31666C14.3849 2.10582 14.0483 1.99382 13.703 2.00026H10.2599C9.91464 1.99382 9.57804 2.10582 9.30904 2.31666C9.04004 2.5275 8.85577 2.82374 8.78849 3.15353L8.41328 4.95864C8.07775 5.11666 7.75333 5.29613 7.44215 5.49587L5.69117 4.87984C5.53762 4.84089 5.37862 4.82638 5.22031 4.83686C4.96228 4.83712 4.70886 4.90344 4.48546 5.02917C4.26207 5.15489 4.07655 5.33561 3.94754 5.55318L2.21127 8.41843C2.03955 8.70567 1.97574 9.0421 2.03076 9.3701C2.08579 9.69811 2.25624 9.99728 2.51291 10.2164L3.9034 11.4556V12.5516L2.51291 13.755C2.24899 13.9756 2.07388 14.2801 2.01866 14.6145C1.96344 14.9489 2.03168 15.2915 2.21127 15.5816L3.94754 18.4468C4.07655 18.6644 4.26207 18.8451 4.48546 18.9708C4.70886 19.0966 4.96228 19.1629 5.22031 19.1631C5.38022 19.1643 5.53925 19.1401 5.69117 19.0915L7.47893 18.5041C7.78759 18.7038 8.10956 18.8833 8.44271 19.0414L8.81792 20.8465C8.8852 21.1763 9.06946 21.4725 9.33847 21.6833C9.60747 21.8942 9.94407 22.0062 10.2893 21.9997H13.7619C14.1071 22.0062 14.4437 21.8942 14.7127 21.6833C14.9817 21.4725 15.166 21.1763 15.2333 20.8465L15.6085 19.0414C15.944 18.8833 16.2684 18.7039 16.5796 18.5041L18.36 19.0915C18.512 19.1401 18.671 19.1643 18.8309 19.1631C19.0889 19.1629 19.3424 19.0966 19.5657 18.9708C19.7891 18.8451 19.9747 18.6644 20.1037 18.4468L21.7811 15.5816C21.9528 15.2943 22.0166 14.9579 21.9616 14.6299C21.9066 14.3019 21.7361 14.0027 21.4794 13.7836L20.089 12.5444ZM18.772 17.7305L16.2486 16.8996C15.6578 17.3868 14.9827 17.7676 14.2548 18.0242L13.7324 20.5958H10.2599L9.73755 18.0529C9.0154 17.7889 8.34392 17.4088 7.75114 16.9282L5.22031 17.7305L3.48404 14.8653L5.48517 13.1461C5.34913 12.4046 5.34913 11.6455 5.48517 10.904L3.48404 9.13475L5.22031 6.26949L7.74379 7.10042C8.33451 6.61325 9.00965 6.23243 9.73755 5.9758L10.2599 3.40424H13.7324L14.2548 5.94715C14.9769 6.21106 15.6484 6.59122 16.2412 7.07176L18.772 6.26949L20.5083 9.13475L18.5072 10.8539C18.6432 11.5954 18.6432 12.3545 18.5072 13.096L20.5083 14.8653L18.772 17.7305Z" fill="#4B7FD6"/>
<path d="M11.9962 16.2979C11.1231 16.2979 10.2696 16.0458 9.54373 15.5736C8.81781 15.1013 8.25203 14.4301 7.91793 13.6448C7.58382 12.8594 7.49641 11.9953 7.66673 11.1616C7.83705 10.3278 8.25747 9.56204 8.87481 8.96097C9.49216 8.3599 10.2787 7.95057 11.135 7.78473C11.9913 7.6189 12.8788 7.70401 13.6854 8.02931C14.492 8.3546 15.1814 8.90547 15.6665 9.61226C16.1515 10.319 16.4104 11.15 16.4104 12C16.4163 12.566 16.3062 13.1275 16.0864 13.6515C15.8667 14.1756 15.5417 14.6517 15.1306 15.0519C14.7196 15.4521 14.2306 15.7685 13.6924 15.9825C13.1541 16.1964 12.5775 16.3037 11.9962 16.2979ZM11.9962 9.13478C11.6072 9.12596 11.2205 9.19404 10.8594 9.33491C10.4982 9.47578 10.1702 9.68651 9.89509 9.95435C9.61999 10.2222 9.40356 10.5416 9.25887 10.8932C9.11419 11.2448 9.04426 11.6213 9.05333 12C9.04426 12.3787 9.11419 12.7552 9.25887 13.1069C9.40356 13.4585 9.61999 13.7779 9.89509 14.0457C10.1702 14.3136 10.4982 14.5243 10.8594 14.6652C11.2205 14.806 11.6072 14.8741 11.9962 14.8653C12.3851 14.8741 12.7718 14.806 13.133 14.6652C13.4941 14.5243 13.8221 14.3136 14.0972 14.0457C14.3723 13.7779 14.5887 13.4585 14.7334 13.1069C14.8781 12.7552 14.948 12.3787 14.939 12C14.948 11.6213 14.8781 11.2448 14.7334 10.8932C14.5887 10.5416 14.3723 10.2222 14.0972 9.95435C13.8221 9.68651 13.4941 9.47578 13.133 9.33491C12.7718 9.19404 12.3851 9.12596 11.9962 9.13478Z" fill="#4B7FD6"/>
</svg>
