<svg width="45" height="45" viewBox="0 0 45 45" fill="none" xmlns="http://www.w3.org/2000/svg">
<circle cx="22.5" cy="22.5" r="22.5" fill="#32A7E2"/>
<path fill-rule="evenodd" clip-rule="evenodd" d="M19.1575 17.1667V18.3333H17.6828C17.1985 18.3334 16.7318 18.525 16.3748 18.8701C16.0179 19.2152 15.7965 19.6889 15.7544 20.1977L14.8406 31.281C14.8173 31.5629 14.8498 31.8467 14.9361 32.1147C15.0223 32.3826 15.1604 32.6286 15.3416 32.8373C15.5228 33.0459 15.7432 33.2126 15.9887 33.3267C16.2342 33.4407 16.4995 33.4998 16.7678 33.5H30.3977C30.6661 33.4999 30.9315 33.441 31.1772 33.327C31.4228 33.213 31.6433 33.0464 31.8246 32.8377C32.0059 32.6291 32.1441 32.3829 32.2305 32.1149C32.3168 31.8469 32.3493 31.563 32.326 31.281L31.4122 20.1977C31.3701 19.6887 31.1486 19.2148 30.7914 18.8697C30.4342 18.5245 29.9672 18.3332 29.4828 18.3333H28.008V17.1667C28.008 15.929 27.5418 14.742 26.7119 13.8668C25.882 12.9917 24.7564 12.5 23.5828 12.5C22.4091 12.5 21.2835 12.9917 20.4536 13.8668C19.6237 14.742 19.1575 15.929 19.1575 17.1667ZM23.5828 14.25C22.8492 14.25 22.1457 14.5573 21.627 15.1043C21.1084 15.6513 20.817 16.3931 20.817 17.1667V18.3333H26.3486V17.1667C26.3486 16.3931 26.0572 15.6513 25.5385 15.1043C25.0198 14.5573 24.3163 14.25 23.5828 14.25ZM20.817 23C20.817 23.7735 21.1084 24.5154 21.627 25.0624C22.1457 25.6094 22.8492 25.9167 23.5828 25.9167C24.3163 25.9167 25.0198 25.6094 25.5385 25.0624C26.0572 24.5154 26.3486 23.7735 26.3486 23V21.5417C26.3486 21.3096 26.436 21.087 26.5916 20.9229C26.7472 20.7589 26.9582 20.6667 27.1783 20.6667C27.3984 20.6667 27.6094 20.7589 27.765 20.9229C27.9206 21.087 28.008 21.3096 28.008 21.5417V23C28.008 24.2377 27.5418 25.4247 26.7119 26.2998C25.882 27.175 24.7564 27.6667 23.5828 27.6667C22.4091 27.6667 21.2835 27.175 20.4536 26.2998C19.6237 25.4247 19.1575 24.2377 19.1575 23V21.5417C19.1575 21.3096 19.2449 21.087 19.4005 20.9229C19.5561 20.7589 19.7672 20.6667 19.9872 20.6667C20.2073 20.6667 20.4183 20.7589 20.5739 20.9229C20.7295 21.087 20.817 21.3096 20.817 21.5417V23Z" fill="#FEFEFE"/>
</svg>
