<svg width="15" height="18" viewBox="0 0 15 18" fill="none" xmlns="http://www.w3.org/2000/svg">
<path fill-rule="evenodd" clip-rule="evenodd" d="M3.70643 4V5H2.44239C2.02728 5.0001 1.62728 5.16425 1.32131 5.46007C1.01533 5.7559 0.8256 6.16191 0.789545 6.598L0.00627174 16.098C-0.0137024 16.3396 0.0141569 16.5829 0.0880825 16.8126C0.162008 17.0422 0.280386 17.2531 0.435706 17.432C0.591027 17.6108 0.779899 17.7536 0.99034 17.8514C1.20078 17.9492 1.4282 17.9998 1.65816 18H13.3409C13.5709 17.9999 13.7985 17.9495 14.009 17.8517C14.2196 17.754 14.4086 17.6112 14.564 17.4323C14.7194 17.2535 14.8379 17.0425 14.9118 16.8128C14.9858 16.5831 15.0137 16.3397 14.9937 16.098L14.2105 6.598C14.1744 6.16173 13.9845 5.75558 13.6783 5.45973C13.3722 5.16389 12.9719 4.99985 12.5567 5H11.2926V4C11.2926 2.93913 10.893 1.92172 10.1816 1.17157C9.47031 0.421427 8.50552 0 7.49953 0C6.49354 0 5.52875 0.421427 4.8174 1.17157C4.10606 1.92172 3.70643 2.93913 3.70643 4ZM7.49953 1.5C6.87078 1.5 6.26779 1.76339 5.8232 2.23223C5.37861 2.70107 5.12884 3.33696 5.12884 4V5H9.87021V4C9.87021 3.33696 9.62044 2.70107 9.17585 2.23223C8.73126 1.76339 8.12827 1.5 7.49953 1.5ZM5.12884 9C5.12884 9.66304 5.37861 10.2989 5.8232 10.7678C6.26779 11.2366 6.87078 11.5 7.49953 11.5C8.12827 11.5 8.73126 11.2366 9.17585 10.7678C9.62044 10.2989 9.87021 9.66304 9.87021 9V7.75C9.87021 7.55109 9.94514 7.36032 10.0785 7.21967C10.2119 7.07902 10.3928 7 10.5814 7C10.77 7 10.9509 7.07902 11.0843 7.21967C11.2177 7.36032 11.2926 7.55109 11.2926 7.75V9C11.2926 10.0609 10.893 11.0783 10.1816 11.8284C9.47031 12.5786 8.50552 13 7.49953 13C6.49354 13 5.52875 12.5786 4.8174 11.8284C4.10606 11.0783 3.70643 10.0609 3.70643 9V7.75C3.70643 7.55109 3.78136 7.36032 3.91474 7.21967C4.04812 7.07902 4.22901 7 4.41764 7C4.60626 7 4.78716 7.07902 4.92054 7.21967C5.05391 7.36032 5.12884 7.55109 5.12884 7.75V9Z" fill="#FEFEFE"/>
</svg>
