<svg width="287" height="163" viewBox="0 0 287 163" fill="none" xmlns="http://www.w3.org/2000/svg">
<path d="M12 103C12 99.6863 9.31371 97 6 97C2.68629 97 -1.44847e-07 99.6863 0 103L12 103ZM2.36042e-06 157L2.62268e-06 163L12 163L12 157L2.36042e-06 157ZM0 103L2.36042e-06 157L12 157L12 103L0 103Z" fill="#FF8700"/>
<path d="M58 53C58 49.6863 55.3137 47 52 47C48.6863 47 46 49.6863 46 53L58 53ZM46 157L46 163L58 163L58 157L46 157ZM46 53L46 157L58 157L58 53L46 53Z" fill="#FF8700"/>
<path d="M104 69C104 65.6863 101.314 63 98 63C94.6863 63 92 65.6863 92 69L104 69ZM92 157L92 163L104 163L104 157L92 157ZM92 69L92 157L104 157L104 69L92 69Z" fill="#FF8700"/>
<path d="M150 32C150 28.6863 147.314 26 144 26C140.686 26 138 28.6863 138 32L150 32ZM138 157L138 163L150 163L150 157L138 157ZM138 32L138 157L150 157L150 32L138 32Z" fill="#FF8700"/>
<path d="M195 6C195 2.68629 192.314 -1.44847e-07 189 0C185.686 1.44847e-07 183 2.68629 183 6L195 6ZM183 157L183 163L195 163L195 157L183 157ZM183 6L183 157L195 157L195 6L183 6Z" fill="#FF8700"/>
<path d="M241 116C241 112.686 238.314 110 235 110C231.686 110 229 112.686 229 116L241 116ZM229 157L229 163L241 163L241 157L229 157ZM229 116L229 157L241 157L241 116L229 116Z" fill="#FF8700"/>
<path d="M287 126C287 122.686 284.314 120 281 120C277.686 120 275 122.686 275 126L287 126ZM275 157L275 163L287 163L287 157L275 157ZM275 126L275 157L287 157L287 126L275 126Z" fill="#FF8700"/>
</svg>
