<svg width="24" height="24" viewBox="0 0 24 24" fill="none" xmlns="http://www.w3.org/2000/svg">
<path d="M16.1558 3.39621C16.3762 3.64998 16.5 3.99411 16.5 4.35294C16.5 4.71177 16.3762 5.05591 16.1558 5.30968L10.3373 12.0082L16.1558 18.7067C16.37 18.9619 16.4884 19.3037 16.4858 19.6585C16.4831 20.0133 16.3595 20.3527 16.1415 20.6036C15.9236 20.8545 15.6288 20.9969 15.3206 20.9999C15.0124 21.003 14.7154 20.8666 14.4937 20.6201L7.84416 12.9649C7.62379 12.7111 7.5 12.367 7.5 12.0082C7.5 11.6493 7.62379 11.3052 7.84416 11.0514L14.4937 3.39621C14.7142 3.14252 15.0131 3 15.3248 3C15.6365 3 15.9354 3.14252 16.1558 3.39621Z" fill="#FEFEFE"/>
</svg>
