<svg width="290" height="163" viewBox="0 0 290 163" fill="none" xmlns="http://www.w3.org/2000/svg">
<path fill-rule="evenodd" clip-rule="evenodd" d="M0.966386 109.028L3.8538 106.996C6.74121 104.964 12.2754 100.9 18.0502 102.255C23.5845 103.609 29.3593 110.383 34.8935 112.415C40.6683 114.447 46.2025 111.737 51.9774 110.383C57.5116 109.028 63.2864 109.028 68.8206 105.641C74.5954 102.255 86.6593 56.3263 92.4341 55.649C97.9683 54.9716 106.261 54.2457 112.211 54.2465C118.638 54.2473 119.719 57.6914 123.088 64.0642C127.538 72.4802 126.549 82.2983 132.482 82.2983C138.199 82.2983 144.726 90.0125 150.281 90.0125C155.225 90.0125 164.872 31.6269 171.047 28.9994C175.991 26.8955 178.368 66.0966 183.902 64.0646C189.677 62.0326 197.65 63.4112 203.184 64.7659C208.959 66.1205 221.658 4.27308 227.905 0.948382C231.861 -1.15661 237.735 63.7399 243.727 66.1682C257.57 71.7783 257.57 63.3627 263.503 65.4669C270.167 67.83 272.42 68.4198 277.347 60.5576C281.303 54.2459 269.021 90.7133 271.909 90.7133L281.303 84.6441H289.708V121.22V146.992C289.708 149.856 289.554 151.832 289.708 154.388C289.815 156.169 289.708 157.912 289.708 159.926C289.708 163.252 289.708 162.994 289.708 162.994C289.161 162.973 288.441 162.947 287.5 162.947C278.229 162.947 268.784 162.947 264.6 162.947C258.825 162.947 253.636 162.947 247.861 162.947C242.327 162.947 236.657 162.947 231.123 162.947C225.348 162.947 222.251 162.947 216.476 162.947C210.942 162.947 213.882 162.947 208.107 162.947C202.573 162.947 198.995 162.947 193.461 162.947C187.686 162.947 184.589 162.947 178.814 162.947C173.28 162.947 167.61 162.947 162.076 162.947C156.301 162.947 151.112 162.947 145.337 162.947C139.803 162.947 134.133 162.947 128.598 162.947C122.824 162.947 117.394 162.947 111.86 162.947C106.085 162.947 102.988 162.947 97.2135 162.947C91.6793 162.947 88.1014 162.947 82.5672 162.947C76.7924 162.947 61.1418 162.947 55.3669 162.947C49.8327 162.947 35.7932 162.947 30.259 162.947C26.1997 162.947 8.03043 163.159 0.966419 162.735C0.0834129 160.824 0.96641 152.757 0.966386 149.447V121.22V109.028Z" fill="#FF8700" fill-opacity="0.05"/>
<path d="M0.573969 108.249L3.46578 106.224C6.3576 104.199 11.9002 100.15 17.6839 101.5C23.2265 102.849 29.0101 109.599 34.5528 111.624C40.3364 113.649 45.8791 110.949 51.6627 109.599C57.2053 108.249 62.989 108.249 68.5316 104.874C74.3152 101.5 85.9023 56.0537 91.6859 55.3787C97.2286 54.7037 111.651 53.3536 117.435 55.3785C122.978 57.4034 127.243 83.2098 132.785 81.8599C138.569 80.5099 143.342 87.3251 149.126 89.35C154.669 91.3749 165.166 28.9197 170.709 29.5946C176.493 30.2696 178.995 67.7909 184.779 63.7411C190.321 59.6912 199.145 65.766 204.688 63.7411C210.472 61.7162 222.316 -0.326379 227.859 1.02356C233.642 2.3735 237.921 61.8042 243.704 66.529C249.247 71.2538 260.444 62.4792 265.987 66.529C271.771 70.5788 271.592 65.657 277.376 60.2572C282.919 54.8575 267.103 96.0997 272.646 90.025C278.429 83.9503 283.972 83.9503 286.864 83.9503H289.755" stroke="#FF8700" stroke-width="2"/>
</svg>
