<svg width="38" height="38" viewBox="0 0 38 38" fill="none" xmlns="http://www.w3.org/2000/svg">
    <circle cx="19" cy="19" r="19" fill="#FF8700"/>
    <path d="M19 17.2222H17.25V11H15.5V17.2222H13.75V11H12V18.1111C12 19.5813 13.1777 20.7778 14.625 20.7778H15.5V27H17.25V20.7778H18.125C19.5722 20.7778 20.75 19.5813 20.75 18.1111V11H19V17.2222ZM25.125 11H24.25C23.2359 11 22.5 12.1218 22.5 13.6667V20.7778H24.25V27H26V11.8889C26 11.6531 25.9078 11.427 25.7437 11.2603C25.5796 11.0937 25.3571 11 25.125 11Z" fill="white"/>
</svg>

