<svg width="38" height="38" viewBox="0 0 38 38" fill="none" xmlns="http://www.w3.org/2000/svg">
    <circle cx="19" cy="19" r="19" fill="#B548C6"/>
    <path d="M15.6419 10.8761C15.7656 10.5343 15.5828 10.1597 15.2312 10.0394C14.8797 9.91911 14.4944 10.0968 14.3706 10.4386L14.0697 11.2643L13.7912 10.4495C13.6731 10.105 13.2906 9.91911 12.9362 10.0339C12.5819 10.1488 12.3906 10.5206 12.5087 10.8651L12.7422 11.5487L11.9716 11.0018C11.6706 10.7886 11.2487 10.8542 11.0294 11.1467C10.81 11.4393 10.8775 11.8494 11.1784 12.0627L11.9744 12.6259H11.35C10.6047 12.6259 10 13.2138 10 13.9383V22.6876C10 23.4122 10.6047 24 11.35 24H15.6419C15.49 23.743 15.4 23.445 15.4 23.1251V17.0006C15.4 16.1831 15.9766 15.4968 16.7556 15.3054C16.8062 14.4578 17.2366 13.7141 17.8834 13.2247C17.6416 12.8638 17.2253 12.6259 16.75 12.6259H16.1256L16.9216 12.0627C17.2225 11.8494 17.29 11.4393 17.0706 11.1467C16.8512 10.8542 16.4294 10.7886 16.1284 11.0018L15.4141 11.5077L15.6419 10.8761ZM20.2234 15.073L21.0559 16.1256H19.675C19.3009 16.1256 19 15.8331 19 15.4694C19 15.1113 19.3038 14.8132 19.6806 14.8132C19.8944 14.8132 20.0941 14.9089 20.2234 15.073ZM17.65 15.4694C17.65 15.6991 17.6894 15.9206 17.7653 16.1256H17.65C16.9047 16.1256 16.3 16.7135 16.3 17.438V19.6254H21.7V17.0006H22.6V19.6254H28V17.438C28 16.7135 27.3953 16.1256 26.65 16.1256H26.5347C26.6106 15.9206 26.65 15.6991 26.65 15.4694C26.65 14.3785 25.7359 13.5009 24.6194 13.5009C23.9894 13.5009 23.3931 13.7852 23.0078 14.2719L22.15 15.3546L21.2922 14.2719C20.9069 13.7852 20.3078 13.5009 19.6806 13.5009C18.5641 13.5009 17.65 14.3785 17.65 15.4694ZM16.3 22.6876C16.3 23.4122 16.9047 24 17.65 24H21.7V20.5003H16.3V22.6876ZM22.6 24H26.65C27.3953 24 28 23.4122 28 22.6876V20.5003H22.6V24ZM25.3 15.4694C25.3 15.8331 24.9991 16.1256 24.625 16.1256H23.2441L24.0766 15.073C24.2059 14.9117 24.4056 14.8132 24.6194 14.8132C24.9962 14.8132 25.3 15.1113 25.3 15.4694Z" fill="white"/>
</svg>
