<svg width="151" height="44" viewBox="0 0 151 44" fill="none" xmlns="http://www.w3.org/2000/svg">
    <path fill-rule="evenodd" clip-rule="evenodd" d="M0 20.9081V11.5164C1.5 10.6462 6.78261 12.5131 9.78261 13.0932C12.6576 13.6734 14.3733 15.5999 17.5 14.5001C21.5 13.0932 26.3478 9.99415 29.3478 9.41398C32.2228 8.83382 34.0815 11.39 36.9565 9.93962C39.9565 8.48922 43.7726 0.471686 46.7391 1.00437C47.5169 1.14403 49.1499 1.33135 50.5 3.00012C53 7.50012 57.9149 15.6399 58.6957 16.7725C59.7682 18.3284 62.6366 18.1659 65.2174 16.7725C68.5 15.0001 73.1761 9.82679 76.087 8.88842C79.3478 7.83722 83.2378 5.1362 85 4.00007C88.2609 1.89766 87.4186 2.06516 91.3043 4.6836C94 6.50007 94.9511 9.75867 97.8261 8.88842C100.826 8.01818 100.386 8.30826 103.261 8.88842C106.261 9.46859 109.93 13.7865 114.5 15.5001C118.5 17.0001 122.83 13.0916 126.087 11.5164C129.348 9.93963 126.949 8.88842 132.609 8.88842C136.957 8.88842 139.516 7.81993 142.391 5.2092C145.391 2.59847 148.5 1.52997 150 1.52997V10.4652V26.1296V37.1672C149 39.5001 148.761 41.3977 145.5 43.5001C142.239 44.0257 139.13 44.0001 136.957 44.0001C133.957 44.0001 131.261 44.0001 128.261 44.0001C125.386 44.0001 122.44 44.0001 119.565 44.0001C116.565 44.0001 114.957 44.0001 111.957 44.0001C109.082 44.0001 110.609 44.0001 107.609 44.0001C104.734 44.0001 102.875 44.0001 100 44.0001C97 44.0001 95.3913 44.0001 92.3913 44.0001C89.5163 44.0001 86.5706 44.0001 83.6956 44.0001C80.6956 44.0001 78 44.0001 75 44.0001C72.125 44.0001 69.1793 44.0001 66.3043 44.0001C63.3043 44.0001 60.4837 44.0001 57.6087 44.0001C54.6087 44.0001 53 44.0001 50 44.0001C47.125 44.0001 45.2663 44.0001 42.3913 44.0001C39.3913 44.0001 31.2609 44.0001 28.2609 44.0001C25.3859 44.0001 11.875 44.0001 9 44.0001C6 44.0001 2.5 44.0001 0.5 39.0001L0 33.5001V26.1296V20.9081Z" fill="#32A7E2" fill-opacity="0.05"/>
    <path d="M0 11.2073H1.44072C1.9277 11.2073 2.41286 11.2666 2.8855 11.3839L14.9934 14.3878C17.0456 14.897 19.2062 14.2707 20.8924 12.995C23.893 10.7247 28.9719 7.79554 33.2398 9.85284C39.7616 12.9966 40.1418 0.184223 47.7559 1.12049C51.5428 1.58614 52.3406 7.55269 55.7503 12.5309C57.913 15.6883 59.0369 17.5161 61.3316 18.1239C62.5925 18.4578 63.8872 17.9275 64.9283 17.1418L76.6727 8.27836C77.0069 8.02612 77.4465 7.96125 77.8393 8.10619V8.10619C78.233 8.25145 78.6736 8.18596 79.008 7.93247L83.9591 4.17956C86.357 2.36195 89.7304 2.60153 91.8473 4.73979L94.169 7.0848C95.6456 8.57629 97.8182 9.14371 99.8356 8.56477V8.56477C101.371 8.12406 103.021 8.34288 104.389 9.16869L113.313 14.5567C115.067 15.6157 117.241 15.7064 119.077 14.7971L130.308 9.23553C131.475 8.65772 132.812 8.52218 134.071 8.85401V8.85401C135.631 9.26525 137.294 8.95515 138.601 8.00904L145.961 2.68215C146.947 1.96845 148.127 1.57158 149.344 1.54424L150 1.52951" stroke="#32A7E2"/>
</svg>
