<svg width="150" height="44" viewBox="0 0 150 44" fill="none" xmlns="http://www.w3.org/2000/svg">
    <path fill-rule="evenodd" clip-rule="evenodd" d="M4.34783 29.7319L6.52174 28.7411C8.02174 27.9209 10.0435 29.1851 13.0435 29.7319C15.9185 30.2787 17.6556 28.7547 18.4783 27.255C19.5652 25.2735 18.7391 25.3249 21.7391 24.7781C23.2175 24.4969 25.0341 25.7559 27.1739 26.2642C29.1954 26.7445 31.5527 26.4908 32.6087 25.7689C34.9619 24.1602 40.4783 21.0885 43.4783 20.8151C46.3533 20.5417 47 24.9487 50 25.7689C52.875 26.5891 57.9946 21.3619 60.8696 20.8151C62.3012 20.5542 64.3594 21.7278 66.3043 20.8151C68.435 19.8152 70.4459 16.7581 71.7391 17.3475C72.8261 17.8428 76.9313 22.705 79.375 21.9626C81.5217 21.3105 85.0435 19.9786 88.0435 18.3382C90.9185 16.6978 89.5163 17.1769 92.3913 16.3567C93.8407 15.9605 96.7391 19.8243 98.913 19.8243C101.087 19.8243 108.297 15.0833 109.783 15.366C112.783 15.9128 110.481 16.6751 114.13 18.3382C117.391 19.8243 126.087 14.8706 129.348 13.8798C133.247 12.6953 132.73 16.026 135.87 13.8798C138.043 12.3937 138.429 10.8913 141.304 8.43071C142.908 7.11564 143.96 4.09299 145.652 2.48613C147.126 1.08644 149.302 1 150 1V12.3937V27.1572V37.5601C148.913 39.0462 147.826 40.037 144.565 42.0185C141.304 42.5139 139.13 44 136.957 44C133.957 44 131.261 44 128.261 44C125.386 44 122.44 44 119.565 44C116.565 44 114.957 44 111.957 44C109.082 44 110.609 44 107.609 44C104.734 44 102.875 44 100 44C97 44 95.3913 44 92.3913 44C89.5163 44 86.5706 44 83.6956 44C80.6956 44 78 44 75 44C72.125 44 69.1793 44 66.3043 44C63.3043 44 60.4837 44 57.6087 44C54.6087 44 53 44 50 44C47.125 44 45.2663 44 42.3913 44C39.3913 44 31.2609 44 28.2609 44C25.3859 44 18.0924 44 15.2174 44C12.2174 44 4.34783 42.6117 0 38.5509V35.7025V31.7134H1.08696L4.34783 29.7319Z" fill="#B548C6" fill-opacity="0.05"/>
    <path d="M1.08698 31.7133C2.17393 31.7133 3.4098 30.0871 4.34785 29.5682C5.46174 28.9521 6.87157 28.5162 8.55957 28.7462C12.4465 29.2759 14.6676 31.218 16.8887 28.7462C19.1098 26.2745 20.7756 24.1558 22.719 24.509C24.6625 24.8621 26.0507 26.8041 28.5494 26.451C31.0481 26.0979 24.0862 30.0464 35.2127 24.509C46.3391 18.9715 45.1277 19.8156 45.7628 21.6841C46.5457 23.9872 48.8168 27.3338 53.5367 25.2152C58.2565 23.0965 58.3675 20.8013 61.5881 20.8013C64.8087 20.8013 62.9763 19.9186 64.0868 20.8013C65.1974 21.6841 65.7527 21.331 67.1408 20.2717C68.529 19.2124 70.5198 16.0344 72.1856 17.4468C73.8514 18.8593 75.1923 21.6841 78.5239 21.6841C81.8556 21.6841 87.2308 18.8593 90.84 16.7406C94.4493 14.622 96.5703 18.6827 97.4032 19.742C98.2361 20.8013 104.344 18.6827 107.676 16.0344C110.341 13.9158 113.043 17.0349 114.061 18.8593C117.671 18.0942 125.611 16.105 128.498 14.2689C131.386 12.4327 133.033 14.0923 133.496 15.1516C135.805 14.0504 143.411 6.92711 146.024 2.14045C146.343 1.55514 146.739 1 148.913 1" stroke="#B548C6" stroke-linecap="square" stroke-linejoin="round"/>
</svg>
