<svg width="38" height="38" viewBox="0 0 38 38" fill="none" xmlns="http://www.w3.org/2000/svg">
    <circle cx="19" cy="19" r="19" fill="#32A7E2"/>
    <path fill-rule="evenodd" clip-rule="evenodd" d="M15.7064 14V15H14.4424C14.0273 15.0001 13.6273 15.1642 13.3213 15.4601C13.0153 15.7559 12.8256 16.1619 12.7895 16.598L12.0063 26.098C11.9863 26.3396 12.0142 26.5829 12.0881 26.8126C12.162 27.0422 12.2804 27.2531 12.4357 27.432C12.591 27.6108 12.7799 27.7536 12.9903 27.8514C13.2008 27.9492 13.4282 27.9998 13.6582 28H25.3409C25.5709 27.9999 25.7985 27.9495 26.009 27.8517C26.2196 27.754 26.4086 27.6112 26.564 27.4323C26.7194 27.2535 26.8379 27.0425 26.9118 26.8128C26.9858 26.5831 27.0137 26.3397 26.9937 26.098L26.2105 16.598C26.1744 16.1617 25.9845 15.7556 25.6783 15.4597C25.3722 15.1639 24.9719 14.9998 24.5567 15H23.2926V14C23.2926 12.9391 22.893 11.9217 22.1816 11.1716C21.4703 10.4214 20.5055 10 19.4995 10C18.4935 10 17.5287 10.4214 16.8174 11.1716C16.1061 11.9217 15.7064 12.9391 15.7064 14ZM19.4995 11.5C18.8708 11.5 18.2678 11.7634 17.8232 12.2322C17.3786 12.7011 17.1288 13.337 17.1288 14V15H21.8702V14C21.8702 13.337 21.6204 12.7011 21.1759 12.2322C20.7313 11.7634 20.1283 11.5 19.4995 11.5ZM17.1288 19C17.1288 19.663 17.3786 20.2989 17.8232 20.7678C18.2678 21.2366 18.8708 21.5 19.4995 21.5C20.1283 21.5 20.7313 21.2366 21.1759 20.7678C21.6204 20.2989 21.8702 19.663 21.8702 19V17.75C21.8702 17.5511 21.9451 17.3603 22.0785 17.2197C22.2119 17.079 22.3928 17 22.5814 17C22.77 17 22.9509 17.079 23.0843 17.2197C23.2177 17.3603 23.2926 17.5511 23.2926 17.75V19C23.2926 20.0609 22.893 21.0783 22.1816 21.8284C21.4703 22.5786 20.5055 23 19.4995 23C18.4935 23 17.5287 22.5786 16.8174 21.8284C16.1061 21.0783 15.7064 20.0609 15.7064 19V17.75C15.7064 17.5511 15.7814 17.3603 15.9147 17.2197C16.0481 17.079 16.229 17 16.4176 17C16.6063 17 16.7872 17.079 16.9205 17.2197C17.0539 17.3603 17.1288 17.5511 17.1288 17.75V19Z" fill="white"/>
</svg>
