<svg width="151" height="45" viewBox="0 0 151 45" fill="none" xmlns="http://www.w3.org/2000/svg">
    <path fill-rule="evenodd" clip-rule="evenodd" d="M1 14.4814L2.5 13.369C4 12.2566 6.875 10.0317 9.875 10.7734C12.75 11.515 15.75 15.2231 18.625 16.3355C21.625 17.4479 24.5 15.9647 27.5 15.2231C30.375 14.4814 33.375 14.4814 36.25 12.6274C39.25 10.7734 42.125 7.06527 45.125 6.69446C48 6.32365 51 9.29012 54 10.4025C56.875 11.515 59.875 10.7734 62.75 10.0317C65.75 9.29012 68.625 8.5485 71.625 9.66093C74.5 10.7734 77.5 13.7398 80.375 14.1106C83.375 14.4814 86.25 12.2566 89.25 10.0317C92.125 7.80689 95.125 5.58203 98 4.4696C101 3.35718 104 3.35718 106.875 4.0988C109.875 4.84041 112.75 6.32365 115.75 8.91931C118.625 11.515 121.625 7.26663 124.5 9.49149C127.5 11.7163 130.375 12.458 133.375 9.49149C136.25 6.52502 139.25 7.80689 142.125 4.4696C145.125 1.13232 148 1.13232 149.5 1.13232H151V21.156V35.2654C151 37.4998 151.009 41.6635 147 42.9998C144 43.9998 140.13 43.9998 137.957 43.9998C134.957 43.9998 132.261 43.9998 129.261 43.9998C126.386 43.9998 123.44 43.9998 120.565 43.9998C117.565 43.9998 115.957 43.9998 112.957 43.9998C110.082 43.9998 111.609 43.9998 108.609 43.9998C105.734 43.9998 103.875 43.9998 101 43.9998C98 43.9998 96.3913 43.9998 93.3913 43.9998C90.5163 43.9998 87.5706 43.9998 84.6956 43.9998C81.6956 43.9998 79 43.9998 76 43.9998C73.125 43.9998 70.1793 43.9998 67.3043 43.9998C64.3043 43.9998 61.4837 43.9998 58.6087 43.9998C55.6087 43.9998 54 43.9998 51 43.9998C48.125 43.9998 46.2663 43.9998 43.3913 43.9998C40.3913 43.9998 32.2609 43.9998 29.2609 43.9998C26.3859 43.9998 19.0924 43.9998 16.2174 43.9998C14.3077 43.9998 8.19162 44.4553 4.5 42.4998C2.39231 41.3833 1.5 38.9998 1 36.6091V21.156V14.4814Z" fill="#FF8700" fill-opacity="0.05"/>
    <path d="M1 14.3872L2.5 13.2716C4 12.156 6.875 9.92478 9.875 10.6685C12.75 11.4122 15.75 15.1309 18.625 16.2465C21.625 17.3621 24.5 15.8746 27.5 15.1309C30.375 14.3872 33.375 14.3872 36.25 12.5278C39.25 10.6685 42.125 6.94985 45.125 6.57799C48 6.20612 51 9.18105 54 10.2966C56.875 11.4122 59.875 10.6685 62.75 9.92478C65.75 9.18105 68.625 8.43732 71.625 9.55291C74.5 10.6685 77.5 13.6434 80.375 14.0153C83.375 14.3872 86.25 12.156 89.25 9.92478C92.125 7.69358 95.125 5.46239 98 4.34679C101 3.23119 104 3.23119 106.875 3.97493C109.875 4.71866 112.75 6.20612 115.75 8.80918C118.625 11.4122 121.625 7.15179 124.5 9.38299C127.5 11.6142 130.375 12.3579 133.375 9.38299C136.25 6.40806 139.25 7.69358 142.125 4.34679C145.125 1 148 1 149.5 1H151" stroke="#FF8700"/>
</svg>
