<svg width="38" height="38" viewBox="0 0 38 38" fill="none" xmlns="http://www.w3.org/2000/svg">
    <circle cx="19" cy="19" r="19" fill="#F6A845"/>
    <path d="M24.0417 19.5909C23.0917 19.5909 22.2538 19.3011 21.5281 18.7216C20.8024 18.142 20.3472 17.4015 20.1625 16.5H17.8073L16.8573 14.9545H20.1625C20.2285 14.6712 20.3177 14.4008 20.4301 14.1432C20.542 13.8856 20.6903 13.6409 20.875 13.4091H15.8875L14.9375 11.8636H21.7063L20.8354 9.54545H17.7083V8H20.8354C21.1785 8 21.4819 8.09324 21.7458 8.27973C22.0097 8.46673 22.201 8.71477 22.3198 9.02386L23.3885 11.8636H24.0417C25.1368 11.8636 26.0704 12.2402 26.8426 12.9934C27.6142 13.747 28 14.6583 28 15.7273C28 16.7962 27.6142 17.7073 26.8426 18.4604C26.0704 19.2141 25.1368 19.5909 24.0417 19.5909ZM24.0417 18.0455C24.7014 18.0455 25.2622 17.8201 25.724 17.3693C26.1858 16.9186 26.4167 16.3712 26.4167 15.7273C26.4167 15.0833 26.1858 14.536 25.724 14.0852C25.2622 13.6345 24.7014 13.4091 24.0417 13.4091H23.9823L24.7542 15.4761L23.25 15.9977L22.4979 13.9693C22.234 14.1883 22.0295 14.4523 21.8844 14.7614C21.7392 15.0705 21.6667 15.3924 21.6667 15.7273C21.6667 16.3712 21.8976 16.9186 22.3594 17.3693C22.8212 17.8201 23.3819 18.0455 24.0417 18.0455ZM14.5417 25C13.8819 25 13.3212 24.7746 12.8594 24.3239C12.3976 23.8731 12.1667 23.3258 12.1667 22.6818H9V18.0455H10.5833V15.7273H9V14.1818H14.5417L16.9167 18.0455H18.5C18.9354 18.0455 19.3083 18.1967 19.6186 18.499C19.9284 18.802 20.0833 19.1659 20.0833 19.5909V21.1364C20.0833 21.5614 19.9284 21.9253 19.6186 22.2282C19.3083 22.5306 18.9354 22.6818 18.5 22.6818H16.9167C16.9167 23.3258 16.6858 23.8731 16.224 24.3239C15.7622 24.7746 15.2014 25 14.5417 25ZM12.1667 18.0455H15.076L13.651 15.7273H12.1667V18.0455ZM14.5417 23.4545C14.766 23.4545 14.9541 23.3804 15.1061 23.232C15.2576 23.0842 15.3333 22.9008 15.3333 22.6818C15.3333 22.4629 15.2576 22.2795 15.1061 22.1316C14.9541 21.9833 14.766 21.9091 14.5417 21.9091C14.3174 21.9091 14.1292 21.9833 13.9772 22.1316C13.8257 22.2795 13.75 22.4629 13.75 22.6818C13.75 22.9008 13.8257 23.0842 13.9772 23.232C14.1292 23.3804 14.3174 23.4545 14.5417 23.4545Z" fill="white"/>
</svg>
