<svg width="26" height="24" viewBox="0 0 26 24" fill="none" xmlns="http://www.w3.org/2000/svg">
    <path d="M10.8235 4.763C10.0352 4.763 9.27926 5.06798 8.72188 5.61085C8.1645 6.15372 7.85136 6.89001 7.85136 7.65774C7.85136 8.42547 8.1645 9.16176 8.72188 9.70463C9.27926 10.2475 10.0352 10.5525 10.8235 10.5525C11.6118 10.5525 12.3677 10.2475 12.9251 9.70463C13.4825 9.16176 13.7956 8.42547 13.7956 7.65774C13.7956 6.89001 13.4825 6.15372 12.9251 5.61085C12.3677 5.06798 11.6118 4.763 10.8235 4.763ZM9.33743 7.65774C9.33743 7.27387 9.494 6.90573 9.77269 6.6343C10.0514 6.36286 10.4294 6.21037 10.8235 6.21037C11.2176 6.21037 11.5956 6.36286 11.8743 6.6343C12.153 6.90573 12.3096 7.27387 12.3096 7.65774C12.3096 8.04161 12.153 8.40975 11.8743 8.68118C11.5956 8.95262 11.2176 9.10511 10.8235 9.10511C10.4294 9.10511 10.0514 8.95262 9.77269 8.68118C9.494 8.40975 9.33743 8.04161 9.33743 7.65774ZM0.421021 2.59195C0.421021 2.01615 0.655872 1.46394 1.07391 1.05679C1.49195 0.649634 2.05893 0.420898 2.65012 0.420898H18.9969C19.5881 0.420898 20.155 0.649634 20.5731 1.05679C20.9911 1.46394 21.226 2.01615 21.226 2.59195V7.65774H19.7399V6.21037H18.2538C17.4656 6.21037 16.7096 5.90539 16.1522 5.36252C15.5948 4.81966 15.2817 4.08337 15.2817 3.31564V1.86827H6.36529V3.31564C6.36529 4.08337 6.05216 4.81966 5.49477 5.36252C4.93739 5.90539 4.18142 6.21037 3.39316 6.21037H1.90709V9.10511H3.39316C4.18142 9.10511 4.93739 9.41009 5.49477 9.95296C6.05216 10.4958 6.36529 11.2321 6.36529 11.9998V13.4472H13.7956V14.8946H2.65012C2.05893 14.8946 1.49195 14.6658 1.07391 14.2587C0.655872 13.8515 0.421021 13.2993 0.421021 12.7235V2.59195ZM2.65012 1.86827C2.45306 1.86827 2.26406 1.94451 2.12472 2.08023C1.98537 2.21595 1.90709 2.40002 1.90709 2.59195V4.763H3.39316C3.78729 4.763 4.16527 4.61051 4.44397 4.33908C4.72266 4.06765 4.87922 3.6995 4.87922 3.31564V1.86827H2.65012ZM18.9969 1.86827H16.7678V3.31564C16.7678 3.6995 16.9243 4.06765 17.203 4.33908C17.4817 4.61051 17.8597 4.763 18.2538 4.763H19.7399V2.59195C19.7399 2.40002 19.6616 2.21595 19.5223 2.08023C19.3829 1.94451 19.1939 1.86827 18.9969 1.86827ZM2.65012 13.4472H4.87922V11.9998C4.87922 11.616 4.72266 11.2478 4.44397 10.9764C4.16527 10.705 3.78729 10.5525 3.39316 10.5525H1.90709V12.7235C1.90709 12.9155 1.98537 13.0995 2.12472 13.2353C2.26406 13.371 2.45306 13.4472 2.65012 13.4472ZM22.712 7.65774V3.43866C23.1468 3.58838 23.5232 3.86575 23.7894 4.23256C24.0556 4.59936 24.1984 5.03753 24.1981 5.48669V7.65774H22.712ZM13.7956 16.342V17.7893H5.62226C5.16109 17.7896 4.7112 17.6505 4.33459 17.3913C3.95798 17.132 3.67319 16.7654 3.51947 16.342H13.7956ZM17.5108 9.10511C16.9196 9.10511 16.3526 9.33384 15.9346 9.741C15.5166 10.1481 15.2817 10.7004 15.2817 11.2762V21.4077C15.2817 21.9835 15.5166 22.5358 15.9346 22.9429C16.3526 23.3501 16.9196 23.5788 17.5108 23.5788H23.4551C24.0463 23.5788 24.6133 23.3501 25.0313 22.9429C25.4493 22.5358 25.6842 21.9835 25.6842 21.4077V11.2762C25.6842 10.7004 25.4493 10.1481 25.0313 9.741C24.6133 9.33384 24.0463 9.10511 23.4551 9.10511H17.5108ZM17.5108 14.8946H18.9969C19.1939 14.8946 19.3829 14.9708 19.5223 15.1065C19.6616 15.2423 19.7399 15.4263 19.7399 15.6183C19.7399 15.8102 19.6616 15.9943 19.5223 16.13C19.3829 16.2657 19.1939 16.342 18.9969 16.342H17.5108C17.3137 16.342 17.1247 16.2657 16.9854 16.13C16.8461 15.9943 16.7678 15.8102 16.7678 15.6183C16.7678 15.4263 16.8461 15.2423 16.9854 15.1065C17.1247 14.9708 17.3137 14.8946 17.5108 14.8946ZM21.969 14.8946H23.4551C23.6521 14.8946 23.8411 14.9708 23.9805 15.1065C24.1198 15.2423 24.1981 15.4263 24.1981 15.6183C24.1981 15.8102 24.1198 15.9943 23.9805 16.13C23.8411 16.2657 23.6521 16.342 23.4551 16.342H21.969C21.7719 16.342 21.5829 16.2657 21.4436 16.13C21.3043 15.9943 21.226 15.8102 21.226 15.6183C21.226 15.4263 21.3043 15.2423 21.4436 15.1065C21.5829 14.9708 21.7719 14.8946 21.969 14.8946ZM17.5108 17.7893H18.9969C19.1939 17.7893 19.3829 17.8656 19.5223 18.0013C19.6616 18.137 19.7399 18.3211 19.7399 18.513C19.7399 18.7049 19.6616 18.889 19.5223 19.0247C19.3829 19.1604 19.1939 19.2367 18.9969 19.2367H17.5108C17.3137 19.2367 17.1247 19.1604 16.9854 19.0247C16.8461 18.889 16.7678 18.7049 16.7678 18.513C16.7678 18.3211 16.8461 18.137 16.9854 18.0013C17.1247 17.8656 17.3137 17.7893 17.5108 17.7893ZM21.969 17.7893H23.4551C23.6521 17.7893 23.8411 17.8656 23.9805 18.0013C24.1198 18.137 24.1981 18.3211 24.1981 18.513C24.1981 18.7049 24.1198 18.889 23.9805 19.0247C23.8411 19.1604 23.6521 19.2367 23.4551 19.2367H21.969C21.7719 19.2367 21.5829 19.1604 21.4436 19.0247C21.3043 18.889 21.226 18.7049 21.226 18.513C21.226 18.3211 21.3043 18.137 21.4436 18.0013C21.5829 17.8656 21.7719 17.7893 21.969 17.7893ZM17.5108 20.6841H18.9969C19.1939 20.6841 19.3829 20.7603 19.5223 20.896C19.6616 21.0317 19.7399 21.2158 19.7399 21.4077C19.7399 21.5997 19.6616 21.7837 19.5223 21.9195C19.3829 22.0552 19.1939 22.1314 18.9969 22.1314H17.5108C17.3137 22.1314 17.1247 22.0552 16.9854 21.9195C16.8461 21.7837 16.7678 21.5997 16.7678 21.4077C16.7678 21.2158 16.8461 21.0317 16.9854 20.896C17.1247 20.7603 17.3137 20.6841 17.5108 20.6841ZM21.969 20.6841H23.4551C23.6521 20.6841 23.8411 20.7603 23.9805 20.896C24.1198 21.0317 24.1981 21.2158 24.1981 21.4077C24.1981 21.5997 24.1198 21.7837 23.9805 21.9195C23.8411 22.0552 23.6521 22.1314 23.4551 22.1314H21.969C21.7719 22.1314 21.5829 22.0552 21.4436 21.9195C21.3043 21.7837 21.226 21.5997 21.226 21.4077C21.226 21.2158 21.3043 21.0317 21.4436 20.896C21.5829 20.7603 21.7719 20.6841 21.969 20.6841ZM16.7678 11.2762C16.7678 11.0842 16.8461 10.9002 16.9854 10.7644C17.1247 10.6287 17.3137 10.5525 17.5108 10.5525H23.4551C23.6521 10.5525 23.8411 10.6287 23.9805 10.7644C24.1198 10.9002 24.1981 11.0842 24.1981 11.2762V12.7235C24.1981 12.9155 24.1198 13.0995 23.9805 13.2353C23.8411 13.371 23.6521 13.4472 23.4551 13.4472H17.5108C17.3137 13.4472 17.1247 13.371 16.9854 13.2353C16.8461 13.0995 16.7678 12.9155 16.7678 12.7235V11.2762Z" fill="white"/>
</svg>
