<svg width="22" height="18" viewBox="0 0 22 18" fill="none" xmlns="http://www.w3.org/2000/svg">
    <path d="M6.89563 1.12637C7.04688 0.686954 6.82344 0.205352 6.39375 0.0506773C5.96406 -0.103998 5.49312 0.124499 5.34188 0.563917L4.97406 1.62555L4.63375 0.577978C4.48938 0.135045 4.02188 -0.103998 3.58875 0.0436466C3.15563 0.191291 2.92188 0.669377 3.06625 1.11231L3.35156 1.99114L2.40969 1.28808C2.04187 1.01388 1.52625 1.09825 1.25812 1.47439C0.99 1.85053 1.0725 2.37783 1.44031 2.65203L2.41313 3.37619H1.65C0.739062 3.37619 0 4.13199 0 5.06355V16.3126C0 17.2442 0.739062 18 1.65 18H6.89563C6.71 17.6696 6.6 17.2864 6.6 16.8751V9.00073C6.6 7.94964 7.30469 7.06729 8.25688 6.82122C8.31875 5.73147 8.84469 4.77529 9.63531 4.14605C9.33969 3.68202 8.83094 3.37619 8.25 3.37619H7.48688L8.45969 2.65203C8.8275 2.37783 8.91 1.85053 8.64188 1.47439C8.37375 1.09825 7.85812 1.01388 7.49031 1.28808L6.61719 1.93841L6.89563 1.12637ZM12.4953 6.52242L13.5128 7.87582H11.825C11.3678 7.87582 11 7.49968 11 7.03214C11 6.57163 11.3713 6.18846 11.8319 6.18846C12.0931 6.18846 12.3372 6.3115 12.4953 6.52242ZM9.35 7.03214C9.35 7.32743 9.39813 7.61217 9.49094 7.87582H9.35C8.43906 7.87582 7.7 8.63162 7.7 9.56318V12.3755H14.3V9.00073H15.4V12.3755H22V9.56318C22 8.63162 21.2609 7.87582 20.35 7.87582H20.2091C20.3019 7.61217 20.35 7.32743 20.35 7.03214C20.35 5.62952 19.2328 4.5011 17.8681 4.5011C17.0981 4.5011 16.3694 4.86669 15.8984 5.49242L14.85 6.8845L13.8016 5.49242C13.3306 4.86669 12.5984 4.5011 11.8319 4.5011C10.4672 4.5011 9.35 5.62952 9.35 7.03214ZM7.7 16.3126C7.7 17.2442 8.43906 18 9.35 18H14.3V13.5004H7.7V16.3126ZM15.4 18H20.35C21.2609 18 22 17.2442 22 16.3126V13.5004H15.4V18ZM18.7 7.03214C18.7 7.49968 18.3322 7.87582 17.875 7.87582H16.1872L17.2047 6.52242C17.3628 6.31501 17.6069 6.18846 17.8681 6.18846C18.3288 6.18846 18.7 6.57163 18.7 7.03214Z" fill="#FEFEFE"/>
</svg>
