<svg width="22" height="20" viewBox="0 0 22 20" fill="none" xmlns="http://www.w3.org/2000/svg">
    <path d="M15.9267 0.5C16.6999 0.5 17.4252 0.648355 18.1026 0.945064C18.7801 1.24177 19.3685 1.65152 19.868 2.17429C20.3675 2.69706 20.7644 3.30814 21.0587 4.00753C21.3529 4.70692 21.5 5.45575 21.5 6.25404C21.5 6.66378 21.4589 7.06999 21.3768 7.47267C21.2947 7.87535 21.1716 8.2639 21.0073 8.63832H16.2551L14.2845 6.51896L11 9.90993L6.40176 5.16258L3.1173 8.63832H0.992669C0.828446 8.2639 0.705279 7.87535 0.623167 7.47267C0.541056 7.06999 0.5 6.66378 0.5 6.25404C0.5 5.45575 0.643695 4.70692 0.931085 4.00753C1.21848 3.30814 1.61535 2.70059 2.1217 2.18489C2.62805 1.66918 3.21994 1.25943 3.89736 0.955661C4.57478 0.651887 5.3001 0.5 6.07331 0.5C6.81916 0.5 7.53079 0.644822 8.20821 0.934467C8.88563 1.22411 9.4912 1.64092 10.0249 2.18489L11 3.20218L11.9751 2.18489C12.502 1.64092 13.1041 1.22411 13.7815 0.934467C14.4589 0.644822 15.174 0.5 15.9267 0.5ZM14.9413 9.9947H20.176L20.0323 10.1642C19.9844 10.2208 19.933 10.2808 19.8783 10.3444L11 19.5L2.1217 10.3444C2.06696 10.2879 2.01564 10.2314 1.96774 10.1748C1.91984 10.1183 1.87195 10.0583 1.82405 9.9947H4.43109L6.40176 8.0449L11 12.7922L14.2845 9.40128L14.9413 9.9947Z" fill="#FEFEFE"/>
</svg>
