<svg width="19" height="22" viewBox="0 0 19 22" fill="none" xmlns="http://www.w3.org/2000/svg">
    <path fill-rule="evenodd" clip-rule="evenodd" d="M4.69482 4.88889V6.11111H3.09369C2.56789 6.11123 2.06122 6.31186 1.67365 6.67342C1.28609 7.03498 1.04576 7.53122 1.00009 8.06422L0.00794421 19.6753C-0.0173564 19.9706 0.0179321 20.268 0.111571 20.5487C0.20521 20.8294 0.355156 21.0872 0.551895 21.3057C0.748634 21.5243 0.987872 21.6989 1.25443 21.8184C1.52099 21.9379 1.80905 21.9998 2.10034 22H16.8985C17.1898 21.9999 17.478 21.9382 17.7447 21.8188C18.0114 21.6993 18.2508 21.5248 18.4477 21.3062C18.6446 21.0876 18.7946 20.8297 18.8883 20.549C18.982 20.2682 19.0174 19.9707 18.9921 19.6753L17.9999 8.06422C17.9542 7.53101 17.7137 7.0346 17.3259 6.67301C16.9381 6.31142 16.4311 6.11092 15.9051 6.11111H14.304V4.88889C14.304 3.59227 13.7978 2.34877 12.8968 1.43192C11.9957 0.515078 10.7737 0 9.4994 0C8.22514 0 7.00308 0.515078 6.10205 1.43192C5.20101 2.34877 4.69482 3.59227 4.69482 4.88889ZM9.4994 1.83333C8.70299 1.83333 7.9392 2.15526 7.37605 2.72828C6.81291 3.30131 6.49653 4.07851 6.49653 4.88889V6.11111H12.5023V4.88889C12.5023 4.07851 12.1859 3.30131 11.6227 2.72828C11.0596 2.15526 10.2958 1.83333 9.4994 1.83333ZM6.49653 11C6.49653 11.8104 6.81291 12.5876 7.37605 13.1606C7.9392 13.7336 8.70299 14.0556 9.4994 14.0556C10.2958 14.0556 11.0596 13.7336 11.6227 13.1606C12.1859 12.5876 12.5023 11.8104 12.5023 11V9.47222C12.5023 9.22911 12.5972 8.99595 12.7661 8.82404C12.9351 8.65213 13.1642 8.55556 13.4031 8.55556C13.642 8.55556 13.8712 8.65213 14.0401 8.82404C14.2091 8.99595 14.304 9.22911 14.304 9.47222V11C14.304 12.2966 13.7978 13.5401 12.8968 14.457C11.9957 15.3738 10.7737 15.8889 9.4994 15.8889C8.22514 15.8889 7.00308 15.3738 6.10205 14.457C5.20101 13.5401 4.69482 12.2966 4.69482 11V9.47222C4.69482 9.22911 4.78973 8.99595 4.95867 8.82404C5.12761 8.65213 5.35675 8.55556 5.59567 8.55556C5.8346 8.55556 6.06373 8.65213 6.23268 8.82404C6.40162 8.99595 6.49653 9.22911 6.49653 9.47222V11Z" fill="white"/>
</svg>
