<svg width="23" height="22" viewBox="0 0 23 22" fill="none" xmlns="http://www.w3.org/2000/svg">
    <path d="M18.7083 14.8182C17.5583 14.8182 16.5441 14.4602 15.6656 13.7443C14.7872 13.0284 14.2361 12.1136 14.0125 11H11.1615L10.0115 9.09091H14.0125C14.0924 8.74091 14.2003 8.40682 14.3364 8.08864C14.4719 7.77045 14.6514 7.46818 14.875 7.18182H8.8375L7.6875 5.27273H15.8812L14.8271 2.40909H11.0417V0.5H14.8271C15.2424 0.5 15.6097 0.615182 15.9292 0.845545C16.2486 1.07655 16.4802 1.38295 16.624 1.76477L17.9177 5.27273H18.7083C20.034 5.27273 21.1642 5.73791 22.0989 6.66827C23.033 7.59927 23.5 8.725 23.5 10.0455C23.5 11.3659 23.033 12.4913 22.0989 13.4217C21.1642 14.3527 20.034 14.8182 18.7083 14.8182ZM18.7083 12.9091C19.5069 12.9091 20.1858 12.6307 20.7448 12.0739C21.3038 11.517 21.5833 10.8409 21.5833 10.0455C21.5833 9.25 21.3038 8.57386 20.7448 8.01705C20.1858 7.46023 19.5069 7.18182 18.7083 7.18182H18.6365L19.5708 9.73523L17.75 10.3795L16.8396 7.87386C16.5201 8.14432 16.2726 8.47045 16.0969 8.85227C15.9212 9.23409 15.8333 9.63182 15.8333 10.0455C15.8333 10.8409 16.1128 11.517 16.6719 12.0739C17.2309 12.6307 17.9097 12.9091 18.7083 12.9091ZM7.20833 21.5C6.40972 21.5 5.7309 21.2216 5.17188 20.6648C4.61285 20.108 4.33333 19.4318 4.33333 18.6364H0.5V12.9091H2.41667V10.0455H0.5V8.13636H7.20833L10.0833 12.9091H12C12.5271 12.9091 12.9785 13.0959 13.3541 13.4694C13.7292 13.8436 13.9167 14.2932 13.9167 14.8182V16.7273C13.9167 17.2523 13.7292 17.7019 13.3541 18.076C12.9785 18.4496 12.5271 18.6364 12 18.6364H10.0833C10.0833 19.4318 9.80382 20.108 9.24479 20.6648C8.68576 21.2216 8.00694 21.5 7.20833 21.5ZM4.33333 12.9091H7.85521L6.13021 10.0455H4.33333V12.9091ZM7.20833 19.5909C7.47986 19.5909 7.70762 19.4993 7.89162 19.316C8.07499 19.1334 8.16667 18.9068 8.16667 18.6364C8.16667 18.3659 8.07499 18.1394 7.89162 17.9567C7.70762 17.7735 7.47986 17.6818 7.20833 17.6818C6.93681 17.6818 6.70904 17.7735 6.52504 17.9567C6.34168 18.1394 6.25 18.3659 6.25 18.6364C6.25 18.9068 6.34168 19.1334 6.52504 19.316C6.70904 19.4993 6.93681 19.5909 7.20833 19.5909Z" fill="#FEFEFE"/>
</svg>
