<svg width="28" height="28" viewBox="0 0 28 28" fill="none" xmlns="http://www.w3.org/2000/svg">
<path d="M14 5.16242C14.1555 5.16242 14.3014 5.18692 14.4375 5.23592C14.5736 5.28414 14.7 5.36659 14.8166 5.48325L22.5166 13.1833C22.75 13.4166 22.8666 13.6939 22.8666 14.0151C22.8666 14.3355 22.75 14.6124 22.5166 14.8458C22.2833 15.0791 22.0111 15.1958 21.7 15.1958C21.3889 15.1958 21.1166 15.0791 20.8833 14.8458L15.1666 9.12909L15.1666 22.1958C15.1666 22.5263 15.0546 22.7985 14.8306 23.0124C14.6074 23.2263 14.3305 23.3333 14 23.3333C13.6694 23.3333 13.3921 23.2216 13.1681 22.9984C12.9449 22.7744 12.8333 22.4971 12.8333 22.1666L12.8333 9.12909L7.11664 14.8458C6.88331 15.0791 6.61108 15.1958 6.29997 15.1958C5.98886 15.1958 5.71664 15.0791 5.48331 14.8458C5.24997 14.6124 5.13331 14.3355 5.13331 14.0151C5.13331 13.6939 5.24997 13.4166 5.48331 13.1833L13.1833 5.48325C13.3 5.36659 13.4264 5.28414 13.5625 5.23592C13.6986 5.18692 13.8444 5.16242 14 5.16242Z" fill="#44DB4A"/>
</svg>
