<svg width="40" height="40" viewBox="0 0 40 40" fill="none" xmlns="http://www.w3.org/2000/svg">
<rect width="40" height="40" rx="10" fill="#4B7FD6"/>
<g clip-path="url(#clip0_1599_6786)">
<path d="M25.707 23.707C25.7455 23.6685 25.7911 23.6379 25.8414 23.6171C25.8917 23.5962 25.9456 23.5855 26 23.5855C26.0544 23.5855 26.1083 23.5962 26.1586 23.6171C26.2089 23.6379 26.2545 23.6685 26.293 23.707C26.6406 24.0546 27.086 24.2879 27.5697 24.3757C28.0535 24.4634 28.5524 24.4014 29 24.198V28C29.2652 28 29.5196 28.1054 29.7071 28.2929C29.8946 28.4804 30 28.7348 30 29C30 29.2652 29.8946 29.5196 29.7071 29.7071C29.5196 29.8946 29.2652 30 29 30H11C10.7348 30 10.4804 29.8946 10.2929 29.7071C10.1054 29.5196 10 29.2652 10 29C10 28.7348 10.1054 28.4804 10.2929 28.2929C10.4804 28.1054 10.7348 28 11 28V24.198C11.89 24.603 12.975 24.439 13.707 23.708C13.7455 23.6695 13.7911 23.6389 13.8414 23.6181C13.8917 23.5972 13.9456 23.5865 14 23.5865C14.0544 23.5865 14.1083 23.5972 14.1586 23.6181C14.2089 23.6389 14.2545 23.6695 14.293 23.708C14.5172 23.9322 14.7833 24.11 15.0762 24.2313C15.3691 24.3526 15.683 24.4151 16 24.4151C16.317 24.4151 16.6309 24.3526 16.9238 24.2313C17.2167 24.11 17.4828 23.9322 17.707 23.708C17.7455 23.6695 17.7911 23.6389 17.8414 23.6181C17.8917 23.5972 17.9456 23.5865 18 23.5865C18.0544 23.5865 18.1083 23.5972 18.1586 23.6181C18.2089 23.6389 18.2545 23.6695 18.293 23.708C18.5172 23.9322 18.7833 24.11 19.0762 24.2313C19.3691 24.3526 19.683 24.4151 20 24.4151C20.317 24.4151 20.6309 24.3526 20.9238 24.2313C21.2167 24.11 21.4828 23.9322 21.707 23.708C21.7455 23.6695 21.7911 23.6389 21.8414 23.6181C21.8917 23.5972 21.9456 23.5865 22 23.5865C22.0544 23.5865 22.1083 23.5972 22.1586 23.6181C22.2089 23.6389 22.2545 23.6695 22.293 23.708C22.5172 23.9322 22.7833 24.11 23.0762 24.2313C23.3691 24.3526 23.683 24.4151 24 24.4151C24.317 24.4151 24.6309 24.3526 24.9238 24.2313C25.2167 24.11 25.4828 23.9322 25.707 23.708V23.707ZM24 14C24.2652 14 24.5196 14.1054 24.7071 14.2929C24.8946 14.4804 25 14.7348 25 15V17H26C26.7956 17 27.5587 17.3161 28.1213 17.8787C28.6839 18.4413 29 19.2044 29 20V21.586L28.293 22.293C28.2545 22.3315 28.2089 22.3621 28.1586 22.3829C28.1083 22.4038 28.0544 22.4145 28 22.4145C27.9456 22.4145 27.8917 22.4038 27.8414 22.3829C27.7911 22.3621 27.7455 22.3315 27.707 22.293C27.4828 22.0688 27.2167 21.891 26.9238 21.7697C26.6309 21.6484 26.317 21.5859 26 21.5859C25.683 21.5859 25.3691 21.6484 25.0762 21.7697C24.7833 21.891 24.5172 22.0688 24.293 22.293C24.2545 22.3315 24.2089 22.3621 24.1586 22.3829C24.1083 22.4038 24.0544 22.4145 24 22.4145C23.9456 22.4145 23.8917 22.4038 23.8414 22.3829C23.7911 22.3621 23.7455 22.3315 23.707 22.293C23.4828 22.0688 23.2167 21.891 22.9238 21.7697C22.6309 21.6484 22.317 21.5859 22 21.5859C21.683 21.5859 21.3691 21.6484 21.0762 21.7697C20.7833 21.891 20.5172 22.0688 20.293 22.293C20.2545 22.3315 20.2089 22.3621 20.1586 22.3829C20.1083 22.4038 20.0544 22.4145 20 22.4145C19.9456 22.4145 19.8917 22.4038 19.8414 22.3829C19.7911 22.3621 19.7455 22.3315 19.707 22.293C19.4828 22.0688 19.2167 21.891 18.9238 21.7697C18.6309 21.6484 18.317 21.5859 18 21.5859C17.683 21.5859 17.3691 21.6484 17.0762 21.7697C16.7833 21.891 16.5172 22.0688 16.293 22.293C16.2545 22.3315 16.2089 22.3621 16.1586 22.3829C16.1083 22.4038 16.0544 22.4145 16 22.4145C15.9456 22.4145 15.8917 22.4038 15.8414 22.3829C15.7911 22.3621 15.7455 22.3315 15.707 22.293C15.4828 22.0688 15.2167 21.891 14.9238 21.7697C14.6309 21.6484 14.317 21.5859 14 21.5859C13.683 21.5859 13.3691 21.6484 13.0762 21.7697C12.7833 21.891 12.5172 22.0688 12.293 22.293C12.2545 22.3315 12.2089 22.3621 12.1586 22.3829C12.1083 22.4038 12.0544 22.4145 12 22.4145C11.9456 22.4145 11.8917 22.4038 11.8414 22.3829C11.7911 22.3621 11.7455 22.3315 11.707 22.293L11 21.586V20C11 19.2044 11.3161 18.4413 11.8787 17.8787C12.4413 17.3161 13.2044 17 14 17H15V15C15 14.7348 15.1054 14.4804 15.2929 14.2929C15.4804 14.1054 15.7348 14 16 14C16.2652 14 16.5196 14.1054 16.7071 14.2929C16.8946 14.4804 17 14.7348 17 15V17H19V15C19 14.7348 19.1054 14.4804 19.2929 14.2929C19.4804 14.1054 19.7348 14 20 14C20.2652 14 20.5196 14.1054 20.7071 14.2929C20.8946 14.4804 21 14.7348 21 15V17H23V15C23 14.7348 23.1054 14.4804 23.2929 14.2929C23.4804 14.1054 23.7348 14 24 14ZM20.5 10C20.181 10.638 20.472 11.05 20.725 11.41C20.869 11.613 21 11.8 21 12C21 12.2652 20.8946 12.5196 20.7071 12.7071C20.5196 12.8946 20.2652 13 20 13C19.7348 13 19.4804 12.8946 19.2929 12.7071C19.1054 12.5196 19 12.2652 19 12C19 11.448 19.5 10.5 20.5 10ZM16.5 10C16.181 10.638 16.472 11.05 16.725 11.41C16.869 11.613 17 11.8 17 12C17 12.2652 16.8946 12.5196 16.7071 12.7071C16.5196 12.8946 16.2652 13 16 13C15.7348 13 15.4804 12.8946 15.2929 12.7071C15.1054 12.5196 15 12.2652 15 12C15 11.448 15.5 10.5 16.5 10ZM24.5 10C24.181 10.638 24.472 11.05 24.725 11.41C24.869 11.613 25 11.8 25 12C25 12.2652 24.8946 12.5196 24.7071 12.7071C24.5196 12.8946 24.2652 13 24 13C23.7348 13 23.4804 12.8946 23.2929 12.7071C23.1054 12.5196 23 12.2652 23 12C23 11.448 23.5 10.5 24.5 10Z" fill="#FEFEFE"/>
</g>
<defs>
<clipPath id="clip0_1599_6786">
<rect width="24" height="24" fill="white" transform="translate(8 8)"/>
</clipPath>
</defs>
</svg>
