<svg width="16" height="16" viewBox="0 0 16 16" fill="none" xmlns="http://www.w3.org/2000/svg">
<path d="M14.4 2.6C14.4 1.91044 14.1261 1.24912 13.6385 0.761522C13.1509 0.273928 12.4896 0 11.8 0H2.6C1.91044 0 1.24912 0.273928 0.761522 0.761522C0.273928 1.24912 0 1.91044 0 2.6V11.8C0 12.4896 0.273928 13.1509 0.761522 13.6385C1.24912 14.1261 1.91044 14.4 2.6 14.4H7.2176C6.97783 14.026 6.78719 13.6227 6.6504 13.2H2.6C2.2287 13.2 1.8726 13.0525 1.61005 12.7899C1.3475 12.5274 1.2 12.1713 1.2 11.8V4.4H13.2V6.6504C13.6227 6.78719 14.026 6.97783 14.4 7.2176V2.6ZM2.6 1.2H11.8C12.5728 1.2 13.2 1.8272 13.2 2.6V3.2H1.2V2.6C1.2 1.8272 1.8272 1.2 2.6 1.2ZM16 11.6C16 10.433 15.5364 9.31389 14.7113 8.48873C13.8861 7.66357 12.767 7.2 11.6 7.2C10.433 7.2 9.31389 7.66357 8.48873 8.48873C7.66357 9.31389 7.2 10.433 7.2 11.6C7.2 12.767 7.66357 13.8861 8.48873 14.7113C9.31389 15.5364 10.433 16 11.6 16C12.767 16 13.8861 15.5364 14.7113 14.7113C15.5364 13.8861 16 12.767 16 11.6ZM11.6 11.6H13.2C13.3061 11.6 13.4078 11.6421 13.4828 11.7172C13.5579 11.7922 13.6 11.8939 13.6 12C13.6 12.1061 13.5579 12.2078 13.4828 12.2828C13.4078 12.3579 13.3061 12.4 13.2 12.4H11.2C11.0951 12.4 10.9945 12.3589 10.9197 12.2854C10.8449 12.2119 10.8019 12.112 10.8 12.0072V9.5992C10.8 9.49311 10.8421 9.39137 10.9172 9.31636C10.9922 9.24134 11.0939 9.1992 11.2 9.1992C11.3061 9.1992 11.4078 9.24134 11.4828 9.31636C11.5579 9.39137 11.6 9.49311 11.6 9.5992V11.6Z" fill="#F3737E"/>
</svg>
