<svg width="40" height="40" viewBox="0 0 40 40" fill="none" xmlns="http://www.w3.org/2000/svg">
<rect width="40" height="40" rx="10" fill="#4B7FD6"/>
<path d="M17.0109 21.086C17.0109 22.2871 16.0381 23.2599 14.837 23.2599C13.6359 23.2599 12.6631 22.2871 12.6631 21.086C12.6631 19.8849 13.6359 18.9121 14.837 18.9121C16.0381 18.9121 17.0109 19.8849 17.0109 21.086Z" fill="#FEFEFE"/>
<path fill-rule="evenodd" clip-rule="evenodd" d="M14.837 22.173C15.1253 22.173 15.4017 22.0585 15.6056 21.8546C15.8094 21.6508 15.924 21.3743 15.924 21.086C15.924 20.7977 15.8094 20.5213 15.6056 20.3174C15.4017 20.1136 15.1253 19.9991 14.837 19.9991C14.5487 19.9991 14.2722 20.1136 14.0684 20.3174C13.8646 20.5213 13.75 20.7977 13.75 21.086C13.75 21.3743 13.8646 21.6508 14.0684 21.8546C14.2722 22.0585 14.5487 22.173 14.837 22.173ZM14.837 23.2599C16.0381 23.2599 17.0109 22.2871 17.0109 21.086C17.0109 19.8849 16.0381 18.9121 14.837 18.9121C13.6359 18.9121 12.6631 19.8849 12.6631 21.086C12.6631 22.2871 13.6359 23.2599 14.837 23.2599Z" fill="#FEFEFE"/>
<path d="M10.2174 26.8178C10.2174 25.1754 13.2951 24.3477 14.837 24.3477C16.3788 24.3477 19.4565 25.1754 19.4565 26.8178V29.7824H10.2174V26.8178Z" fill="#FEFEFE"/>
<path fill-rule="evenodd" clip-rule="evenodd" d="M11.4859 26.5123C11.3141 26.6819 11.3044 26.7792 11.3044 26.8183V28.6955H18.3696V26.8178C18.3696 26.7797 18.3598 26.6819 18.1881 26.5123C18.0065 26.3335 17.7071 26.1417 17.2968 25.9661C16.4707 25.6123 15.462 25.4346 14.837 25.4346C14.212 25.4346 13.2027 25.6123 12.3772 25.9661C11.9669 26.1417 11.6674 26.3335 11.4859 26.5123ZM14.837 24.3477C13.2951 24.3477 10.2174 25.1754 10.2174 26.8178V29.7824H19.4565V26.8178C19.4565 25.1754 16.3788 24.3477 14.837 24.3477Z" fill="#FEFEFE"/>
<path d="M27.337 21.086C27.337 22.2871 26.3641 23.2599 25.163 23.2599C23.962 23.2599 22.9891 22.2871 22.9891 21.086C22.9891 19.8849 23.962 18.9121 25.163 18.9121C26.3641 18.9121 27.337 19.8849 27.337 21.086Z" fill="#FEFEFE"/>
<path fill-rule="evenodd" clip-rule="evenodd" d="M25.163 22.173C25.4513 22.173 25.7278 22.0585 25.9316 21.8546C26.1355 21.6508 26.25 21.3743 26.25 21.086C26.25 20.7977 26.1355 20.5213 25.9316 20.3174C25.7278 20.1136 25.4513 19.9991 25.163 19.9991C24.8748 19.9991 24.5983 20.1136 24.3945 20.3174C24.1906 20.5213 24.0761 20.7977 24.0761 21.086C24.0761 21.3743 24.1906 21.6508 24.3945 21.8546C24.5983 22.0585 24.8748 22.173 25.163 22.173ZM25.163 23.2599C26.3641 23.2599 27.337 22.2871 27.337 21.086C27.337 19.8849 26.3641 18.9121 25.163 18.9121C23.962 18.9121 22.9891 19.8849 22.9891 21.086C22.9891 22.2871 23.962 23.2599 25.163 23.2599Z" fill="#FEFEFE"/>
<path d="M22.1739 19.9991C22.1739 21.2002 21.2011 22.173 20 22.173C18.7989 22.173 17.8261 21.2002 17.8261 19.9991C17.8261 18.798 18.7989 17.8252 20 17.8252C21.2011 17.8252 22.1739 18.798 22.1739 19.9991Z" fill="#FEFEFE"/>
<path fill-rule="evenodd" clip-rule="evenodd" d="M20 21.0861C20.2883 21.0861 20.5648 20.9715 20.7686 20.7677C20.9725 20.5639 21.087 20.2874 21.087 19.9991C21.087 19.7108 20.9725 19.4344 20.7686 19.2305C20.5648 19.0267 20.2883 18.9122 20 18.9122C19.7117 18.9122 19.4353 19.0267 19.2314 19.2305C19.0276 19.4344 18.9131 19.7108 18.9131 19.9991C18.9131 20.2874 19.0276 20.5639 19.2314 20.7677C19.4353 20.9715 19.7117 21.0861 20 21.0861ZM20 22.173C21.2011 22.173 22.1739 21.2002 22.1739 19.9991C22.1739 18.798 21.2011 17.8252 20 17.8252C18.7989 17.8252 17.8261 18.798 17.8261 19.9991C17.8261 21.2002 18.7989 22.173 20 22.173Z" fill="#FEFEFE"/>
<path d="M19.4566 13.9304C19.4566 13.2338 19.1798 12.5657 18.6872 12.0731C18.1946 11.5805 17.5265 11.3038 16.8299 11.3038H15.1076C14.395 11.3026 13.7104 11.5816 13.2016 12.0805C12.6927 12.5794 12.4003 13.2583 12.3874 13.9709C12.3745 14.6834 12.6421 15.3725 13.1326 15.8895C13.623 16.4065 14.2971 16.7101 15.0093 16.7347L15.1087 16.7385V17.8255C15.1087 17.8255 19.4566 17.1913 19.4566 13.9304ZM21.087 13.0624C21.087 12.3077 21.3868 11.5839 21.9205 11.0503C22.4541 10.5166 23.1779 10.2168 23.9326 10.2168H27.0652C27.7859 10.2168 28.4771 10.5031 28.9867 11.0127C29.4963 11.5223 29.7826 12.2135 29.7826 12.9342C29.7826 13.6549 29.4963 14.3461 28.9867 14.8557C28.4771 15.3653 27.7859 15.6516 27.0652 15.6516H25.9783V17.282C25.9783 17.282 21.087 16.5951 21.087 13.0624ZM20.5435 26.8173C20.5435 25.1749 23.6212 24.3472 25.1631 24.3472C26.7049 24.3472 29.7826 25.1749 29.7826 26.8173V29.782H20.5435V26.8173Z" fill="#FEFEFE"/>
<path fill-rule="evenodd" clip-rule="evenodd" d="M21.812 26.5124C21.6402 26.6819 21.6304 26.7792 21.6304 26.8184V28.6955H28.6956V26.8178C28.6956 26.7798 28.6859 26.6819 28.5141 26.5124C28.3326 26.3336 28.0331 26.1417 27.6228 25.9662C26.7967 25.6124 25.788 25.4347 25.163 25.4347C24.538 25.4347 23.5288 25.6124 22.7033 25.9662C22.2929 26.1417 21.9935 26.3336 21.812 26.5124ZM25.163 24.3477C23.6212 24.3477 20.5435 25.1754 20.5435 26.8178V29.7825H29.7826V26.8178C29.7826 25.1754 26.7049 24.3477 25.163 24.3477ZM20 25.9781V25.7309C20 24.8194 18.9962 24.1586 17.8234 23.751C18.504 23.4293 19.2472 23.262 20 23.2607C20.7528 23.262 21.496 23.4293 22.1766 23.751C21.0043 24.1586 20 24.8194 20 25.7309V25.9781Z" fill="#FEFEFE"/>
<path fill-rule="evenodd" clip-rule="evenodd" d="M20 25.9781V25.7309C20 25.2455 20.2848 24.8309 20.7283 24.4879C20.7537 24.4685 20.7794 24.4495 20.8054 24.4309C21.1837 24.1559 21.6641 23.9292 22.1766 23.7515C21.6676 23.5115 21.1227 23.3564 20.5636 23.2923C20.1892 23.2502 19.8113 23.2502 19.437 23.2923C18.8777 23.3561 18.3326 23.5111 17.8234 23.751C18.3359 23.9292 18.8163 24.1559 19.1951 24.4303C19.2212 24.4493 19.2462 24.4684 19.2712 24.4879C19.7152 24.8303 20 25.2455 20 25.7309V25.9781Z" fill="#FEFEFE"/>
</svg>
