<svg width="24" height="24" viewBox="0 0 24 24" fill="none" xmlns="http://www.w3.org/2000/svg">
<g id="game-icons:take-my-money">
<path id="Vector" d="M10.5851 1.51505C10.3997 1.51439 10.2137 1.51458 10.0273 1.51537C9.12974 1.51955 8.21788 1.54312 7.29824 1.57725L7.5643 2.74411C8.52201 2.63583 9.57196 2.5552 10.6218 2.51489C11.1906 2.49305 11.7559 2.48151 12.3043 2.48442C13.9493 2.493 15.4419 2.63114 16.4185 3.00951L16.836 3.17142L16.6496 3.57853C15.2874 6.55439 14.9723 9.42534 15.1858 12.2422C15.2912 8.89922 16.6808 5.92584 18.505 2.11406C16.0227 1.70156 13.3659 1.52428 10.5851 1.515V1.51505ZM11.8992 3.33333C11.4895 3.33366 11.0718 3.34195 10.6542 3.35798C8.70084 3.43298 6.75426 3.6622 5.48559 3.92498C6.90276 6.55369 8.04918 9.18844 8.78948 11.757C8.88156 11.7539 8.97373 11.7546 9.06576 11.7591C9.2541 11.7683 9.44038 11.7938 9.6224 11.8336C8.86888 9.42436 8.0106 7.20234 6.94368 4.9837L6.7026 4.48242L7.25038 4.38548C8.62645 4.14183 10.0468 4.04751 11.3985 4.04709C11.4886 4.04709 11.5785 4.04742 11.668 4.04822C12.5269 4.05572 13.3547 4.10016 14.1217 4.16705L14.6399 4.21228L14.4887 4.70995C13.6122 7.59572 13.4405 10.6949 13.9361 13.6435C13.9443 13.6511 13.9527 13.6587 13.9607 13.6665C14.1395 13.6038 14.3067 13.54 14.4625 13.4717C14.0756 10.3126 14.247 7.05347 15.692 3.66544C14.8857 3.45998 13.6565 3.35259 12.3058 3.33572C12.1703 3.33404 12.0347 3.33326 11.8992 3.33337V3.33333ZM18.6935 3.6795C17.2424 6.75244 16.2118 9.21497 16.0428 11.8734C16.9821 8.74205 18.7976 5.93503 20.8664 4.13161C20.1483 3.95248 19.4234 3.80166 18.6935 3.6795ZM4.86716 4.54805C3.98779 4.72936 3.12876 4.95951 2.29785 5.27751C2.7022 5.62814 3.43316 6.28041 4.32004 7.14731C4.72823 6.72717 5.14452 6.31209 5.57873 5.93466C5.34875 5.46879 5.11154 5.00653 4.86716 4.54805ZM11.5245 4.89876C10.8861 4.89567 10.2325 4.91395 9.57665 4.95937C9.50784 5.60072 9.12852 6.20072 8.67548 6.79078C9.39881 8.50027 10.0235 10.2447 10.5859 12.0967C11.4472 12.3508 12.2994 12.6511 12.9897 13.011C12.7333 11.0208 12.7683 8.98148 13.1012 6.98719C12.4972 6.36328 12.1826 5.67047 12.1574 4.90875C11.9465 4.90313 11.7355 4.8998 11.5245 4.89876ZM20.0566 6.16369C18.8974 7.53712 17.8759 9.2573 17.1799 11.1283C18.4579 9.31041 20.0294 7.89244 21.7022 6.89081C21.1572 6.64047 20.6086 6.39807 20.0566 6.16369ZM5.9594 6.72426C5.27531 7.34245 4.59937 8.08444 3.89545 8.79131C5.40899 9.69089 6.69815 10.7562 7.74979 11.9629C7.81509 11.9382 7.88104 11.916 7.94737 11.8958C7.45527 10.2038 6.78088 8.47242 5.9594 6.72426ZM16.8994 12.572C16.1308 13.4996 15.4072 13.9893 14.4108 14.38C14.5229 14.8122 14.3564 15.3083 13.9733 15.6878C13.7479 15.911 13.4647 16.1654 13.0506 16.3307C13.1103 16.3661 13.1713 16.3994 13.2334 16.4304C13.813 16.7197 14.8369 16.6264 15.7881 16.1938C16.7364 15.7625 17.5835 15.0176 17.8975 14.2629C18.0548 13.8387 17.9425 13.6175 17.667 13.293C17.4709 13.0621 17.1844 12.8294 16.8994 12.5721V12.572ZM8.92696 12.5995C8.4247 12.5949 7.9146 12.7398 7.49305 13.057C6.89352 13.5081 6.43134 14.3125 6.42721 15.6789V15.6883L6.42674 15.6976C6.28987 18.5749 6.50174 19.9023 6.92151 20.6226C7.29201 21.2583 7.90823 21.5626 8.80963 22.1223C8.85257 22.0095 8.89729 21.8708 8.93924 21.6958C9.04598 21.2505 9.13429 20.639 9.19026 19.9626C9.30224 18.6099 9.28588 16.9856 9.09862 15.8167L8.99966 15.1985L9.60979 15.3389C11.0917 15.6798 11.9395 15.72 12.4317 15.6332C12.9239 15.5463 13.0908 15.3743 13.3795 15.0884C13.6509 14.8197 13.6459 14.723 13.5884 14.5717C13.5309 14.4205 13.3002 14.1712 12.9087 13.9327C12.1258 13.4557 10.7954 13.0134 9.55181 12.6836C9.34785 12.6296 9.13794 12.6014 8.92696 12.5995ZM17.791 15.8534C17.3217 16.3106 16.7441 16.6859 16.1374 16.9618C15.1538 17.4091 14.072 17.6137 13.1744 17.3159C12.8575 17.4338 12.6734 17.5693 12.5806 17.6815C12.4532 17.8354 12.4452 17.9487 12.4884 18.1109C12.5315 18.273 12.6602 18.4656 12.8193 18.6042C12.9783 18.7427 13.1674 18.8147 13.2392 18.8181C15.4327 18.9223 16.382 18.2928 17.5647 17.5627C17.9096 17.3497 18.0416 16.9185 18.0086 16.4878C17.992 16.2724 17.9294 16.0701 17.857 15.9426C17.839 15.9101 17.8169 15.8801 17.791 15.8534ZM10.001 16.2797C10.1288 17.4548 10.1309 18.8257 10.0311 20.0322C9.97265 20.7387 9.88227 21.3812 9.75974 21.8925C9.70645 22.1149 9.64781 22.3122 9.57693 22.4858L16.4534 22.1828C16.3757 21.8946 16.2966 21.6051 16.2175 21.3155C15.9533 21.4035 15.6833 21.4727 15.4094 21.5229L15.4115 21.5571L15.0217 21.5814C14.7816 21.6102 14.5317 21.6261 14.2724 21.6279L10.3415 21.8721L10.4584 21.328C10.8309 19.5934 10.8652 18.066 10.6355 16.3952C10.4232 16.3608 10.2117 16.3223 10.001 16.2797H10.001ZM11.4997 16.4993C11.6848 17.9962 11.6625 19.4248 11.3869 20.9618L12.2899 20.9057C12.1483 20.6968 12.051 20.461 12.004 20.213C11.9432 19.8905 11.977 19.5315 12.188 19.2347C12.1973 19.2216 12.2074 19.209 12.2174 19.1962C11.9715 18.9691 11.7661 18.6777 11.673 18.3279C11.5739 17.9556 11.6358 17.4997 11.9307 17.1434C12.0281 17.0257 12.1459 16.9195 12.2842 16.8239C12.1619 16.7264 12.0546 16.623 11.962 16.5154C11.8184 16.5164 11.6646 16.511 11.4997 16.4993ZM17.7184 18.458C16.6189 19.1261 15.3836 19.7647 13.1992 19.661C13.1279 19.6575 13.057 19.6478 12.9874 19.6321C12.9296 19.6581 12.8988 19.691 12.8758 19.7234C12.8306 19.7869 12.8039 19.9015 12.8331 20.0568C12.8916 20.3675 13.1859 20.7079 13.4599 20.7397C15.3998 20.9654 16.7401 20.3307 17.554 19.5924C17.929 19.2522 17.9322 19.0346 17.8769 18.7978C17.8493 18.6795 17.7884 18.5649 17.7184 18.458ZM17.4051 20.7577C17.2749 20.8394 17.1413 20.9154 17.0045 20.9856C17.0819 21.2692 17.1594 21.5528 17.2359 21.8365L18.1697 21.6691C17.9287 21.4635 17.7402 21.2494 17.5889 21.0365C17.5213 20.9414 17.4617 20.8489 17.4051 20.7577Z" fill="#FEFEFE"/>
</g>
</svg>
