<svg width="24" height="24" viewBox="0 0 24 24" fill="none" xmlns="http://www.w3.org/2000/svg">
<path d="M18.2083 15.3182C17.0583 15.3182 16.0441 14.9602 15.1656 14.2443C14.2872 13.5284 13.7361 12.6136 13.5125 11.5H10.6615L9.51146 9.59091H13.5125C13.5924 9.24091 13.7003 8.90682 13.8364 8.58864C13.9719 8.27045 14.1514 7.96818 14.375 7.68182H8.3375L7.1875 5.77273H15.3812L14.3271 2.90909H10.5417V1H14.3271C14.7424 1 15.1097 1.11518 15.4292 1.34555C15.7486 1.57655 15.9802 1.88295 16.124 2.26477L17.4177 5.77273H18.2083C19.534 5.77273 20.6642 6.23791 21.5989 7.16827C22.533 8.09927 23 9.225 23 10.5455C23 11.8659 22.533 12.9913 21.5989 13.9217C20.6642 14.8527 19.534 15.3182 18.2083 15.3182ZM18.2083 13.4091C19.0069 13.4091 19.6858 13.1307 20.2448 12.5739C20.8038 12.017 21.0833 11.3409 21.0833 10.5455C21.0833 9.75 20.8038 9.07386 20.2448 8.51705C19.6858 7.96023 19.0069 7.68182 18.2083 7.68182H18.1365L19.0708 10.2352L17.25 10.8795L16.3396 8.37386C16.0201 8.64432 15.7726 8.97045 15.5969 9.35227C15.4212 9.73409 15.3333 10.1318 15.3333 10.5455C15.3333 11.3409 15.6128 12.017 16.1719 12.5739C16.7309 13.1307 17.4097 13.4091 18.2083 13.4091ZM6.70833 22C5.90972 22 5.2309 21.7216 4.67188 21.1648C4.11285 20.608 3.83333 19.9318 3.83333 19.1364H0V13.4091H1.91667V10.5455H0V8.63636H6.70833L9.58333 13.4091H11.5C12.0271 13.4091 12.4785 13.5959 12.8541 13.9694C13.2292 14.3436 13.4167 14.7932 13.4167 15.3182V17.2273C13.4167 17.7523 13.2292 18.2019 12.8541 18.576C12.4785 18.9496 12.0271 19.1364 11.5 19.1364H9.58333C9.58333 19.9318 9.30382 20.608 8.74479 21.1648C8.18576 21.7216 7.50694 22 6.70833 22ZM3.83333 13.4091H7.35521L5.63021 10.5455H3.83333V13.4091ZM6.70833 20.0909C6.97986 20.0909 7.20762 19.9993 7.39162 19.816C7.57499 19.6334 7.66667 19.4068 7.66667 19.1364C7.66667 18.8659 7.57499 18.6394 7.39162 18.4567C7.20762 18.2735 6.97986 18.1818 6.70833 18.1818C6.43681 18.1818 6.20904 18.2735 6.02504 18.4567C5.84168 18.6394 5.75 18.8659 5.75 19.1364C5.75 19.4068 5.84168 19.6334 6.02504 19.816C6.20904 19.9993 6.43681 20.0909 6.70833 20.0909Z" fill="#FEFEFE"/>
</svg>
