<svg width="40" height="40" viewBox="0 0 40 40" fill="none" xmlns="http://www.w3.org/2000/svg">
<rect width="40" height="40" rx="10" fill="#4B7FD6"/>
<path d="M15.152 12.383L15.167 12.374L15.236 12.3335C15.6647 12.0909 16.1098 11.8784 16.568 11.6975C17.465 11.345 18.68 11 20 11C21.32 11 22.535 11.345 23.4335 11.6975C23.8912 11.8784 24.3358 12.0909 24.764 12.3335C24.7955 12.3515 24.818 12.3635 24.8315 12.374L24.8465 12.383H24.848C25.0158 12.4851 25.217 12.5173 25.4082 12.4727C25.5995 12.4281 25.7657 12.3102 25.871 12.1444C25.9763 11.9786 26.0123 11.778 25.9714 11.5859C25.9304 11.3938 25.8158 11.2255 25.652 11.117H25.6505L25.6475 11.114L25.64 11.1095L25.613 11.093C25.4727 11.0091 25.3302 10.9291 25.1855 10.853C24.7948 10.6478 24.3932 10.464 23.9825 10.3025C22.9775 9.905 21.5675 9.5 20 9.5C18.431 9.5 17.0225 9.905 16.0175 10.3025C15.4879 10.5111 14.9736 10.7567 14.4785 11.0375C14.4478 11.0557 14.4173 11.0742 14.387 11.093L14.36 11.108L14.3525 11.114L14.3495 11.1155C14.1814 11.2219 14.0625 11.3907 14.0189 11.5848C13.9753 11.7789 14.0106 11.9824 14.117 12.1505C14.2234 12.3186 14.3922 12.4375 14.5863 12.4811C14.7804 12.5247 14.9839 12.4894 15.152 12.383ZM14 14C13.2044 14 12.4413 14.3161 11.8787 14.8787C11.3161 15.4413 11 16.2044 11 17V23C11 23.7956 11.3161 24.5587 11.8787 25.1213C12.4413 25.6839 13.2044 26 14 26H20C20.7956 26 21.5587 25.6839 22.1213 25.1213C22.6839 24.5587 23 23.7956 23 23V17C23 16.2044 22.6839 15.4413 22.1213 14.8787C21.5587 14.3161 20.7956 14 20 14H14ZM29 16.25C29 16.1107 28.9612 15.9742 28.888 15.8557C28.8148 15.7372 28.71 15.6415 28.5854 15.5792C28.4608 15.5169 28.3214 15.4905 28.1826 15.503C28.0439 15.5155 27.9114 15.5664 27.8 15.65L24.8 17.9C24.7069 17.9699 24.6313 18.0604 24.5792 18.1646C24.5271 18.2687 24.5 18.3836 24.5 18.5V21.5C24.5 21.6164 24.5271 21.7313 24.5792 21.8354C24.6313 21.9396 24.7069 22.0301 24.8 22.1L27.8 24.35C27.9114 24.4336 28.0439 24.4845 28.1826 24.497C28.3214 24.5095 28.4608 24.4831 28.5854 24.4208C28.71 24.3585 28.8148 24.2628 28.888 24.1443C28.9612 24.0258 29 23.8893 29 23.75V16.25ZM15.1535 27.6185L15.152 27.617C14.9842 27.5149 14.783 27.4827 14.5918 27.5273C14.4005 27.5719 14.2343 27.6898 14.129 27.8556C14.0237 28.0214 13.9877 28.222 14.0286 28.4141C14.0696 28.6062 14.1842 28.7745 14.348 28.883H14.3495L14.3525 28.886L14.36 28.8905L14.387 28.907C14.408 28.922 14.4395 28.9385 14.4785 28.9625C14.558 29.0075 14.6705 29.072 14.8145 29.1485C15.101 29.2985 15.512 29.498 16.0175 29.6975C17.0225 30.0935 18.4325 30.5 20 30.5C21.569 30.5 22.9775 30.095 23.9825 29.6975C24.5121 29.4889 25.0264 29.2433 25.5215 28.9625L25.613 28.907L25.64 28.892L25.6475 28.886L25.6505 28.8845H25.652C25.8201 28.7779 25.9389 28.6089 25.9824 28.4146C26.0258 28.2204 25.9904 28.0168 25.8837 27.8488C25.7771 27.6807 25.6081 27.5618 25.4139 27.5184C25.2196 27.4749 25.0161 27.5104 24.848 27.617L24.833 27.6275L24.764 27.6665C24.3353 27.9091 23.8902 28.1216 23.432 28.3025C22.535 28.655 21.32 29 20 29C18.68 29 17.465 28.655 16.5665 28.3025C16.1088 28.1215 15.6643 27.909 15.236 27.6665C15.2134 27.6532 15.1909 27.6397 15.1685 27.626L15.1535 27.6185Z" fill="#FEFEFE"/>
</svg>
