<svg width="40" height="40" viewBox="0 0 40 40" fill="none" xmlns="http://www.w3.org/2000/svg">
<rect width="40" height="40" rx="10" fill="#4B7FD6"/>
<path d="M25.25 20.75L26.9225 23.99L30.5 24.5L27.875 26.8752L29 30.5L25.25 28.406L21.5 30.5L22.625 26.8752L20 24.5L23.675 23.99L25.25 20.75Z" fill="#FEFEFE"/>
<path d="M26.75 11.75H24.5V11C24.4988 10.6025 24.3404 10.2217 24.0593 9.94065C23.7783 9.6596 23.3975 9.50119 23 9.5H17C16.6025 9.50119 16.2217 9.6596 15.9407 9.94065C15.6596 10.2217 15.5012 10.6025 15.5 11V11.75H13.25C12.8525 11.7512 12.4717 11.9096 12.1907 12.1907C11.9096 12.4717 11.7512 12.8525 11.75 13.25V29C11.7512 29.3975 11.9096 29.7783 12.1907 30.0593C12.4717 30.3404 12.8525 30.4988 13.25 30.5H18.5V29H13.25V13.25H15.5V15.5H24.5V13.25H26.75V18.5H28.25V13.25C28.2488 12.8525 28.0904 12.4717 27.8093 12.1907C27.5283 11.9096 27.1475 11.7512 26.75 11.75ZM23 14H17V11H23V14Z" fill="#FEFEFE"/>
</svg>
