<svg width="28" height="27" viewBox="0 0 28 27" fill="none" xmlns="http://www.w3.org/2000/svg">
<g id="Vector" filter="url(#filter0_d_1588_6398)">
<path d="M23.4607 8.61727C23.685 8.45098 23.8513 8.21899 23.9364 7.95385C24.0216 7.6887 24.0212 7.40368 23.9353 7.13877C23.8495 6.87385 23.6825 6.64231 23.4578 6.47662C23.2332 6.31093 22.962 6.21939 22.6824 6.21485L17.2521 6.01064C17.2254 6.00881 17.1998 5.99933 17.1784 5.98334C17.157 5.96736 17.1407 5.94555 17.1315 5.92055L15.255 0.875473C15.1607 0.618798 14.9895 0.397161 14.7645 0.240571C14.5395 0.0839804 14.2715 0 13.997 0C13.7224 0 13.4545 0.0839804 13.2295 0.240571C13.0045 0.397161 12.8332 0.618798 12.739 0.875473L10.8685 5.93857C10.8593 5.96357 10.843 5.98538 10.8216 6.00136C10.8002 6.01735 10.7746 6.02683 10.7479 6.02866L5.31759 6.23287C5.038 6.23741 4.76684 6.32895 4.54215 6.49464C4.31745 6.66033 4.15048 6.89187 4.06465 7.15678C3.97883 7.4217 3.97844 7.70672 4.06355 7.97186C4.14867 8.23701 4.31501 8.46899 4.53925 8.63529L8.799 11.9686C8.82032 11.9853 8.83626 12.0079 8.84484 12.0335C8.85341 12.0591 8.85426 12.0867 8.84727 12.1128L7.3811 17.284C7.30512 17.5473 7.31248 17.8276 7.40218 18.0866C7.49188 18.3456 7.65955 18.5708 7.8824 18.7316C8.10525 18.8924 8.37245 18.981 8.64765 18.9852C8.92285 18.9895 9.19269 18.9093 9.42047 18.7555L13.9216 15.7525C13.9437 15.7372 13.97 15.7291 13.997 15.7291C14.0239 15.7291 14.0502 15.7372 14.0724 15.7525L18.5735 18.7555C18.7982 18.9145 19.0671 19 19.3428 19C19.6185 19 19.8874 18.9145 20.1121 18.7555C20.335 18.5962 20.5028 18.3721 20.5925 18.1139C20.6822 17.8558 20.6893 17.5763 20.6129 17.314L19.1346 12.1248C19.1268 12.0987 19.1272 12.0709 19.1359 12.0451C19.1445 12.0193 19.1609 11.9968 19.1829 11.9807L23.4607 8.61727Z" fill="url(#paint0_linear_1588_6398)"/>
</g>
<defs>
<filter id="filter0_d_1588_6398" x="0" y="0" width="28" height="27" filterUnits="userSpaceOnUse" color-interpolation-filters="sRGB">
<feFlood flood-opacity="0" result="BackgroundImageFix"/>
<feColorMatrix in="SourceAlpha" type="matrix" values="0 0 0 0 0 0 0 0 0 0 0 0 0 0 0 0 0 0 127 0" result="hardAlpha"/>
<feOffset dy="4"/>
<feGaussianBlur stdDeviation="2"/>
<feComposite in2="hardAlpha" operator="out"/>
<feColorMatrix type="matrix" values="0 0 0 0 0 0 0 0 0 0 0 0 0 0 0 0 0 0 0.3 0"/>
<feBlend mode="normal" in2="BackgroundImageFix" result="effect1_dropShadow_1588_6398"/>
<feBlend mode="normal" in="SourceGraphic" in2="effect1_dropShadow_1588_6398" result="shape"/>
</filter>
<linearGradient id="paint0_linear_1588_6398" x1="14" y1="0" x2="14" y2="19" gradientUnits="userSpaceOnUse">
<stop stop-color="#A343EF"/>
<stop offset="0.515625" stop-color="#BA72F3"/>
<stop offset="1" stop-color="#A343EF"/>
</linearGradient>
</defs>
</svg>
