<svg width="37" height="26" viewBox="0 0 37 26" fill="none" xmlns="http://www.w3.org/2000/svg">
<path fill-rule="evenodd" clip-rule="evenodd" d="M10 2C4.47715 2 0 6.47715 0 12C0 17.5228 4.47715 22 10 22H25C30.5228 22 35 17.5228 35 12C35 6.47715 30.5228 2 25 2H10Z" fill="#4B7FD6"/>
<g filter="url(#filter0_dddd_1599_6927)">
<path fill-rule="evenodd" clip-rule="evenodd" d="M24.3627 21.0323C29.669 21.0323 33.9706 16.9884 33.9706 12C33.9706 7.01165 29.669 2.96777 24.3627 2.96777C19.0565 2.96777 14.7549 7.01165 14.7549 12C14.7549 16.9884 19.0565 21.0323 24.3627 21.0323Z" fill="white"/>
</g>
<defs>
<filter id="filter0_dddd_1599_6927" x="12.712" y="0.924906" width="23.3013" height="24.1931" filterUnits="userSpaceOnUse" color-interpolation-filters="sRGB">
<feFlood flood-opacity="0" result="BackgroundImageFix"/>
<feColorMatrix in="SourceAlpha" type="matrix" values="0 0 0 0 0 0 0 0 0 0 0 0 0 0 0 0 0 0 127 0" result="hardAlpha"/>
<feOffset dy="2.04287"/>
<feGaussianBlur stdDeviation="1.02143"/>
<feColorMatrix type="matrix" values="0 0 0 0 0 0 0 0 0 0 0 0 0 0 0 0 0 0 0.05 0"/>
<feBlend mode="normal" in2="BackgroundImageFix" result="effect1_dropShadow_1599_6927"/>
<feColorMatrix in="SourceAlpha" type="matrix" values="0 0 0 0 0 0 0 0 0 0 0 0 0 0 0 0 0 0 127 0" result="hardAlpha"/>
<feOffset dy="1.36191"/>
<feGaussianBlur stdDeviation="0.680956"/>
<feColorMatrix type="matrix" values="0 0 0 0 0 0 0 0 0 0 0 0 0 0 0 0 0 0 0.1 0"/>
<feBlend mode="normal" in2="effect1_dropShadow_1599_6927" result="effect2_dropShadow_1599_6927"/>
<feColorMatrix in="SourceAlpha" type="matrix" values="0 0 0 0 0 0 0 0 0 0 0 0 0 0 0 0 0 0 127 0" result="hardAlpha"/>
<feOffset dy="2.04287"/>
<feGaussianBlur stdDeviation="0.340478"/>
<feColorMatrix type="matrix" values="0 0 0 0 0 0 0 0 0 0 0 0 0 0 0 0 0 0 0.0510643 0"/>
<feBlend mode="normal" in2="effect2_dropShadow_1599_6927" result="effect3_dropShadow_1599_6927"/>
<feColorMatrix in="SourceAlpha" type="matrix" values="0 0 0 0 0 0 0 0 0 0 0 0 0 0 0 0 0 0 127 0" result="hardAlpha"/>
<feOffset/>
<feGaussianBlur stdDeviation="1.02143"/>
<feColorMatrix type="matrix" values="0 0 0 0 0 0 0 0 0 0 0 0 0 0 0 0 0 0 0.05 0"/>
<feBlend mode="normal" in2="effect3_dropShadow_1599_6927" result="effect4_dropShadow_1599_6927"/>
<feBlend mode="normal" in="SourceGraphic" in2="effect4_dropShadow_1599_6927" result="shape"/>
</filter>
</defs>
</svg>
