<svg width="24" height="24" viewBox="0 0 24 24" fill="none" xmlns="http://www.w3.org/2000/svg">
    <g opacity="0.5">
        <path d="M9 2C8.46957 2 7.96086 2.21071 7.58579 2.58579C7.21071 2.96086 7 3.46957 7 4H16C16.5304 4 17.0392 4.21072 17.4142 4.58579C17.7893 4.96086 18 5.46957 18 6V18C18.5304 18 19.0392 17.7893 19.4142 17.4142C19.7893 17.0392 20 16.5304 20 16V4C20 3.46957 19.7893 2.96086 19.4142 2.58579C19.0392 2.21071 18.5304 2 18 2H9Z" fill="#FEFEFE"/>
        <path d="M15 22C15.5304 22 16.0392 21.7893 16.4142 21.4142C16.7893 21.0392 17 20.5304 17 20V7C17 6.46957 16.7893 5.96086 16.4142 5.58579C16.0392 5.21071 15.5304 5 15 5H6C5.46957 5 4.96086 5.21071 4.58579 5.58579C4.21071 5.96086 4 6.46957 4 7V20C4 20.5304 4.21071 21.0392 4.58579 21.4142C4.96086 21.7893 5.46957 22 6 22H15ZM11 7H15V12H11V7ZM6 7H10V8H6V7ZM6 9H10V10H6V9ZM6 11H10V12H6V11ZM6 13H15V14H6V13ZM6 15H15V16H6V15ZM6 17H15V18H6V17Z" fill="#FEFEFE"/>
    </g>
</svg>