<svg width="24" height="24" viewBox="0 0 24 24" fill="none" xmlns="http://www.w3.org/2000/svg">
    <g opacity="0.5">
        <path d="M12 2C10.0222 2 8.08879 2.58649 6.4443 3.6853C4.79981 4.78412 3.51809 6.3459 2.76121 8.17316C2.00433 10.0004 1.8063 12.0111 2.19215 13.9509C2.578 15.8907 3.53041 17.6725 4.92894 19.0711C6.32746 20.4696 8.10929 21.422 10.0491 21.8078C11.9889 22.1937 13.9996 21.9957 15.8268 21.2388C17.6541 20.4819 19.2159 19.2002 20.3147 17.5557C21.4135 15.9112 22 13.9778 22 12C21.9971 9.34871 20.9426 6.80684 19.0679 4.9321C17.1932 3.05736 14.6513 2.00287 12 2V2ZM12 20.3333C10.3518 20.3333 8.74066 19.8446 7.37025 18.9289C5.99984 18.0132 4.93174 16.7117 4.30101 15.189C3.67028 13.6663 3.50525 11.9908 3.82679 10.3742C4.14834 8.75774 4.94201 7.27288 6.10745 6.10744C7.27288 4.94201 8.75774 4.14833 10.3743 3.82679C11.9908 3.50525 13.6663 3.67027 15.189 4.301C16.7117 4.93173 18.0132 5.99984 18.9289 7.37025C19.8446 8.74066 20.3333 10.3518 20.3333 12C20.3309 14.2094 19.4522 16.3276 17.8899 17.8899C16.3276 19.4522 14.2094 20.3309 12 20.3333Z" fill="#FEFEFE"/>
        <path d="M12.5358 6.053C12.1035 5.96705 11.6593 5.98582 11.2344 6.108C10.8095 6.23018 10.4144 6.45278 10.0771 6.76004C9.73975 7.0673 9.46843 7.45172 9.2823 7.88608C9.09618 8.32045 8.9998 8.79414 9 9.27366C9 9.49062 9.07897 9.69869 9.21955 9.8521C9.36013 10.0055 9.55079 10.0917 9.74959 10.0917C9.94839 10.0917 10.1391 10.0055 10.2796 9.8521C10.4202 9.69869 10.4992 9.49062 10.4992 9.27366C10.499 9.03297 10.5475 8.7952 10.6411 8.5773C10.7348 8.3594 10.8714 8.16675 11.0411 8.01307C11.2109 7.85939 11.4096 7.74847 11.6231 7.68823C11.8367 7.62799 12.0597 7.61991 12.2765 7.66455C12.5726 7.72729 12.8448 7.88492 13.0585 8.11734C13.2721 8.34975 13.4174 8.64638 13.4758 8.96934C13.5348 9.30834 13.4941 9.65902 13.3594 9.97124C13.2248 10.2835 13.0032 10.5412 12.7262 10.7077C12.2676 10.9977 11.8886 11.4165 11.6288 11.9207C11.3689 12.4249 11.2377 12.9958 11.2488 13.5741V14.182C11.2488 14.3989 11.3277 14.607 11.4683 14.7604C11.6089 14.9138 11.7996 15 11.9984 15C12.1972 15 12.3878 14.9138 12.5284 14.7604C12.669 14.607 12.7479 14.3989 12.7479 14.182V13.5741C12.7385 13.2895 12.798 13.0071 12.9204 12.7555C13.0428 12.5039 13.2237 12.2919 13.4451 12.1409C13.9882 11.8154 14.4255 11.3142 14.6969 10.7064C14.9684 10.0985 15.0606 9.41384 14.9609 8.74644C14.8613 8.07905 14.5746 7.46175 14.1403 6.97943C13.706 6.49711 13.1455 6.17347 12.5358 6.053Z" fill="#FEFEFE"/>
        <path d="M13 17C13 16.4477 12.5523 16 12 16C11.4477 16 11 16.4477 11 17C11 17.5523 11.4477 18 12 18C12.5523 18 13 17.5523 13 17Z" fill="#FEFEFE"/>
    </g>
</svg>