<svg width="20" height="19" viewBox="0 0 20 19" fill="none" xmlns="http://www.w3.org/2000/svg">
    <path d="M19.4607 8.61727C19.685 8.45098 19.8513 8.21899 19.9364 7.95385C20.0216 7.6887 20.0212 7.40368 19.9353 7.13877C19.8495 6.87385 19.6825 6.64231 19.4578 6.47662C19.2332 6.31093 18.962 6.21939 18.6824 6.21485L13.2521 6.01064C13.2254 6.00881 13.1998 5.99933 13.1784 5.98334C13.157 5.96736 13.1407 5.94555 13.1315 5.92055L11.255 0.875473C11.1607 0.618798 10.9895 0.397161 10.7645 0.240571C10.5395 0.0839804 10.2715 0 9.99698 0C9.72243 0 9.45451 0.0839804 9.2295 0.240571C9.00449 0.397161 8.83325 0.618798 8.73897 0.875473L6.86854 5.93857C6.8593 5.96357 6.84299 5.98538 6.82157 6.00136C6.80016 6.01735 6.77457 6.02683 6.74787 6.02866L1.31759 6.23287C1.038 6.23741 0.766843 6.32895 0.542147 6.49464C0.317451 6.66033 0.150483 6.89187 0.0646547 7.15678C-0.0211739 7.4217 -0.0215589 7.70672 0.0635534 7.97186C0.148666 8.23701 0.315008 8.46899 0.539255 8.63529L4.799 11.9686C4.82032 11.9853 4.83626 12.0079 4.84484 12.0335C4.85341 12.0591 4.85426 12.0867 4.84727 12.1128L3.3811 17.284C3.30512 17.5473 3.31248 17.8276 3.40218 18.0866C3.49188 18.3456 3.65955 18.5708 3.8824 18.7316C4.10525 18.8924 4.37245 18.981 4.64765 18.9852C4.92285 18.9895 5.19269 18.9093 5.42047 18.7555L9.92156 15.7525C9.94374 15.7372 9.97004 15.7291 9.99698 15.7291C10.0239 15.7291 10.0502 15.7372 10.0724 15.7525L14.5735 18.7555C14.7982 18.9145 15.0671 19 15.3428 19C15.6185 19 15.8874 18.9145 16.1121 18.7555C16.335 18.5962 16.5028 18.3721 16.5925 18.1139C16.6822 17.8558 16.6893 17.5763 16.6129 17.314L15.1346 12.1248C15.1268 12.0987 15.1272 12.0709 15.1359 12.0451C15.1445 12.0193 15.1609 11.9968 15.1829 11.9807L19.4607 8.61727Z" fill="url(#paint0_linear_227_687)"/>
    <defs>
        <linearGradient id="paint0_linear_227_687" x1="10" y1="0" x2="10" y2="19" gradientUnits="userSpaceOnUse">
            <stop stop-color="#A343EF"/>
            <stop offset="0.515625" stop-color="#BA72F3"/>
            <stop offset="1" stop-color="#A343EF"/>
        </linearGradient>
    </defs>
</svg>