<svg width="24" height="24" viewBox="0 0 24 24" fill="none" xmlns="http://www.w3.org/2000/svg">
    <g opacity="0.5">
        <path d="M20.089 12.5444V11.4484L21.5015 10.245C21.7619 10.0216 21.9328 9.7157 21.9839 9.38144C22.0351 9.04719 21.9632 8.7061 21.7811 8.41843L20.0448 5.55318C19.9158 5.33561 19.7303 5.15489 19.5069 5.02917C19.2835 4.90344 19.0301 4.83712 18.772 4.83686C18.6121 4.83567 18.4531 4.85987 18.3012 4.9085L16.5134 5.49587C16.2048 5.29617 15.8828 5.1167 15.5496 4.95864L15.1744 3.15353C15.1072 2.82374 14.9229 2.5275 14.6539 2.31666C14.3849 2.10582 14.0483 1.99382 13.703 2.00026H10.2599C9.91464 1.99382 9.57804 2.10582 9.30904 2.31666C9.04004 2.5275 8.85577 2.82374 8.78849 3.15353L8.41328 4.95864C8.07775 5.11666 7.75333 5.29613 7.44215 5.49587L5.69117 4.87984C5.53762 4.84089 5.37862 4.82638 5.22031 4.83686C4.96228 4.83712 4.70886 4.90344 4.48546 5.02917C4.26207 5.15489 4.07655 5.33561 3.94754 5.55318L2.21127 8.41843C2.03955 8.70567 1.97574 9.0421 2.03076 9.3701C2.08579 9.69811 2.25624 9.99728 2.51291 10.2164L3.9034 11.4556V12.5516L2.51291 13.755C2.24899 13.9756 2.07388 14.2801 2.01866 14.6145C1.96344 14.9489 2.03168 15.2915 2.21127 15.5816L3.94754 18.4468C4.07655 18.6644 4.26207 18.8451 4.48546 18.9708C4.70886 19.0966 4.96228 19.1629 5.22031 19.1631C5.38022 19.1643 5.53925 19.1401 5.69117 19.0915L7.47893 18.5041C7.78759 18.7038 8.10956 18.8833 8.44271 19.0414L8.81792 20.8465C8.8852 21.1763 9.06946 21.4725 9.33847 21.6833C9.60747 21.8942 9.94407 22.0062 10.2893 21.9997H13.7619C14.1071 22.0062 14.4437 21.8942 14.7127 21.6833C14.9817 21.4725 15.166 21.1763 15.2333 20.8465L15.6085 19.0414C15.944 18.8833 16.2684 18.7039 16.5796 18.5041L18.36 19.0915C18.512 19.1401 18.671 19.1643 18.8309 19.1631C19.0889 19.1629 19.3424 19.0966 19.5657 18.9708C19.7891 18.8451 19.9747 18.6644 20.1037 18.4468L21.7811 15.5816C21.9528 15.2943 22.0166 14.9579 21.9616 14.6299C21.9066 14.3019 21.7361 14.0027 21.4794 13.7836L20.089 12.5444ZM18.772 17.7305L16.2486 16.8996C15.6578 17.3868 14.9827 17.7676 14.2548 18.0242L13.7324 20.5958H10.2599L9.73755 18.0529C9.0154 17.7889 8.34392 17.4088 7.75114 16.9282L5.22031 17.7305L3.48404 14.8653L5.48517 13.1461C5.34913 12.4046 5.34913 11.6455 5.48517 10.904L3.48404 9.13475L5.22031 6.26949L7.74379 7.10042C8.33451 6.61325 9.00965 6.23243 9.73755 5.9758L10.2599 3.40424H13.7324L14.2548 5.94715C14.9769 6.21106 15.6484 6.59122 16.2412 7.07176L18.772 6.26949L20.5083 9.13475L18.5072 10.8539C18.6432 11.5954 18.6432 12.3545 18.5072 13.096L20.5083 14.8653L18.772 17.7305Z" fill="#FEFEFE"/>
        <path d="M11.9962 16.2978C11.1231 16.2978 10.2696 16.0457 9.54373 15.5735C8.81781 15.1012 8.25203 14.43 7.91793 13.6446C7.58382 12.8593 7.49641 11.9951 7.66673 11.1614C7.83705 10.3277 8.25747 9.56192 8.87481 8.96085C9.49216 8.35978 10.2787 7.95045 11.135 7.78461C11.9913 7.61878 12.8788 7.70389 13.6854 8.02918C14.492 8.35448 15.1814 8.90535 15.6665 9.61213C16.1515 10.3189 16.4104 11.1499 16.4104 11.9999C16.4163 12.5659 16.3062 13.1274 16.0864 13.6514C15.8667 14.1755 15.5417 14.6515 15.1306 15.0518C14.7196 15.452 14.2306 15.7684 13.6924 15.9823C13.1541 16.1963 12.5775 16.3035 11.9962 16.2978ZM11.9962 9.13465C11.6072 9.12583 11.2205 9.19392 10.8594 9.33479C10.4982 9.47566 10.1702 9.68638 9.89509 9.95423C9.61999 10.2221 9.40356 10.5415 9.25887 10.8931C9.11419 11.2447 9.04426 11.6212 9.05333 11.9999C9.04426 12.3786 9.11419 12.7551 9.25887 13.1067C9.40356 13.4584 9.61999 13.7777 9.89509 14.0456C10.1702 14.3134 10.4982 14.5242 10.8594 14.665C11.2205 14.8059 11.6072 14.874 11.9962 14.8652C12.3851 14.874 12.7718 14.8059 13.133 14.665C13.4941 14.5242 13.8221 14.3134 14.0972 14.0456C14.3723 13.7777 14.5887 13.4584 14.7334 13.1067C14.8781 12.7551 14.948 12.3786 14.939 11.9999C14.948 11.6212 14.8781 11.2447 14.7334 10.8931C14.5887 10.5415 14.3723 10.2221 14.0972 9.95423C13.8221 9.68638 13.4941 9.47566 13.133 9.33479C12.7718 9.19392 12.3851 9.12583 11.9962 9.13465Z" fill="#FEFEFE"/>
    </g>
</svg>