<svg width="24" height="24" viewBox="0 0 24 24" fill="none" xmlns="http://www.w3.org/2000/svg">
    <g opacity="0.5">
        <path d="M12 2C10.0222 2 8.08879 2.58649 6.4443 3.6853C4.79981 4.78412 3.51809 6.3459 2.76121 8.17316C2.00433 10.0004 1.8063 12.0111 2.19215 13.9509C2.578 15.8907 3.53041 17.6725 4.92894 19.0711C6.32746 20.4696 8.10929 21.422 10.0491 21.8078C11.9889 22.1937 13.9996 21.9957 15.8268 21.2388C17.6541 20.4819 19.2159 19.2002 20.3147 17.5557C21.4135 15.9112 22 13.9778 22 12C21.9971 9.34871 20.9426 6.80684 19.0679 4.9321C17.1932 3.05736 14.6513 2.00287 12 2V2ZM12 20.3333C10.3518 20.3333 8.74066 19.8446 7.37025 18.9289C5.99984 18.0132 4.93174 16.7117 4.30101 15.189C3.67028 13.6663 3.50525 11.9908 3.82679 10.3742C4.14834 8.75774 4.94201 7.27288 6.10745 6.10744C7.27288 4.94201 8.75774 4.14833 10.3743 3.82679C11.9908 3.50525 13.6663 3.67027 15.189 4.301C16.7117 4.93173 18.0132 5.99984 18.9289 7.37025C19.8446 8.74066 20.3333 10.3518 20.3333 12C20.3309 14.2094 19.4522 16.3276 17.8899 17.8899C16.3276 19.4522 14.2094 20.3309 12 20.3333Z" fill="#FEFEFE"/>
        <path d="M12 10.3334H11.1666C10.9456 10.3334 10.7337 10.4212 10.5774 10.5775C10.4211 10.7337 10.3333 10.9457 10.3333 11.1667C10.3333 11.3877 10.4211 11.5997 10.5774 11.756C10.7337 11.9122 10.9456 12 11.1666 12H12V17C12 17.2211 12.0878 17.433 12.2441 17.5893C12.4003 17.7456 12.6123 17.8334 12.8333 17.8334C13.0543 17.8334 13.2663 17.7456 13.4226 17.5893C13.5788 17.433 13.6666 17.2211 13.6666 17V12C13.6666 11.558 13.4911 11.1341 13.1785 10.8215C12.8659 10.509 12.442 10.3334 12 10.3334Z" fill="#FEFEFE"/>
        <path d="M12 8.66663C12.6904 8.66663 13.25 8.10698 13.25 7.41663C13.25 6.72627 12.6904 6.16663 12 6.16663C11.3096 6.16663 10.75 6.72627 10.75 7.41663C10.75 8.10698 11.3096 8.66663 12 8.66663Z" fill="#FEFEFE"/>
    </g>
</svg>