<svg width="205" height="31" viewBox="0 0 205 31" fill="none" xmlns="http://www.w3.org/2000/svg">
    <path d="M158.623 15.2909C158.623 14.7386 159.071 14.2909 159.623 14.2909H162.195C162.748 14.2909 163.195 14.7386 163.195 15.2909V15.7091C163.195 16.2614 162.748 16.7091 162.195 16.7091H159.623C159.071 16.7091 158.623 16.2614 158.623 15.7091V15.2909ZM149.613 16.4171C149.613 16.9694 150.061 17.4171 150.613 17.4171H153.185C153.738 17.4171 154.185 16.9694 154.185 16.4171V14.5828C154.185 14.0305 153.738 13.5828 153.185 13.5828H150.613C150.061 13.5828 149.613 14.0305 149.613 14.5828V16.4171ZM140.755 18.4004C140.755 18.9527 141.202 19.4004 141.755 19.4004H144.327C144.879 19.4004 145.327 18.9527 145.327 18.4004V12.5996C145.327 12.0473 144.879 11.5996 144.327 11.5996H141.755C141.202 11.5996 140.755 12.0473 140.755 12.5996V18.4004ZM132.333 20.9282C132.333 20.9296 132.334 20.9308 132.336 20.9308H135.905C136.458 20.9308 136.905 20.4831 136.905 19.9308V11.1406C136.905 10.5883 136.458 10.1406 135.905 10.1406H133.333C132.781 10.1406 132.333 10.5883 132.333 11.1406V20.9282ZM123.317 17.2957C123.317 17.848 123.765 18.2957 124.317 18.2957H126.89C127.442 18.2957 127.89 17.848 127.89 17.2957V13.7042C127.89 13.152 127.442 12.7042 126.89 12.7042H124.317C123.765 12.7042 123.317 13.152 123.317 13.7042V17.2957ZM114.159 22.5267H117.731C118.283 22.5267 118.731 22.079 118.731 21.5267V9.234C118.731 8.68172 118.283 8.234 117.731 8.234H115.145C114.592 8.234 114.145 8.68172 114.145 9.234V22.5123C114.145 22.5203 114.151 22.5267 114.159 22.5267ZM105.146 23.576C105.146 24.1283 105.594 24.576 106.146 24.576H108.718C109.271 24.576 109.718 24.1282 109.718 23.576V7.42401C109.718 6.87173 109.271 6.42401 108.718 6.42401H106.146C105.594 6.42401 105.146 6.87173 105.146 7.42401V23.576ZM96.2874 20.7736C96.2874 21.3259 96.7352 21.7736 97.2874 21.7736H99.8597C100.412 21.7736 100.86 21.3259 100.86 20.7736V10.2263C100.86 9.67402 100.412 9.2263 99.8597 9.2263H97.2874C96.7352 9.2263 96.2874 9.67402 96.2874 10.2263V20.7736ZM87.1231 17.2104C87.1231 17.7627 87.5708 18.2104 88.1231 18.2104H90.6953C91.2476 18.2104 91.6953 17.7627 91.6953 17.2104V13.9217C91.6953 13.3694 91.2476 12.9217 90.6953 12.9217H88.1231C87.5708 12.9217 87.1231 13.3694 87.1231 13.9217V17.2104ZM78.2647 16.9544C78.2647 16.9518 78.2668 16.9497 78.2695 16.9497H81.8369C82.3892 16.9497 82.8369 16.5019 82.8369 15.9497V15.0457C82.8369 14.4934 82.3892 14.0457 81.8369 14.0457H79.2647C78.7124 14.0457 78.2647 14.4934 78.2647 15.0457V16.9544ZM69.406 18.5052C69.406 18.5042 69.4069 18.5033 69.408 18.5033H72.9783C73.5306 18.5033 73.9783 18.0556 73.9783 17.5033V13.4946C73.9783 12.9423 73.5306 12.4946 72.9783 12.4946H70.406C69.8538 12.4946 69.406 12.9423 69.406 13.4946V18.5052ZM60.6905 21.4141C60.6904 21.413 60.6913 21.412 60.6924 21.412H64.2625C64.8148 21.412 65.2625 20.9643 65.2625 20.412V10.2442C65.2625 9.69188 64.8148 9.24416 64.2625 9.24416H61.6905C61.1383 9.24416 60.6905 9.69188 60.6905 10.2442V21.4141ZM51.8319 19.5551C51.8319 19.554 51.8328 19.5531 51.8339 19.5531H55.4041C55.9564 19.5531 56.4041 19.1053 56.4041 18.5531V12.3424C56.4041 11.7901 55.9564 11.3424 55.4041 11.3424H52.8319C52.2796 11.3424 51.8319 11.7901 51.8319 12.3424V19.5551ZM42.8047 16.4171C42.8047 16.9694 43.2524 17.4171 43.8047 17.4171H46.3769C46.9292 17.4171 47.3769 16.9694 47.3769 16.4171V14.5828C47.3769 14.0305 46.9292 13.5828 46.3769 13.5828H43.8047C43.2524 13.5828 42.8047 14.0305 42.8047 14.5828V16.4171Z" fill="#4B7FD6"/>
    <rect x="166" y="14.6842" width="4" height="2.17544" rx="1" fill="#4B7FD6"/>
    <rect x="173" y="14.6842" width="4" height="2.17544" rx="1" fill="#4B7FD6"/>
    <rect x="180" y="14.6842" width="4" height="2.17544" rx="1" fill="#4B7FD6"/>
    <rect x="187" y="14.6842" width="4" height="2.17544" rx="1" fill="#4B7FD6"/>
    <rect x="194" y="14.6842" width="4" height="2.17544" rx="1" fill="#4B7FD6"/>
    <rect x="201" y="14.6842" width="4" height="2.17544" rx="1" fill="#4B7FD6"/>
    <rect y="14.6842" width="4" height="2.17544" rx="1" fill="#4B7FD6"/>
    <rect x="7" y="14.6842" width="4" height="2.17544" rx="1" fill="#4B7FD6"/>
    <rect x="14" y="14.6842" width="4" height="2.17544" rx="1" fill="#4B7FD6"/>
    <rect x="21" y="14.6842" width="4" height="2.17544" rx="1" fill="#4B7FD6"/>
    <rect x="28" y="14.6842" width="4" height="2.17544" rx="1" fill="#4B7FD6"/>
    <rect x="35" y="14.6842" width="4" height="2.17544" rx="1" fill="#4B7FD6"/>
</svg>
