<svg width="233" height="57" viewBox="0 0 233 57" fill="none" xmlns="http://www.w3.org/2000/svg">
    <path d="M172.623 27.2768C172.623 26.7245 173.071 26.2768 173.623 26.2768H176.195C176.748 26.2768 177.195 26.7245 177.195 27.2768V29.7232C177.195 30.2755 176.748 30.7232 176.195 30.7232H173.623C173.071 30.7232 172.623 30.2755 172.623 29.7232V27.2768ZM163.613 31.0251C163.613 31.5774 164.061 32.0251 164.613 32.0251H167.185C167.738 32.0251 168.185 31.5774 168.185 31.0251V25.9749C168.185 25.4226 167.738 24.9749 167.185 24.9749H164.613C164.061 24.9749 163.613 25.4226 163.613 25.9749V31.0251ZM154.755 34.6717C154.755 35.224 155.202 35.6717 155.755 35.6717H158.327C158.879 35.6717 159.327 35.224 159.327 34.6717V22.3282C159.327 21.7759 158.879 21.3282 158.327 21.3282H155.755C155.202 21.3282 154.755 21.7759 154.755 22.3282V34.6717ZM146.333 38.4809C146.333 38.4835 146.335 38.4857 146.338 38.4857H149.905C150.458 38.4857 150.905 38.0379 150.905 37.4857V19.6455C150.905 19.0933 150.458 18.6455 149.905 18.6455H147.333C146.781 18.6455 146.333 19.0933 146.333 19.6455V38.4809ZM137.317 32.6406C137.317 33.1928 137.765 33.6406 138.317 33.6406H140.89C141.442 33.6406 141.89 33.1928 141.89 32.6406V24.3594C141.89 23.8071 141.442 23.3594 140.89 23.3594H138.317C137.765 23.3594 137.317 23.8071 137.317 24.3594V32.6406ZM128.159 41.42H131.731C132.283 41.42 132.731 40.9723 132.731 40.42V16.1399C132.731 15.5876 132.283 15.1399 131.731 15.1399H129.145C128.592 15.1399 128.145 15.5876 128.145 16.1399V41.4057C128.145 41.4136 128.151 41.42 128.159 41.42ZM119.146 44.1881C119.146 44.7403 119.594 45.1881 120.146 45.1881H122.718C123.271 45.1881 123.718 44.7403 123.718 44.1881V12.8119C123.718 12.2596 123.271 11.8119 122.718 11.8119H120.146C119.594 11.8119 119.146 12.2596 119.146 12.8119V44.1881ZM110.287 39.0353C110.287 39.5876 110.735 40.0353 111.287 40.0353H113.86C114.412 40.0353 114.86 39.5876 114.86 39.0353V17.9645C114.86 17.4122 114.412 16.9645 113.86 16.9645H111.287C110.735 16.9645 110.287 17.4122 110.287 17.9645V39.0353ZM101.123 32.4837C101.123 33.036 101.571 33.4837 102.123 33.4837H104.695C105.248 33.4837 105.695 33.036 105.695 32.4837V24.7592C105.695 24.2069 105.248 23.7592 104.695 23.7592H102.123C101.571 23.7592 101.123 24.2069 101.123 24.7592V32.4837ZM92.2647 31.1743C92.2647 31.1694 92.2686 31.1655 92.2735 31.1655H95.8369C96.3892 31.1655 96.8369 30.7178 96.8369 30.1655V26.8259C96.8369 26.2736 96.3892 25.8259 95.8369 25.8259H93.2647C92.7124 25.8259 92.2647 26.2736 92.2647 26.8259V31.1743ZM83.406 34.0257C83.406 34.0238 83.4076 34.0222 83.4096 34.0222H86.9783C87.5306 34.0222 87.9783 33.5745 87.9783 33.0222V23.974C87.9783 23.4217 87.5306 22.974 86.9783 22.974H84.406C83.8538 22.974 83.406 23.4217 83.406 23.974V34.0257ZM74.6905 39.3743C74.6904 39.3722 74.6921 39.3704 74.6942 39.3704H78.2625C78.8148 39.3704 79.2625 38.9227 79.2625 38.3704V17.9973C79.2625 17.445 78.8148 16.9973 78.2625 16.9973H75.6905C75.1383 16.9973 74.6905 17.445 74.6905 17.9973V39.3743ZM65.8319 35.9562C65.8319 35.9541 65.8336 35.9524 65.8357 35.9524H69.4041C69.9564 35.9524 70.4041 35.5047 70.4041 34.9524V21.8554C70.4041 21.3031 69.9564 20.8554 69.4041 20.8554H66.8319C66.2796 20.8554 65.8319 21.3031 65.8319 21.8554V35.9562ZM56.8047 31.0251C56.8047 31.5774 57.2524 32.0251 57.8047 32.0251H60.3769C60.9292 32.0251 61.3769 31.5774 61.3769 31.0251V25.9749C61.3769 25.4226 60.9292 24.9749 60.3769 24.9749H57.8047C57.2524 24.9749 56.8047 25.4226 56.8047 25.9749V31.0251Z" fill="#4B7FD6"/>
    <rect x="180" y="27" width="4" height="4" rx="1" fill="#4B7FD6"/>
    <rect x="187" y="27" width="4" height="4" rx="1" fill="#4B7FD6"/>
    <rect x="194" y="27" width="4" height="4" rx="1" fill="#4B7FD6"/>
    <rect x="201" y="27" width="4" height="4" rx="1" fill="#4B7FD6"/>
    <rect x="208" y="27" width="4" height="4" rx="1" fill="#4B7FD6"/>
    <rect x="215" y="27" width="4" height="4" rx="1" fill="#4B7FD6"/>
    <rect x="222" y="27" width="4" height="4" rx="1" fill="#4B7FD6"/>
    <rect x="229" y="27" width="4" height="4" rx="1" fill="#4B7FD6"/>
    <rect y="27" width="4" height="4" rx="1" fill="#4B7FD6"/>
    <rect x="7" y="27" width="4" height="4" rx="1" fill="#4B7FD6"/>
    <rect x="14" y="27" width="4" height="4" rx="1" fill="#4B7FD6"/>
    <rect x="21" y="27" width="4" height="4" rx="1" fill="#4B7FD6"/>
    <rect x="28" y="27" width="4" height="4" rx="1" fill="#4B7FD6"/>
    <rect x="35" y="27" width="4" height="4" rx="1" fill="#4B7FD6"/>
    <rect x="42" y="27" width="4" height="4" rx="1" fill="#4B7FD6"/>
    <rect x="49" y="27" width="4" height="4" rx="1" fill="#4B7FD6"/>
</svg>
