<svg width="56" height="24" viewBox="0 0 56 24" fill="none" xmlns="http://www.w3.org/2000/svg">
    <path d="M51.2455 11.0639H53.1562V12.9361H51.2455V11.0639ZM47.4801 13.4843H49.3909V10.5158H47.4801V13.4843ZM43.778 15.0197H45.6888V8.98032H43.778V15.0197ZM40.2586 16.2045H42.1694V7.85078H40.2586V16.2025V16.2045ZM36.4909 14.1645H38.4017V9.83556H36.4909V14.1645ZM32.6634 17.44H34.5742V6.37473H32.6574V17.44H32.6634ZM28.8969 19.0266H30.8077V4.97345H28.8969V19.0266ZM25.1947 16.857H27.1055V7.14297H25.1947V16.8571V16.857ZM21.3649 14.0984H23.2757V10.0039H21.3649V14.0984ZM17.6629 13.1223H19.5736V10.8741H17.6629V13.126V13.1223ZM13.9607 14.3252H15.8715V9.67328H13.9607V14.3267V14.3252ZM10.3183 16.577H12.2291V7.15679H10.3184V16.5787L10.3183 16.577ZM6.61631 15.1379H8.52709V8.78125H6.61631V15.1395V15.1379ZM2.84375 13.4843H4.75453V10.5158H2.84375V13.4843Z" fill="#4B7FD6"/>
</svg>
